<svg width="108" height="107" viewBox="0 0 108 107" fill="none" xmlns="http://www.w3.org/2000/svg">
<ellipse cx="54" cy="53.5" rx="54" ry="53.5" fill="#111111"/>
<path d="M54 2C82.7364 2 106 25.0748 106 53.5C106 81.9252 82.7364 105 54 105C25.2636 105 2 81.9252 2 53.5C2 25.0748 25.2636 2 54 2Z" stroke="black" stroke-width="4"/>
<path d="M54 6C80.5194 6 102 27.2761 102 53.5C102 79.7239 80.5194 101 54 101C27.4806 101 6 79.7239 6 53.5C6 27.2761 27.4806 6 54 6Z" stroke="white" stroke-width="2"/>
<path d="M35 17.5L35 37.5" stroke="white" stroke-width="2" stroke-linecap="round"/>
<path d="M34.9983 37.5002L35.5002 36.9995L36.9983 36.5002L38.497 36.4999L40.9994 36.5L43.5001 36.4999L45.5 36.5L47 37L48.5 37.5L49.5 38L50.5 38.5L51.5002 38.9995L52.5002 39.4995L53.5002 39.9995" stroke="white" stroke-width="2"/>
<path d="M58.5118 37.9321L58.1498 36.9999L57.9282 37.086L57.769 37.2625L58.5118 37.9321ZM60.0202 37.3463L59.7923 36.3726L59.7238 36.3887L59.6582 36.4141L60.0202 37.3463ZM61.4999 36.9999L61.7278 37.9736L61.7351 37.9719L61.7424 37.9701L61.4999 36.9999ZM63.4999 36.4999L63.4999 35.4999L63.3768 35.4999L63.2573 35.5298L63.4999 36.4999ZM66.4997 36.5L66.4997 35.5L66.4997 35.5L66.4997 36.5ZM68.4995 36.5L68.4995 37.5L68.4996 37.5L68.4995 36.5ZM70.4994 36.5L70.8156 35.5513L70.6617 35.5L70.4994 35.5L70.4994 36.5ZM71.9994 37L71.6832 37.9487L71.8371 38L71.9994 38L71.9994 37ZM73.4999 28.5L72.4999 28.4999L72.4999 28.4999L73.4999 28.5ZM74.5 16.9998C74.5 16.4476 74.0523 15.9998 73.5 15.9998C72.9477 15.9998 72.5 16.4475 72.5 16.9998L74.5 16.9998ZM72.9998 36.9999L72.9999 37.9999L73.414 37.9999L73.7069 37.7071L72.9998 36.9999ZM73.4998 34.9999L72.4998 34.9999L72.4998 34.9999L73.4998 34.9999ZM73.4998 36.4999L74.2069 37.2071L74.4998 36.9142L74.4998 36.4999L73.4998 36.4999ZM57.9999 38.4999L58.7426 39.1695L59.2545 38.6017L58.5118 37.9321L57.769 37.2625L57.2571 37.8303L57.9999 38.4999ZM58.5118 37.9321L58.8738 38.8643L60.3822 38.2785L60.0202 37.3463L59.6582 36.4141L58.1498 36.9999L58.5118 37.9321ZM60.0202 37.3463L60.2481 38.32L61.7278 37.9736L61.4999 36.9999L61.2719 36.0262L59.7923 36.3726L60.0202 37.3463ZM61.4999 36.9999L61.7424 37.9701L63.7424 37.4701L63.4999 36.4999L63.2573 35.5298L61.2573 36.0298L61.4999 36.9999ZM63.4999 36.4999L63.4998 37.4999L66.4997 37.5L66.4997 36.5L66.4997 35.5L63.4999 35.4999L63.4999 36.4999ZM66.4997 36.5L66.4997 37.5L68.4995 37.5L68.4995 36.5L68.4996 35.5L66.4997 35.5L66.4997 36.5ZM68.4995 36.5L68.4996 37.5L70.4994 37.5L70.4994 36.5L70.4994 35.5L68.4995 35.5L68.4995 36.5ZM70.4994 36.5L70.1832 37.4487L71.6832 37.9487L71.9994 37L72.3156 36.0513L70.8156 35.5513L70.4994 36.5ZM73.4999 28.5L74.4999 28.5L74.5 16.9998L73.5 16.9998L72.5 16.9998L72.4999 28.4999L73.4999 28.5ZM71.9994 37L71.9994 38L72.9999 37.9999L72.9998 36.9999L72.9998 35.9999L71.9993 36L71.9994 37ZM73.4998 34.9999L74.4998 35L74.4999 28.5L73.4999 28.5L72.4999 28.4999L72.4998 34.9999L73.4998 34.9999ZM72.9998 36.9999L73.7069 37.7071L74.2069 37.2071L73.4998 36.4999L72.7927 35.7928L72.2927 36.2928L72.9998 36.9999ZM73.4998 36.4999L74.4998 36.4999L74.4998 34.9999L73.4998 34.9999L72.4998 34.9999L72.4998 36.4999L73.4998 36.4999Z" fill="white"/>
<path d="M51.5 39L53.5 40H55H56.5L58.5 38" stroke="white" stroke-width="2"/>
<path d="M46.918 15L48.2646 15.4482L50.2002 16.9004L50.2109 16.9082L50.2227 16.916L51.6387 17.8604L52.5 19.1514V35.6904L52.2236 35.5527L49.2236 34.0527L49.1914 34.0371L49.1582 34.0254L46.1582 33.0254L46.0957 33.0049L46.0293 33.001L38 32.5283V15.207L38.207 15H46.918Z" fill="white" stroke="white"/>
<path d="M61.082 15L59.7354 15.4482L57.7998 16.9004L57.7891 16.9082L57.7773 16.916L56.3613 17.8604L55.5 19.1514V35.6904L55.7764 35.5527L58.7764 34.0527L58.8086 34.0371L58.8418 34.0254L61.8418 33.0254L61.9043 33.0049L61.9707 33.001L70 32.5283V15.207L69.793 15H61.082Z" fill="white" stroke="white"/>
<path d="M53 36.5V19L52.5 18L51.5 17L50 16L48.5 15L47 14.5H45H38.5L38 14.5L37.5 15V15.5V33.5" stroke="white" stroke-width="0.5"/>
<path d="M37.5 32.5L37.5001 33.25H44.5H45.3167L46.5 33.5L49 34.5L52.5 36.5H53V35.5" stroke="white" stroke-width="0.5"/>
<path d="M55 36.5V19L55.5 18L56.5 17L58 16L59.5 15L61 14.5H63H69.5L70 14.5L70.5 15V15.5V33.5" stroke="white" stroke-width="0.5"/>
<path d="M70.5 32.5L70.4999 33.25H63.5H62.6833L61.5 33.5L59 34.5L55.5 36.5H55V35.5" stroke="white" stroke-width="0.5"/>
<path d="M14.0561 67.18C13.9661 66.91 13.9061 66.64 13.8761 66.37C13.8461 66.1 13.8311 65.83 13.8311 65.56L18.1061 64.075C18.2561 62.935 18.3611 61.825 18.4211 60.745C18.4811 59.665 18.5111 58.51 18.5111 57.28C18.5111 56.17 18.4961 54.88 18.4661 53.41C18.4661 51.94 18.4061 50.665 18.2861 49.585L13.6511 51.295L13.2011 51.16L12.6611 49.81C13.3511 49.36 14.0261 48.91 14.6861 48.46C15.3761 47.98 16.0511 47.485 16.7111 46.975C17.4011 46.465 18.0761 45.955 18.7361 45.445C19.3961 44.905 20.0561 44.35 20.7161 43.78L22.3361 44.725L21.9761 47.245V64.57L25.9361 65.47C25.9361 65.68 25.9211 65.935 25.8911 66.235C25.8911 66.505 25.8611 66.76 25.8011 67C25.5011 67 24.9611 67 24.1811 67C23.4011 67 22.5011 67 21.4811 67C20.4911 67.03 19.4861 67.045 18.4661 67.045C17.4761 67.075 16.5761 67.09 15.7661 67.09C14.9861 67.12 14.4161 67.15 14.0561 67.18ZM39.1946 67.54C37.4546 67.54 35.8346 67.09 34.3346 66.19C32.8646 65.26 31.6796 63.97 30.7796 62.32C29.8796 60.64 29.4296 58.69 29.4296 56.47C29.4296 54.85 29.6846 53.275 30.1946 51.745C30.7046 50.215 31.2896 48.94 31.9496 47.92C33.0296 46.96 34.3196 46.105 35.8196 45.355C37.3196 44.605 38.8796 44.08 40.4996 43.78C42.2696 43.78 43.8896 44.245 45.3596 45.175C46.8296 46.075 48.0146 47.365 48.9146 49.045C49.8146 50.695 50.2646 52.645 50.2646 54.895C50.2646 56.005 50.1296 57.1 49.8596 58.18C49.6196 59.26 49.2896 60.265 48.8696 61.195C48.4796 62.095 48.0446 62.905 47.5646 63.625C46.4846 64.495 45.2096 65.29 43.7396 66.01C42.2996 66.73 40.7846 67.24 39.1946 67.54ZM38.7446 63.49C40.2746 63.49 41.6996 63.16 43.0196 62.5C44.3696 61.81 45.4496 60.865 46.2596 59.665C47.0696 58.435 47.4746 57.04 47.4746 55.48C47.4746 53.92 47.1596 52.54 46.5296 51.34C45.8996 50.14 45.1496 49.195 44.2796 48.505C43.7396 48.295 43.1846 48.145 42.6146 48.055C42.0446 47.965 41.4746 47.92 40.9046 47.92C39.7646 47.92 38.6696 48.115 37.6196 48.505C36.5696 48.865 35.6396 49.39 34.8296 50.08C34.0196 50.77 33.3746 51.61 32.8946 52.6C32.4146 53.59 32.1746 54.7 32.1746 55.93C32.1746 57.49 32.4896 58.87 33.1196 60.07C33.7496 61.24 34.4996 62.17 35.3696 62.86C35.9396 63.07 36.4946 63.235 37.0346 63.355C37.6046 63.445 38.1746 63.49 38.7446 63.49Z" fill="white"/>
<path d="M55.9699 53.62C57.9299 53.54 58.8799 53.5 58.8199 53.5H58.9999V54.61V55.72L59.2399 55.48C59.7399 54.96 60.3399 54.54 61.0399 54.22C61.6199 53.9 62.2999 53.68 63.0799 53.56C63.6799 53.48 64.4299 53.48 65.3299 53.56C65.3899 53.56 65.4399 53.56 65.4799 53.56C66.1399 53.64 66.7099 53.82 67.1899 54.1C67.7899 54.44 68.2199 54.91 68.4799 55.51L68.5699 55.72L68.8099 55.48C69.3299 54.96 69.9299 54.54 70.6099 54.22C71.1899 53.9 71.8699 53.68 72.6499 53.56C73.1499 53.48 73.8399 53.47 74.7199 53.53C74.7999 53.55 74.8699 53.56 74.9299 53.56C75.5299 53.62 76.0699 53.76 76.5499 53.98C77.5499 54.48 78.1599 55.36 78.3799 56.62C78.4199 56.84 78.4499 58.27 78.4699 60.91V64.84H79.5199H80.5399V65.92V67H80.2699C80.2899 67 79.5999 66.98 78.1999 66.94C76.9999 66.92 75.7999 66.92 74.5999 66.94L72.4999 67H72.2299V65.92V64.84H73.2799H74.2999V61.09C74.2999 58.49 74.2899 57.13 74.2699 57.01C74.1699 55.99 73.7399 55.43 72.9799 55.33C72.8399 55.33 72.6799 55.33 72.4999 55.33C71.5399 55.39 70.7199 55.76 70.0399 56.44C69.5599 56.92 69.2399 57.45 69.0799 58.03C68.9599 58.37 68.8999 59.23 68.8999 60.61C68.8999 60.85 68.8999 61.27 68.8999 61.87V64.84H69.9499H70.9699V65.92V67H70.6999L68.5999 66.94C67.3999 66.92 66.1999 66.92 64.9999 66.94C63.5999 66.98 62.9099 67 62.9299 67H62.6599V65.92V64.84H63.7099H64.7299V61.09C64.7299 58.49 64.7199 57.13 64.6999 57.01C64.5999 55.99 64.1699 55.43 63.4099 55.33C63.2699 55.33 63.1099 55.33 62.9299 55.33C61.9699 55.39 61.1499 55.76 60.4699 56.44C59.9899 56.92 59.6699 57.45 59.5099 58.03C59.3899 58.37 59.3299 59.23 59.3299 60.61C59.3299 60.85 59.3299 61.27 59.3299 61.87V64.84H60.3799H61.3999V65.92V67H61.1299L59.0299 66.94C57.8299 66.92 56.6299 66.92 55.4299 66.94C54.0299 66.98 53.3399 67 53.3599 67H53.0899V65.92V64.84H54.1399H55.1599V60.7C55.1599 57.94 55.1399 56.51 55.0999 56.41C55.0399 56.21 54.9099 56.08 54.7099 56.02C54.4299 55.94 54.0199 55.9 53.4799 55.9H53.0899V54.82V53.74H53.1799C53.0799 53.74 54.0099 53.7 55.9699 53.62Z" fill="white"/>
<path d="M87.8711 53.44L90.3311 53.47C92.9511 53.77 94.6211 54.76 95.3411 56.44C95.4211 56.62 95.4811 56.8 95.5211 56.98L95.6111 57.31L95.6411 60.91C95.6411 63.25 95.6611 64.46 95.7011 64.54C95.8611 64.7 96.2911 64.8 96.9911 64.84C97.3111 64.84 97.5411 64.88 97.6811 64.96C97.8011 65.08 97.8611 65.4 97.8611 65.92C97.8611 66.44 97.7911 66.76 97.6511 66.88C97.4511 66.96 96.8111 67 95.7311 67C94.5311 66.98 93.7411 66.91 93.3611 66.79C92.7411 66.59 92.3411 66.28 92.1611 65.86C92.0811 65.7 92.0411 65.61 92.0411 65.59C92.0411 65.57 91.9511 65.62 91.7711 65.74C90.8911 66.44 89.7111 66.9 88.2311 67.12C87.4511 67.2 86.8411 67.21 86.4011 67.15C84.6011 66.95 83.3311 66.21 82.5911 64.93C82.4111 64.63 82.2811 64.32 82.2011 64C82.1411 63.78 82.1111 63.5 82.1111 63.16C82.1111 62.68 82.1911 62.27 82.3511 61.93C82.5911 61.45 82.9211 61.04 83.3411 60.7C84.0411 60.16 84.9311 59.74 86.0111 59.44C87.3311 59.04 88.9011 58.8 90.7211 58.72L91.4711 58.69V58.15L91.4411 57.37V57.34C91.3211 56.5 90.9111 55.91 90.2111 55.57C89.7711 55.35 89.2011 55.24 88.5011 55.24C87.6811 55.24 87.2511 55.26 87.2111 55.3L87.3011 55.48C87.4611 55.76 87.5311 56.12 87.5111 56.56C87.5111 56.88 87.4911 57.11 87.4511 57.25C87.3311 57.61 87.1511 57.91 86.9111 58.15C86.6511 58.41 86.3411 58.6 85.9811 58.72C85.8211 58.76 85.5911 58.78 85.2911 58.78C84.9911 58.78 84.7711 58.76 84.6311 58.72C84.2511 58.6 83.9311 58.41 83.6711 58.15C83.4311 57.91 83.2511 57.61 83.1311 57.25C83.0911 57.11 83.0711 56.88 83.0711 56.56C83.0711 56.24 83.0911 56.01 83.1311 55.87C83.4311 54.77 84.4011 54.04 86.0411 53.68C86.5811 53.56 87.1911 53.48 87.8711 53.44ZM91.4711 61.93C91.4711 60.89 91.4611 60.37 91.4411 60.37C91.4211 60.37 91.3711 60.38 91.2911 60.4C90.1111 60.48 89.0811 60.69 88.2011 61.03C87.2611 61.41 86.6711 61.94 86.4311 62.62C86.3311 62.9 86.3211 63.26 86.4011 63.7C86.6011 64.5 87.0611 65.02 87.7811 65.26C87.8211 65.28 87.8711 65.3 87.9311 65.32C88.6711 65.44 89.4511 65.29 90.2711 64.87C90.3311 64.85 90.3911 64.82 90.4511 64.78C90.8311 64.54 91.1011 64.27 91.2611 63.97C91.3811 63.73 91.4511 63.33 91.4711 62.77V61.93Z" fill="white"/>
<path d="M19.5333 74.484V73.98H23.8733H28.2273V74.036C28.2366 74.0733 28.3113 74.6753 28.4513 75.842C28.5726 76.9807 28.6426 77.5827 28.6613 77.648V77.704H28.1573H27.6533L27.6253 77.466C27.5413 76.8593 27.4293 76.3973 27.2893 76.08C27 75.492 26.4633 75.142 25.6793 75.03C25.4273 75.002 24.956 74.988 24.2653 74.988H23.3833V76.514V78.054H23.6353C24.0646 78.054 24.3773 78.0027 24.5733 77.9C24.732 77.8347 24.8486 77.732 24.9233 77.592C25.054 77.3773 25.1193 77.046 25.1193 76.598V76.416H25.6233H26.1273V78.558V80.7H25.6233H25.1193V80.518C25.1193 80.07 25.054 79.7387 24.9233 79.524C24.8486 79.384 24.732 79.2813 24.5733 79.216C24.3773 79.1133 24.0646 79.062 23.6353 79.062H23.3833V80.77V82.492H24.2933C24.956 82.492 25.3293 82.4873 25.4133 82.478C26.3653 82.4127 27.0373 82.1047 27.4293 81.554C27.476 81.498 27.5366 81.3907 27.6113 81.232C27.7793 80.9053 27.924 80.392 28.0453 79.692C28.064 79.5053 28.0826 79.3933 28.1013 79.356V79.314H28.6053H29.1093V79.356C29.1 79.3747 28.9926 80.056 28.7873 81.4C28.582 82.7533 28.4746 83.4393 28.4653 83.458V83.5H23.9993H19.5333V82.996V82.492H20.2893H21.0453V78.74V74.988H20.2893H19.5333V74.484ZM30.1153 74.4V73.896H33.2093C35.328 73.896 36.4293 73.9007 36.5133 73.91C37.288 73.966 37.9787 74.148 38.5853 74.456C39.78 75.0627 40.536 76.052 40.8533 77.424C40.872 77.5267 40.8907 77.6293 40.9093 77.732C41.068 78.6373 41.0307 79.4913 40.7973 80.294C40.4427 81.5073 39.724 82.3847 38.6413 82.926C38.128 83.1967 37.5073 83.3787 36.7793 83.472C36.6767 83.4813 35.5333 83.4907 33.3493 83.5H30.1153V82.996V82.492H30.8713H31.6273V78.698V74.904H30.8713H30.1153V74.4ZM35.8553 74.918C35.79 74.9087 35.4307 74.904 34.7773 74.904H33.8813V78.698V82.492H34.9033C35.6407 82.4827 36.042 82.4733 36.1073 82.464C36.9193 82.3613 37.5353 82.0767 37.9553 81.61C38.31 81.2087 38.5153 80.5927 38.5713 79.762C38.6087 79.0153 38.6087 78.32 38.5713 77.676C38.562 77.6293 38.5573 77.592 38.5573 77.564C38.464 76.5187 38.0953 75.7907 37.4513 75.38C37.3673 75.3333 37.2787 75.2867 37.1853 75.24C36.8307 75.072 36.3873 74.9647 35.8553 74.918ZM42.195 74.4V73.896H42.391L43.763 73.924C44.5657 73.9333 45.3637 73.9333 46.157 73.924L47.543 73.896H47.725V74.4V74.904H46.927H46.129V78.698V82.492H46.927H47.725V82.996V83.5H47.529L46.157 83.472C45.3637 83.4627 44.5657 83.4627 43.763 83.472L42.377 83.5H42.195V82.996V82.492H42.993H43.791V78.698V74.904H42.993H42.195V74.4ZM48.8807 74.134V74.05H53.5987H58.3307V74.134L58.4847 75.912C58.5687 77.0787 58.6154 77.6713 58.6247 77.69V77.774H58.1207C57.7847 77.774 57.6167 77.7693 57.6167 77.76C57.6167 77.5733 57.5934 77.3307 57.5467 77.032C57.4907 76.612 57.4114 76.2667 57.3087 75.996C57.1687 75.6693 56.9307 75.4267 56.5947 75.268C56.4547 75.1933 56.268 75.1373 56.0347 75.1C55.9507 75.0813 55.7127 75.0673 55.3207 75.058H54.7747V78.768V82.492H55.8527H56.9167V82.996V83.5H56.6927L55.0407 83.472C54.0794 83.4627 53.1227 83.4627 52.1707 83.472L50.5187 83.5H50.2947V82.996V82.492H51.3727H52.4367V78.768V75.058H51.8907C51.4987 75.0673 51.2607 75.0813 51.1767 75.1C50.738 75.184 50.402 75.3473 50.1687 75.59C50.0194 75.7393 49.898 75.9633 49.8047 76.262C49.73 76.5327 49.6694 76.948 49.6227 77.508C49.604 77.6667 49.5947 77.7507 49.5947 77.76C49.5947 77.7693 49.4267 77.774 49.0907 77.774H48.5867V77.69L48.7407 75.912C48.8247 74.7453 48.8714 74.1527 48.8807 74.134ZM59.49 74.4V73.896H59.686L61.058 73.924C61.8606 73.9333 62.6586 73.9333 63.452 73.924L64.838 73.896H65.02V74.4V74.904H64.222H63.424V78.698V82.492H64.222H65.02V82.996V83.5H64.824L63.452 83.472C62.6586 83.4627 61.8606 83.4627 61.058 83.472L59.672 83.5H59.49V82.996V82.492H60.288H61.086V78.698V74.904H60.288H59.49V74.4ZM70.8796 73.756C71.1876 73.7373 71.575 73.742 72.0416 73.77C73.311 73.91 74.333 74.3627 75.1076 75.128C75.8636 75.884 76.3163 76.878 76.4656 78.11C76.503 78.4833 76.503 78.8893 76.4656 79.328C76.4656 79.3467 76.4656 79.3653 76.4656 79.384C76.3256 80.5507 75.8963 81.5027 75.1776 82.24C74.8323 82.576 74.4403 82.856 74.0016 83.08C73.423 83.36 72.7696 83.542 72.0416 83.626C71.6496 83.6633 71.211 83.6633 70.7256 83.626C70.6976 83.626 70.6743 83.626 70.6556 83.626C69.3303 83.4673 68.2896 83.0053 67.5336 82.24C66.8056 81.512 66.3716 80.56 66.2316 79.384C66.1943 79.0293 66.1943 78.628 66.2316 78.18C66.2316 78.152 66.2316 78.1287 66.2316 78.11C66.3063 77.55 66.423 77.074 66.5816 76.682C67.0016 75.6087 67.7063 74.8293 68.6956 74.344C69.3303 74.0173 70.0583 73.8213 70.8796 73.756ZM71.6356 74.666C70.8516 74.582 70.1843 74.792 69.6336 75.296C69.503 75.4173 69.3863 75.5527 69.2836 75.702C69.0316 76.0847 68.859 76.5607 68.7656 77.13C68.6723 77.8113 68.6583 78.6233 68.7236 79.566C68.733 79.65 68.7423 79.7293 68.7516 79.804C68.8543 80.8773 69.1903 81.6567 69.7596 82.142C70.3756 82.6553 71.0756 82.828 71.8596 82.66C72.261 82.576 72.6203 82.4033 72.9376 82.142C73.507 81.6567 73.843 80.8773 73.9456 79.804C74.039 79.02 74.0436 78.1893 73.9596 77.312C73.9503 77.2467 73.941 77.186 73.9316 77.13C73.8663 76.7287 73.7543 76.3553 73.5956 76.01C73.2036 75.2167 72.5503 74.7687 71.6356 74.666ZM77.9532 74.4V73.896H79.8852H81.8312L81.8872 73.924C81.9152 73.9333 82.7412 74.9367 84.3652 76.934C86.0172 78.9687 86.8292 79.972 86.8012 79.944L86.8432 79.986V77.452V74.904H86.0872H85.3312V74.4V73.896H85.4712L86.4932 73.924C87.0906 73.9333 87.6879 73.9333 88.2852 73.924C88.9572 73.9053 89.2979 73.896 89.3072 73.896H89.4472V74.4V74.904H88.6912H87.9352V79.104C87.9352 81.8947 87.9259 83.3087 87.9072 83.346C87.8886 83.402 87.8512 83.444 87.7952 83.472C87.7579 83.4907 87.6226 83.5 87.3892 83.5C87.1559 83.5 87.0206 83.4907 86.9832 83.472C86.9646 83.4627 85.8959 82.1607 83.7772 79.566C81.6399 76.906 80.5806 75.5947 80.5992 75.632L80.5572 75.59V79.034V82.492H81.3132H82.0692V82.996V83.5H81.9292C81.9386 83.5 81.5979 83.4907 80.9072 83.472C80.3099 83.4627 79.7126 83.4627 79.1152 83.472C78.4246 83.4907 78.0839 83.5 78.0932 83.5H77.9532V82.996V82.492H78.7092H79.4652V78.698V74.904H78.7092H77.9532V74.4Z" fill="white"/>
</svg>
