<svg width="108" height="107" viewBox="0 0 108 107" fill="none" xmlns="http://www.w3.org/2000/svg">
<ellipse cx="54" cy="53.5" rx="54" ry="53.5" fill="#111111"/>
<path d="M54 2C82.7364 2 106 25.0748 106 53.5C106 81.9252 82.7364 105 54 105C25.2636 105 2 81.9252 2 53.5C2 25.0748 25.2636 2 54 2Z" stroke="#111111" stroke-width="4"/>
<path d="M54 6C80.5194 6 102 27.2761 102 53.5C102 79.7239 80.5194 101 54 101C27.4806 101 6 79.7239 6 53.5C6 27.2761 27.4806 6 54 6Z" stroke="white" stroke-width="2"/>
<path d="M35 17.5L35 37.5" stroke="black" stroke-width="2" stroke-linecap="round"/>
<path d="M34.9983 37.5002L35.5002 36.9995L36.9983 36.5002L38.497 36.4999L40.9994 36.5L43.5001 36.4999L45.5 36.5L47 37L48.5 37.5L49.5 38L50.5 38.5L51.5002 38.9995L52.5002 39.4995L53.5002 39.9995" stroke="black" stroke-width="2"/>
<path d="M58.5118 37.9321L58.1498 36.9999L57.9282 37.086L57.769 37.2625L58.5118 37.9321ZM60.0202 37.3463L59.7923 36.3726L59.7238 36.3887L59.6582 36.4141L60.0202 37.3463ZM61.4999 36.9999L61.7278 37.9736L61.7351 37.9719L61.7424 37.9701L61.4999 36.9999ZM63.4999 36.4999L63.4999 35.4999L63.3768 35.4999L63.2573 35.5298L63.4999 36.4999ZM66.4997 36.5L66.4997 35.5L66.4997 35.5L66.4997 36.5ZM68.4995 36.5L68.4995 37.5L68.4996 37.5L68.4995 36.5ZM70.4994 36.5L70.8156 35.5513L70.6617 35.5L70.4994 35.5L70.4994 36.5ZM71.9994 37L71.6832 37.9487L71.8371 38L71.9994 38L71.9994 37ZM73.4999 28.5L72.4999 28.4999L72.4999 28.4999L73.4999 28.5ZM74.5 16.9998C74.5 16.4476 74.0523 15.9998 73.5 15.9998C72.9477 15.9998 72.5 16.4475 72.5 16.9998L74.5 16.9998ZM72.9998 36.9999L72.9999 37.9999L73.414 37.9999L73.7069 37.7071L72.9998 36.9999ZM73.4998 34.9999L72.4998 34.9999L72.4998 34.9999L73.4998 34.9999ZM73.4998 36.4999L74.2069 37.2071L74.4998 36.9142L74.4998 36.4999L73.4998 36.4999ZM57.9999 38.4999L58.7426 39.1695L59.2545 38.6017L58.5118 37.9321L57.769 37.2625L57.2571 37.8303L57.9999 38.4999ZM58.5118 37.9321L58.8738 38.8643L60.3822 38.2785L60.0202 37.3463L59.6582 36.4141L58.1498 36.9999L58.5118 37.9321ZM60.0202 37.3463L60.2481 38.32L61.7278 37.9736L61.4999 36.9999L61.2719 36.0262L59.7923 36.3726L60.0202 37.3463ZM61.4999 36.9999L61.7424 37.9701L63.7424 37.4701L63.4999 36.4999L63.2573 35.5298L61.2573 36.0298L61.4999 36.9999ZM63.4999 36.4999L63.4998 37.4999L66.4997 37.5L66.4997 36.5L66.4997 35.5L63.4999 35.4999L63.4999 36.4999ZM66.4997 36.5L66.4997 37.5L68.4995 37.5L68.4995 36.5L68.4996 35.5L66.4997 35.5L66.4997 36.5ZM68.4995 36.5L68.4996 37.5L70.4994 37.5L70.4994 36.5L70.4994 35.5L68.4995 35.5L68.4995 36.5ZM70.4994 36.5L70.1832 37.4487L71.6832 37.9487L71.9994 37L72.3156 36.0513L70.8156 35.5513L70.4994 36.5ZM73.4999 28.5L74.4999 28.5L74.5 16.9998L73.5 16.9998L72.5 16.9998L72.4999 28.4999L73.4999 28.5ZM71.9994 37L71.9994 38L72.9999 37.9999L72.9998 36.9999L72.9998 35.9999L71.9993 36L71.9994 37ZM73.4998 34.9999L74.4998 35L74.4999 28.5L73.4999 28.5L72.4999 28.4999L72.4998 34.9999L73.4998 34.9999ZM72.9998 36.9999L73.7069 37.7071L74.2069 37.2071L73.4998 36.4999L72.7927 35.7928L72.2927 36.2928L72.9998 36.9999ZM73.4998 36.4999L74.4998 36.4999L74.4998 34.9999L73.4998 34.9999L72.4998 34.9999L72.4998 36.4999L73.4998 36.4999Z" fill="black"/>
<path d="M51.5 39L53.5 40H55H56.5L58.5 38" stroke="black" stroke-width="2"/>
<path d="M37.5 15L38 14.5H39H43.5H47L48.5 15L50.5 16.5L52 17.5L53 19V34.5V36.5L52 36L51 35.5L49 34.5L47.5 34L46 33.5L37.5 33V15Z" fill="white"/>
<path d="M70.5 15L70 14.5H69H64.5H61L59.5 15L57.5 16.5L56 17.5L55 19V34.5V36.5L56 36L57 35.5L59 34.5L60.5 34L62 33.5L70.5 33V15Z" fill="white"/>
<path d="M53 36.5V19L52.5 18L51.5 17L50 16L48.5 15L47 14.5H45H38.5L38 14.5L37.5 15V15.5V33.5" stroke="white" stroke-width="0.5"/>
<path d="M37.5 32.5L37.5001 33.25H44.5H45.3167L46.5 33.5L49 34.5L52.5 36.5H53V35.5" stroke="white" stroke-width="0.5"/>
<path d="M55 36.5V19L55.5 18L56.5 17L58 16L59.5 15L61 14.5H63H69.5L70 14.5L70.5 15V15.5V33.5" stroke="white" stroke-width="0.5"/>
<path d="M70.5 32.5L70.4999 33.25H63.5H62.6833L61.5 33.5L59 34.5L55.5 36.5H55V35.5" stroke="white" stroke-width="0.5"/>
<path d="M33.6076 69.22C33.4976 68.89 33.4243 68.56 33.3876 68.23C33.3509 67.9 33.3326 67.57 33.3326 67.24L38.5576 65.425C38.7409 64.0317 38.8693 62.675 38.9426 61.355C39.0159 60.035 39.0526 58.6233 39.0526 57.12C39.0526 55.7633 39.0343 54.1867 38.9976 52.39C38.9976 50.5933 38.9243 49.035 38.7776 47.715L33.1126 49.805L32.5626 49.64L31.9026 47.99C32.7459 47.44 33.5709 46.89 34.3776 46.34C35.2209 45.7533 36.0459 45.1483 36.8526 44.525C37.6959 43.9017 38.5209 43.2783 39.3276 42.655C40.1343 41.995 40.9409 41.3167 41.7476 40.62L43.7276 41.775L43.2876 44.855V66.03L48.1276 67.13C48.1276 67.3867 48.1093 67.6983 48.0726 68.065C48.0726 68.395 48.0359 68.7067 47.9626 69C47.5959 69 46.9359 69 45.9826 69C45.0293 69 43.9293 69 42.6826 69C41.4726 69.0367 40.2443 69.055 38.9976 69.055C37.7876 69.0917 36.6876 69.11 35.6976 69.11C34.7443 69.1467 34.0476 69.1833 33.6076 69.22Z" fill="white"/>
<path d="M54.1659 50.728C56.1712 50.6427 57.1525 50.6 57.1099 50.6H57.3019V51.432L57.3339 52.264L57.4299 52.104C57.8352 51.5067 58.3792 51.08 59.0619 50.824C60.1072 50.44 61.2592 50.504 62.5179 51.016C62.7952 51.1013 63.0405 51.2187 63.2539 51.368C63.9792 51.8587 64.4059 52.4667 64.5339 53.192C64.6192 53.576 64.5979 53.9387 64.4699 54.28C64.2992 54.9413 63.9152 55.4213 63.3179 55.72C62.9552 55.8693 62.5925 55.944 62.2299 55.944C61.8245 55.944 61.4619 55.8693 61.1419 55.72C60.5232 55.4213 60.1179 54.9413 59.9259 54.28C59.9045 54.1733 59.8939 53.9493 59.8939 53.608C59.8939 53.2667 59.9152 53.0213 59.9579 52.872C60.0432 52.68 60.0645 52.584 60.0219 52.584C59.9579 52.52 59.7659 52.584 59.4459 52.776C59.1259 52.9253 58.8379 53.1813 58.5819 53.544C58.1765 54.184 57.8885 55.1227 57.7179 56.36C57.6965 56.5733 57.6752 57.704 57.6539 59.752V62.696H59.0299H60.4379V63.848V65H60.0859L57.6539 64.936C56.2459 64.9147 54.9125 64.9147 53.6539 64.936C52.2245 64.9787 51.4992 65 51.4779 65H51.1899V63.848V62.696H52.3099H53.3979V58.28C53.3979 55.336 53.3765 53.8107 53.3339 53.704C53.2699 53.4907 53.1312 53.352 52.9179 53.288C52.6192 53.2027 52.1819 53.16 51.6059 53.16H51.1899V52.008V50.856H51.2859L54.1659 50.728Z" fill="white"/>
<path d="M72.8711 51.94L75.3311 51.97C77.9511 52.27 79.6211 53.26 80.3411 54.94C80.4211 55.12 80.4811 55.3 80.5211 55.48L80.6111 55.81L80.6411 59.41C80.6411 61.75 80.6611 62.96 80.7011 63.04C80.8611 63.2 81.2911 63.3 81.9911 63.34C82.3111 63.34 82.5411 63.38 82.6811 63.46C82.8011 63.58 82.8611 63.9 82.8611 64.42C82.8611 64.94 82.7911 65.26 82.6511 65.38C82.4511 65.46 81.8111 65.5 80.7311 65.5C79.5311 65.48 78.7411 65.41 78.3611 65.29C77.7411 65.09 77.3411 64.78 77.1611 64.36C77.0811 64.2 77.0411 64.11 77.0411 64.09C77.0411 64.07 76.9511 64.12 76.7711 64.24C75.8911 64.94 74.7111 65.4 73.2311 65.62C72.4511 65.7 71.8411 65.71 71.4011 65.65C69.6011 65.45 68.3311 64.71 67.5911 63.43C67.4111 63.13 67.2811 62.82 67.2011 62.5C67.1411 62.28 67.1111 62 67.1111 61.66C67.1111 61.18 67.1911 60.77 67.3511 60.43C67.5911 59.95 67.9211 59.54 68.3411 59.2C69.0411 58.66 69.9311 58.24 71.0111 57.94C72.3311 57.54 73.9011 57.3 75.7211 57.22L76.4711 57.19V56.65L76.4411 55.87V55.84C76.3211 55 75.9111 54.41 75.2111 54.07C74.7711 53.85 74.2011 53.74 73.5011 53.74C72.6811 53.74 72.2511 53.76 72.2111 53.8L72.3011 53.98C72.4611 54.26 72.5311 54.62 72.5111 55.06C72.5111 55.38 72.4911 55.61 72.4511 55.75C72.3311 56.11 72.1511 56.41 71.9111 56.65C71.6511 56.91 71.3411 57.1 70.9811 57.22C70.8211 57.26 70.5911 57.28 70.2911 57.28C69.9911 57.28 69.7711 57.26 69.6311 57.22C69.2511 57.1 68.9311 56.91 68.6711 56.65C68.4311 56.41 68.2511 56.11 68.1311 55.75C68.0911 55.61 68.0711 55.38 68.0711 55.06C68.0711 54.74 68.0911 54.51 68.1311 54.37C68.4311 53.27 69.4011 52.54 71.0411 52.18C71.5811 52.06 72.1911 51.98 72.8711 51.94ZM76.4711 60.43C76.4711 59.39 76.4611 58.87 76.4411 58.87C76.4211 58.87 76.3711 58.88 76.2911 58.9C75.1111 58.98 74.0811 59.19 73.2011 59.53C72.2611 59.91 71.6711 60.44 71.4311 61.12C71.3311 61.4 71.3211 61.76 71.4011 62.2C71.6011 63 72.0611 63.52 72.7811 63.76C72.8211 63.78 72.8711 63.8 72.9311 63.82C73.6711 63.94 74.4511 63.79 75.2711 63.37C75.3311 63.35 75.3911 63.32 75.4511 63.28C75.8311 63.04 76.1011 62.77 76.2611 62.47C76.3811 62.23 76.4511 61.83 76.4711 61.27V60.43Z" fill="white"/>
<path d="M19.5333 74.484V73.98H23.8733H28.2273V74.036C28.2366 74.0733 28.3113 74.6753 28.4513 75.842C28.5726 76.9807 28.6426 77.5827 28.6613 77.648V77.704H28.1573H27.6533L27.6253 77.466C27.5413 76.8593 27.4293 76.3973 27.2893 76.08C27 75.492 26.4633 75.142 25.6793 75.03C25.4273 75.002 24.956 74.988 24.2653 74.988H23.3833V76.514V78.054H23.6353C24.0646 78.054 24.3773 78.0027 24.5733 77.9C24.732 77.8347 24.8486 77.732 24.9233 77.592C25.054 77.3773 25.1193 77.046 25.1193 76.598V76.416H25.6233H26.1273V78.558V80.7H25.6233H25.1193V80.518C25.1193 80.07 25.054 79.7387 24.9233 79.524C24.8486 79.384 24.732 79.2813 24.5733 79.216C24.3773 79.1133 24.0646 79.062 23.6353 79.062H23.3833V80.77V82.492H24.2933C24.956 82.492 25.3293 82.4873 25.4133 82.478C26.3653 82.4127 27.0373 82.1047 27.4293 81.554C27.476 81.498 27.5366 81.3907 27.6113 81.232C27.7793 80.9053 27.924 80.392 28.0453 79.692C28.064 79.5053 28.0826 79.3933 28.1013 79.356V79.314H28.6053H29.1093V79.356C29.1 79.3747 28.9926 80.056 28.7873 81.4C28.582 82.7533 28.4746 83.4393 28.4653 83.458V83.5H23.9993H19.5333V82.996V82.492H20.2893H21.0453V78.74V74.988H20.2893H19.5333V74.484ZM30.1153 74.4V73.896H33.2093C35.328 73.896 36.4293 73.9007 36.5133 73.91C37.288 73.966 37.9787 74.148 38.5853 74.456C39.78 75.0627 40.536 76.052 40.8533 77.424C40.872 77.5267 40.8907 77.6293 40.9093 77.732C41.068 78.6373 41.0307 79.4913 40.7973 80.294C40.4427 81.5073 39.724 82.3847 38.6413 82.926C38.128 83.1967 37.5073 83.3787 36.7793 83.472C36.6767 83.4813 35.5333 83.4907 33.3493 83.5H30.1153V82.996V82.492H30.8713H31.6273V78.698V74.904H30.8713H30.1153V74.4ZM35.8553 74.918C35.79 74.9087 35.4307 74.904 34.7773 74.904H33.8813V78.698V82.492H34.9033C35.6407 82.4827 36.042 82.4733 36.1073 82.464C36.9193 82.3613 37.5353 82.0767 37.9553 81.61C38.31 81.2087 38.5153 80.5927 38.5713 79.762C38.6087 79.0153 38.6087 78.32 38.5713 77.676C38.562 77.6293 38.5573 77.592 38.5573 77.564C38.464 76.5187 38.0953 75.7907 37.4513 75.38C37.3673 75.3333 37.2787 75.2867 37.1853 75.24C36.8307 75.072 36.3873 74.9647 35.8553 74.918ZM42.195 74.4V73.896H42.391L43.763 73.924C44.5657 73.9333 45.3637 73.9333 46.157 73.924L47.543 73.896H47.725V74.4V74.904H46.927H46.129V78.698V82.492H46.927H47.725V82.996V83.5H47.529L46.157 83.472C45.3637 83.4627 44.5657 83.4627 43.763 83.472L42.377 83.5H42.195V82.996V82.492H42.993H43.791V78.698V74.904H42.993H42.195V74.4ZM48.8807 74.134V74.05H53.5987H58.3307V74.134L58.4847 75.912C58.5687 77.0787 58.6154 77.6713 58.6247 77.69V77.774H58.1207C57.7847 77.774 57.6167 77.7693 57.6167 77.76C57.6167 77.5733 57.5934 77.3307 57.5467 77.032C57.4907 76.612 57.4114 76.2667 57.3087 75.996C57.1687 75.6693 56.9307 75.4267 56.5947 75.268C56.4547 75.1933 56.268 75.1373 56.0347 75.1C55.9507 75.0813 55.7127 75.0673 55.3207 75.058H54.7747V78.768V82.492H55.8527H56.9167V82.996V83.5H56.6927L55.0407 83.472C54.0794 83.4627 53.1227 83.4627 52.1707 83.472L50.5187 83.5H50.2947V82.996V82.492H51.3727H52.4367V78.768V75.058H51.8907C51.4987 75.0673 51.2607 75.0813 51.1767 75.1C50.738 75.184 50.402 75.3473 50.1687 75.59C50.0194 75.7393 49.898 75.9633 49.8047 76.262C49.73 76.5327 49.6694 76.948 49.6227 77.508C49.604 77.6667 49.5947 77.7507 49.5947 77.76C49.5947 77.7693 49.4267 77.774 49.0907 77.774H48.5867V77.69L48.7407 75.912C48.8247 74.7453 48.8714 74.1527 48.8807 74.134ZM59.49 74.4V73.896H59.686L61.058 73.924C61.8606 73.9333 62.6586 73.9333 63.452 73.924L64.838 73.896H65.02V74.4V74.904H64.222H63.424V78.698V82.492H64.222H65.02V82.996V83.5H64.824L63.452 83.472C62.6586 83.4627 61.8606 83.4627 61.058 83.472L59.672 83.5H59.49V82.996V82.492H60.288H61.086V78.698V74.904H60.288H59.49V74.4ZM70.8796 73.756C71.1876 73.7373 71.575 73.742 72.0416 73.77C73.311 73.91 74.333 74.3627 75.1076 75.128C75.8636 75.884 76.3163 76.878 76.4656 78.11C76.503 78.4833 76.503 78.8893 76.4656 79.328C76.4656 79.3467 76.4656 79.3653 76.4656 79.384C76.3256 80.5507 75.8963 81.5027 75.1776 82.24C74.8323 82.576 74.4403 82.856 74.0016 83.08C73.423 83.36 72.7696 83.542 72.0416 83.626C71.6496 83.6633 71.211 83.6633 70.7256 83.626C70.6976 83.626 70.6743 83.626 70.6556 83.626C69.3303 83.4673 68.2896 83.0053 67.5336 82.24C66.8056 81.512 66.3716 80.56 66.2316 79.384C66.1943 79.0293 66.1943 78.628 66.2316 78.18C66.2316 78.152 66.2316 78.1287 66.2316 78.11C66.3063 77.55 66.423 77.074 66.5816 76.682C67.0016 75.6087 67.7063 74.8293 68.6956 74.344C69.3303 74.0173 70.0583 73.8213 70.8796 73.756ZM71.6356 74.666C70.8516 74.582 70.1843 74.792 69.6336 75.296C69.503 75.4173 69.3863 75.5527 69.2836 75.702C69.0316 76.0847 68.859 76.5607 68.7656 77.13C68.6723 77.8113 68.6583 78.6233 68.7236 79.566C68.733 79.65 68.7423 79.7293 68.7516 79.804C68.8543 80.8773 69.1903 81.6567 69.7596 82.142C70.3756 82.6553 71.0756 82.828 71.8596 82.66C72.261 82.576 72.6203 82.4033 72.9376 82.142C73.507 81.6567 73.843 80.8773 73.9456 79.804C74.039 79.02 74.0436 78.1893 73.9596 77.312C73.9503 77.2467 73.941 77.186 73.9316 77.13C73.8663 76.7287 73.7543 76.3553 73.5956 76.01C73.2036 75.2167 72.5503 74.7687 71.6356 74.666ZM77.9532 74.4V73.896H79.8852H81.8312L81.8872 73.924C81.9152 73.9333 82.7412 74.9367 84.3652 76.934C86.0172 78.9687 86.8292 79.972 86.8012 79.944L86.8432 79.986V77.452V74.904H86.0872H85.3312V74.4V73.896H85.4712L86.4932 73.924C87.0906 73.9333 87.6879 73.9333 88.2852 73.924C88.9572 73.9053 89.2979 73.896 89.3072 73.896H89.4472V74.4V74.904H88.6912H87.9352V79.104C87.9352 81.8947 87.9259 83.3087 87.9072 83.346C87.8886 83.402 87.8512 83.444 87.7952 83.472C87.7579 83.4907 87.6226 83.5 87.3892 83.5C87.1559 83.5 87.0206 83.4907 86.9832 83.472C86.9646 83.4627 85.8959 82.1607 83.7772 79.566C81.6399 76.906 80.5806 75.5947 80.5992 75.632L80.5572 75.59V79.034V82.492H81.3132H82.0692V82.996V83.5H81.9292C81.9386 83.5 81.5979 83.4907 80.9072 83.472C80.3099 83.4627 79.7126 83.4627 79.1152 83.472C78.4246 83.4907 78.0839 83.5 78.0932 83.5H77.9532V82.996V82.492H78.7092H79.4652V78.698V74.904H78.7092H77.9532V74.4Z" fill="white"/>
</svg>
