<svg width="108" height="107" viewBox="0 0 108 107" fill="none" xmlns="http://www.w3.org/2000/svg">
<ellipse cx="54" cy="53.5" rx="54" ry="53.5" fill="#111111"/>
<path d="M54 2C82.7364 2 106 25.0748 106 53.5C106 81.9252 82.7364 105 54 105C25.2636 105 2 81.9252 2 53.5C2 25.0748 25.2636 2 54 2Z" stroke="black" stroke-width="4"/>
<path d="M54 6C80.5194 6 102 27.2761 102 53.5C102 79.7239 80.5194 101 54 101C27.4806 101 6 79.7239 6 53.5C6 27.2761 27.4806 6 54 6Z" stroke="white" stroke-width="2"/>
<path d="M35 17.5L35 37.5" stroke="white" stroke-width="2" stroke-linecap="round"/>
<path d="M34.9983 37.5002L35.5002 36.9995L36.9983 36.5002L38.497 36.4999L40.9994 36.5L43.5001 36.4999L45.5 36.5L47 37L48.5 37.5L49.5 38L50.5 38.5L51.5002 38.9995L52.5002 39.4995L53.5002 39.9995" stroke="white" stroke-width="2"/>
<path d="M58.5118 37.9321L58.1498 36.9999L57.9282 37.086L57.769 37.2625L58.5118 37.9321ZM60.0202 37.3463L59.7923 36.3726L59.7238 36.3887L59.6582 36.4141L60.0202 37.3463ZM61.4999 36.9999L61.7278 37.9736L61.7351 37.9719L61.7424 37.9701L61.4999 36.9999ZM63.4999 36.4999L63.4999 35.4999L63.3768 35.4999L63.2573 35.5298L63.4999 36.4999ZM66.4997 36.5L66.4997 35.5L66.4997 35.5L66.4997 36.5ZM68.4995 36.5L68.4995 37.5L68.4996 37.5L68.4995 36.5ZM70.4994 36.5L70.8156 35.5513L70.6617 35.5L70.4994 35.5L70.4994 36.5ZM71.9994 37L71.6832 37.9487L71.8371 38L71.9994 38L71.9994 37ZM73.4999 28.5L72.4999 28.4999L72.4999 28.4999L73.4999 28.5ZM74.5 16.9998C74.5 16.4476 74.0523 15.9998 73.5 15.9998C72.9477 15.9998 72.5 16.4475 72.5 16.9998L74.5 16.9998ZM72.9998 36.9999L72.9999 37.9999L73.414 37.9999L73.7069 37.7071L72.9998 36.9999ZM73.4998 34.9999L72.4998 34.9999L72.4998 34.9999L73.4998 34.9999ZM73.4998 36.4999L74.2069 37.2071L74.4998 36.9142L74.4998 36.4999L73.4998 36.4999ZM57.9999 38.4999L58.7426 39.1695L59.2545 38.6017L58.5118 37.9321L57.769 37.2625L57.2571 37.8303L57.9999 38.4999ZM58.5118 37.9321L58.8738 38.8643L60.3822 38.2785L60.0202 37.3463L59.6582 36.4141L58.1498 36.9999L58.5118 37.9321ZM60.0202 37.3463L60.2481 38.32L61.7278 37.9736L61.4999 36.9999L61.2719 36.0262L59.7923 36.3726L60.0202 37.3463ZM61.4999 36.9999L61.7424 37.9701L63.7424 37.4701L63.4999 36.4999L63.2573 35.5298L61.2573 36.0298L61.4999 36.9999ZM63.4999 36.4999L63.4998 37.4999L66.4997 37.5L66.4997 36.5L66.4997 35.5L63.4999 35.4999L63.4999 36.4999ZM66.4997 36.5L66.4997 37.5L68.4995 37.5L68.4995 36.5L68.4996 35.5L66.4997 35.5L66.4997 36.5ZM68.4995 36.5L68.4996 37.5L70.4994 37.5L70.4994 36.5L70.4994 35.5L68.4995 35.5L68.4995 36.5ZM70.4994 36.5L70.1832 37.4487L71.6832 37.9487L71.9994 37L72.3156 36.0513L70.8156 35.5513L70.4994 36.5ZM73.4999 28.5L74.4999 28.5L74.5 16.9998L73.5 16.9998L72.5 16.9998L72.4999 28.4999L73.4999 28.5ZM71.9994 37L71.9994 38L72.9999 37.9999L72.9998 36.9999L72.9998 35.9999L71.9993 36L71.9994 37ZM73.4998 34.9999L74.4998 35L74.4999 28.5L73.4999 28.5L72.4999 28.4999L72.4998 34.9999L73.4998 34.9999ZM72.9998 36.9999L73.7069 37.7071L74.2069 37.2071L73.4998 36.4999L72.7927 35.7928L72.2927 36.2928L72.9998 36.9999ZM73.4998 36.4999L74.4998 36.4999L74.4998 34.9999L73.4998 34.9999L72.4998 34.9999L72.4998 36.4999L73.4998 36.4999Z" fill="white"/>
<path d="M51.5 39L53.5 40H55H56.5L58.5 38" stroke="white" stroke-width="2"/>
<path d="M46.918 15L48.2646 15.4482L50.2002 16.9004L50.2109 16.9082L50.2227 16.916L51.6387 17.8604L52.5 19.1514V35.6904L52.2236 35.5527L49.2236 34.0527L49.1914 34.0371L49.1582 34.0254L46.1582 33.0254L46.0957 33.0049L46.0293 33.001L38 32.5283V15.207L38.207 15H46.918Z" fill="white" stroke="white"/>
<path d="M61.082 15L59.7354 15.4482L57.7998 16.9004L57.7891 16.9082L57.7773 16.916L56.3613 17.8604L55.5 19.1514V35.6904L55.7764 35.5527L58.7764 34.0527L58.8086 34.0371L58.8418 34.0254L61.8418 33.0254L61.9043 33.0049L61.9707 33.001L70 32.5283V15.207L69.793 15H61.082Z" fill="white" stroke="white"/>
<path d="M53 36.5V19L52.5 18L51.5 17L50 16L48.5 15L47 14.5H45H38.5L38 14.5L37.5 15V15.5V33.5" stroke="black" stroke-width="0.5"/>
<path d="M37.5 32.5L37.5001 33.25H44.5H45.3167L46.5 33.5L49 34.5L52.5 36.5H53V35.5" stroke="black" stroke-width="0.5"/>
<path d="M55 36.5V19L55.5 18L56.5 17L58 16L59.5 15L61 14.5H63H69.5L70 14.5L70.5 15V15.5V33.5" stroke="black" stroke-width="0.5"/>
<path d="M70.5 32.5L70.4999 33.25H63.5H62.6833L61.5 33.5L59 34.5L55.5 36.5H55V35.5" stroke="black" stroke-width="0.5"/>
<path d="M28.8672 71.9L28.5672 69.9C30.4339 69.5 32.3005 69.05 34.1672 68.55C36.0339 68.0833 37.6672 67.45 39.0672 66.65C39.6339 66.1167 40.1672 65.4833 40.6672 64.75C41.2005 63.9833 41.6172 63.2667 41.9172 62.6C42.2505 61.9333 42.4172 61.5 42.4172 61.3C42.4172 60.7333 42.2005 60 41.7672 59.1C41.3672 58.1667 40.8505 57.4333 40.2172 56.9C39.9505 56.6667 39.1339 56.4833 37.7672 56.35C36.4339 56.1833 34.8339 56.1 32.9672 56.1L32.4672 55.7L32.2672 54.25C32.9339 54.0833 33.5839 53.9333 34.2172 53.8C34.8839 53.6333 35.5339 53.4833 36.1672 53.35C36.9339 52.8167 37.6672 52.2333 38.3672 51.6C39.1005 50.9333 39.7005 50.2333 40.1672 49.5C40.6339 48.7667 40.8672 48.0333 40.8672 47.3C40.8672 46.4333 40.6172 45.6667 40.1172 45C39.6505 44.3333 39.1339 43.7333 38.5672 43.2C37.6339 43.2 36.6172 43.3667 35.5172 43.7C34.4172 44.0333 33.4005 44.4 32.4672 44.8C31.5672 45.2 30.8839 45.5167 30.4172 45.75H29.8172L28.9672 44.25C29.4339 43.9167 30.0339 43.5167 30.7672 43.05C31.5339 42.5833 32.3505 42.1333 33.2172 41.7C34.0839 41.2667 34.9172 40.9167 35.7172 40.65C36.5172 40.35 37.2005 40.2 37.7672 40.2C38.5339 40.2 39.3005 40.2667 40.0672 40.4C40.8339 40.5 41.5672 40.7 42.2672 41C43.0005 41.2667 43.6505 41.65 44.2172 42.15C44.3172 42.2167 44.4505 42.5333 44.6172 43.1C44.7839 43.6333 44.9339 44.3 45.0672 45.1C45.2005 45.8667 45.2672 46.6333 45.2672 47.4C45.2672 48.8 44.8672 49.9167 44.0672 50.75C43.2672 51.5833 42.1505 52.4333 40.7172 53.3V53.7C42.5839 54.2 44.1339 54.9667 45.3672 56C46.6005 57 47.2172 58.2333 47.2172 59.7C47.2172 61.7333 46.7005 63.5167 45.6672 65.05C44.6672 66.5833 43.3005 67.85 41.5672 68.85C39.8339 69.8833 37.8672 70.65 35.6672 71.15C33.5005 71.65 31.2339 71.9 28.8672 71.9Z" fill="white"/>
<path d="M55.1659 54.728C57.1712 54.6427 58.1525 54.6 58.1099 54.6H58.3019V55.432L58.3339 56.264L58.4299 56.104C58.8352 55.5067 59.3792 55.08 60.0619 54.824C61.1072 54.44 62.2592 54.504 63.5179 55.016C63.7952 55.1013 64.0405 55.2187 64.2539 55.368C64.9792 55.8587 65.4059 56.4667 65.5339 57.192C65.6192 57.576 65.5979 57.9387 65.4699 58.28C65.2992 58.9413 64.9152 59.4213 64.3179 59.72C63.9552 59.8693 63.5925 59.944 63.2299 59.944C62.8245 59.944 62.4619 59.8693 62.1419 59.72C61.5232 59.4213 61.1179 58.9413 60.9259 58.28C60.9045 58.1733 60.8939 57.9493 60.8939 57.608C60.8939 57.2667 60.9152 57.0213 60.9579 56.872C61.0432 56.68 61.0645 56.584 61.0219 56.584C60.9579 56.52 60.7659 56.584 60.4459 56.776C60.1259 56.9253 59.8379 57.1813 59.5819 57.544C59.1765 58.184 58.8885 59.1227 58.7179 60.36C58.6965 60.5733 58.6752 61.704 58.6539 63.752V66.696H60.0299H61.4379V67.848V69H61.0859L58.6539 68.936C57.2459 68.9147 55.9125 68.9147 54.6539 68.936C53.2245 68.9787 52.4992 69 52.4779 69H52.1899V67.848V66.696H53.3099H54.3979V62.28C54.3979 59.336 54.3765 57.8107 54.3339 57.704C54.2699 57.4907 54.1312 57.352 53.9179 57.288C53.6192 57.2027 53.1819 57.16 52.6059 57.16H52.1899V56.008V54.856H52.2859L55.1659 54.728Z" fill="white"/>
<path d="M73.8711 56.44L76.3311 56.47C78.9511 56.77 80.6211 57.76 81.3411 59.44C81.4211 59.62 81.4811 59.8 81.5211 59.98L81.6111 60.31L81.6411 63.91C81.6411 66.25 81.6611 67.46 81.7011 67.54C81.8611 67.7 82.2911 67.8 82.9911 67.84C83.3111 67.84 83.5411 67.88 83.6811 67.96C83.8011 68.08 83.8611 68.4 83.8611 68.92C83.8611 69.44 83.7911 69.76 83.6511 69.88C83.4511 69.96 82.8111 70 81.7311 70C80.5311 69.98 79.7411 69.91 79.3611 69.79C78.7411 69.59 78.3411 69.28 78.1611 68.86C78.0811 68.7 78.0411 68.61 78.0411 68.59C78.0411 68.57 77.9511 68.62 77.7711 68.74C76.8911 69.44 75.7111 69.9 74.2311 70.12C73.4511 70.2 72.8411 70.21 72.4011 70.15C70.6011 69.95 69.3311 69.21 68.5911 67.93C68.4111 67.63 68.2811 67.32 68.2011 67C68.1411 66.78 68.1111 66.5 68.1111 66.16C68.1111 65.68 68.1911 65.27 68.3511 64.93C68.5911 64.45 68.9211 64.04 69.3411 63.7C70.0411 63.16 70.9311 62.74 72.0111 62.44C73.3311 62.04 74.9011 61.8 76.7211 61.72L77.4711 61.69V61.15L77.4411 60.37V60.34C77.3211 59.5 76.9111 58.91 76.2111 58.57C75.7711 58.35 75.2011 58.24 74.5011 58.24C73.6811 58.24 73.2511 58.26 73.2111 58.3L73.3011 58.48C73.4611 58.76 73.5311 59.12 73.5111 59.56C73.5111 59.88 73.4911 60.11 73.4511 60.25C73.3311 60.61 73.1511 60.91 72.9111 61.15C72.6511 61.41 72.3411 61.6 71.9811 61.72C71.8211 61.76 71.5911 61.78 71.2911 61.78C70.9911 61.78 70.7711 61.76 70.6311 61.72C70.2511 61.6 69.9311 61.41 69.6711 61.15C69.4311 60.91 69.2511 60.61 69.1311 60.25C69.0911 60.11 69.0711 59.88 69.0711 59.56C69.0711 59.24 69.0911 59.01 69.1311 58.87C69.4311 57.77 70.4011 57.04 72.0411 56.68C72.5811 56.56 73.1911 56.48 73.8711 56.44ZM77.4711 64.93C77.4711 63.89 77.4611 63.37 77.4411 63.37C77.4211 63.37 77.3711 63.38 77.2911 63.4C76.1111 63.48 75.0811 63.69 74.2011 64.03C73.2611 64.41 72.6711 64.94 72.4311 65.62C72.3311 65.9 72.3211 66.26 72.4011 66.7C72.6011 67.5 73.0611 68.02 73.7811 68.26C73.8211 68.28 73.8711 68.3 73.9311 68.32C74.6711 68.44 75.4511 68.29 76.2711 67.87C76.3311 67.85 76.3911 67.82 76.4511 67.78C76.8311 67.54 77.1011 67.27 77.2611 66.97C77.3811 66.73 77.4511 66.33 77.4711 65.77V64.93Z" fill="white"/>
<path d="M19.5333 74.484V73.98H23.8733H28.2273V74.036C28.2366 74.0733 28.3113 74.6753 28.4513 75.842C28.5726 76.9807 28.6426 77.5827 28.6613 77.648V77.704H28.1573H27.6533L27.6253 77.466C27.5413 76.8593 27.4293 76.3973 27.2893 76.08C27 75.492 26.4633 75.142 25.6793 75.03C25.4273 75.002 24.956 74.988 24.2653 74.988H23.3833V76.514V78.054H23.6353C24.0646 78.054 24.3773 78.0027 24.5733 77.9C24.732 77.8347 24.8486 77.732 24.9233 77.592C25.054 77.3773 25.1193 77.046 25.1193 76.598V76.416H25.6233H26.1273V78.558V80.7H25.6233H25.1193V80.518C25.1193 80.07 25.054 79.7387 24.9233 79.524C24.8486 79.384 24.732 79.2813 24.5733 79.216C24.3773 79.1133 24.0646 79.062 23.6353 79.062H23.3833V80.77V82.492H24.2933C24.956 82.492 25.3293 82.4873 25.4133 82.478C26.3653 82.4127 27.0373 82.1047 27.4293 81.554C27.476 81.498 27.5366 81.3907 27.6113 81.232C27.7793 80.9053 27.924 80.392 28.0453 79.692C28.064 79.5053 28.0826 79.3933 28.1013 79.356V79.314H28.6053H29.1093V79.356C29.1 79.3747 28.9926 80.056 28.7873 81.4C28.582 82.7533 28.4746 83.4393 28.4653 83.458V83.5H23.9993H19.5333V82.996V82.492H20.2893H21.0453V78.74V74.988H20.2893H19.5333V74.484ZM30.1153 74.4V73.896H33.2093C35.328 73.896 36.4293 73.9007 36.5133 73.91C37.288 73.966 37.9787 74.148 38.5853 74.456C39.78 75.0627 40.536 76.052 40.8533 77.424C40.872 77.5267 40.8907 77.6293 40.9093 77.732C41.068 78.6373 41.0307 79.4913 40.7973 80.294C40.4427 81.5073 39.724 82.3847 38.6413 82.926C38.128 83.1967 37.5073 83.3787 36.7793 83.472C36.6767 83.4813 35.5333 83.4907 33.3493 83.5H30.1153V82.996V82.492H30.8713H31.6273V78.698V74.904H30.8713H30.1153V74.4ZM35.8553 74.918C35.79 74.9087 35.4307 74.904 34.7773 74.904H33.8813V78.698V82.492H34.9033C35.6407 82.4827 36.042 82.4733 36.1073 82.464C36.9193 82.3613 37.5353 82.0767 37.9553 81.61C38.31 81.2087 38.5153 80.5927 38.5713 79.762C38.6087 79.0153 38.6087 78.32 38.5713 77.676C38.562 77.6293 38.5573 77.592 38.5573 77.564C38.464 76.5187 38.0953 75.7907 37.4513 75.38C37.3673 75.3333 37.2787 75.2867 37.1853 75.24C36.8307 75.072 36.3873 74.9647 35.8553 74.918ZM42.195 74.4V73.896H42.391L43.763 73.924C44.5657 73.9333 45.3637 73.9333 46.157 73.924L47.543 73.896H47.725V74.4V74.904H46.927H46.129V78.698V82.492H46.927H47.725V82.996V83.5H47.529L46.157 83.472C45.3637 83.4627 44.5657 83.4627 43.763 83.472L42.377 83.5H42.195V82.996V82.492H42.993H43.791V78.698V74.904H42.993H42.195V74.4ZM48.8807 74.134V74.05H53.5987H58.3307V74.134L58.4847 75.912C58.5687 77.0787 58.6154 77.6713 58.6247 77.69V77.774H58.1207C57.7847 77.774 57.6167 77.7693 57.6167 77.76C57.6167 77.5733 57.5934 77.3307 57.5467 77.032C57.4907 76.612 57.4114 76.2667 57.3087 75.996C57.1687 75.6693 56.9307 75.4267 56.5947 75.268C56.4547 75.1933 56.268 75.1373 56.0347 75.1C55.9507 75.0813 55.7127 75.0673 55.3207 75.058H54.7747V78.768V82.492H55.8527H56.9167V82.996V83.5H56.6927L55.0407 83.472C54.0794 83.4627 53.1227 83.4627 52.1707 83.472L50.5187 83.5H50.2947V82.996V82.492H51.3727H52.4367V78.768V75.058H51.8907C51.4987 75.0673 51.2607 75.0813 51.1767 75.1C50.738 75.184 50.402 75.3473 50.1687 75.59C50.0194 75.7393 49.898 75.9633 49.8047 76.262C49.73 76.5327 49.6694 76.948 49.6227 77.508C49.604 77.6667 49.5947 77.7507 49.5947 77.76C49.5947 77.7693 49.4267 77.774 49.0907 77.774H48.5867V77.69L48.7407 75.912C48.8247 74.7453 48.8714 74.1527 48.8807 74.134ZM59.49 74.4V73.896H59.686L61.058 73.924C61.8606 73.9333 62.6586 73.9333 63.452 73.924L64.838 73.896H65.02V74.4V74.904H64.222H63.424V78.698V82.492H64.222H65.02V82.996V83.5H64.824L63.452 83.472C62.6586 83.4627 61.8606 83.4627 61.058 83.472L59.672 83.5H59.49V82.996V82.492H60.288H61.086V78.698V74.904H60.288H59.49V74.4ZM70.8796 73.756C71.1876 73.7373 71.575 73.742 72.0416 73.77C73.311 73.91 74.333 74.3627 75.1076 75.128C75.8636 75.884 76.3163 76.878 76.4656 78.11C76.503 78.4833 76.503 78.8893 76.4656 79.328C76.4656 79.3467 76.4656 79.3653 76.4656 79.384C76.3256 80.5507 75.8963 81.5027 75.1776 82.24C74.8323 82.576 74.4403 82.856 74.0016 83.08C73.423 83.36 72.7696 83.542 72.0416 83.626C71.6496 83.6633 71.211 83.6633 70.7256 83.626C70.6976 83.626 70.6743 83.626 70.6556 83.626C69.3303 83.4673 68.2896 83.0053 67.5336 82.24C66.8056 81.512 66.3716 80.56 66.2316 79.384C66.1943 79.0293 66.1943 78.628 66.2316 78.18C66.2316 78.152 66.2316 78.1287 66.2316 78.11C66.3063 77.55 66.423 77.074 66.5816 76.682C67.0016 75.6087 67.7063 74.8293 68.6956 74.344C69.3303 74.0173 70.0583 73.8213 70.8796 73.756ZM71.6356 74.666C70.8516 74.582 70.1843 74.792 69.6336 75.296C69.503 75.4173 69.3863 75.5527 69.2836 75.702C69.0316 76.0847 68.859 76.5607 68.7656 77.13C68.6723 77.8113 68.6583 78.6233 68.7236 79.566C68.733 79.65 68.7423 79.7293 68.7516 79.804C68.8543 80.8773 69.1903 81.6567 69.7596 82.142C70.3756 82.6553 71.0756 82.828 71.8596 82.66C72.261 82.576 72.6203 82.4033 72.9376 82.142C73.507 81.6567 73.843 80.8773 73.9456 79.804C74.039 79.02 74.0436 78.1893 73.9596 77.312C73.9503 77.2467 73.941 77.186 73.9316 77.13C73.8663 76.7287 73.7543 76.3553 73.5956 76.01C73.2036 75.2167 72.5503 74.7687 71.6356 74.666ZM77.9532 74.4V73.896H79.8852H81.8312L81.8872 73.924C81.9152 73.9333 82.7412 74.9367 84.3652 76.934C86.0172 78.9687 86.8292 79.972 86.8012 79.944L86.8432 79.986V77.452V74.904H86.0872H85.3312V74.4V73.896H85.4712L86.4932 73.924C87.0906 73.9333 87.6879 73.9333 88.2852 73.924C88.9572 73.9053 89.2979 73.896 89.3072 73.896H89.4472V74.4V74.904H88.6912H87.9352V79.104C87.9352 81.8947 87.9259 83.3087 87.9072 83.346C87.8886 83.402 87.8512 83.444 87.7952 83.472C87.7579 83.4907 87.6226 83.5 87.3892 83.5C87.1559 83.5 87.0206 83.4907 86.9832 83.472C86.9646 83.4627 85.8959 82.1607 83.7772 79.566C81.6399 76.906 80.5806 75.5947 80.5992 75.632L80.5572 75.59V79.034V82.492H81.3132H82.0692V82.996V83.5H81.9292C81.9386 83.5 81.5979 83.4907 80.9072 83.472C80.3099 83.4627 79.7126 83.4627 79.1152 83.472C78.4246 83.4907 78.0839 83.5 78.0932 83.5H77.9532V82.996V82.492H78.7092H79.4652V78.698V74.904H78.7092H77.9532V74.4Z" fill="white"/>
</svg>
