<svg width="108" height="107" viewBox="0 0 108 107" fill="none" xmlns="http://www.w3.org/2000/svg">
<ellipse cx="54" cy="53.5" rx="54" ry="53.5" fill="#111111"/>
<path d="M54 2C82.7364 2 106 25.0748 106 53.5C106 81.9252 82.7364 105 54 105C25.2636 105 2 81.9252 2 53.5C2 25.0748 25.2636 2 54 2Z" stroke="black" stroke-width="4"/>
<path d="M54 6C80.5194 6 102 27.2761 102 53.5C102 79.7239 80.5194 101 54 101C27.4806 101 6 79.7239 6 53.5C6 27.2761 27.4806 6 54 6Z" stroke="white" stroke-width="2"/>
<path d="M35 17.5L35 37.5" stroke="white" stroke-width="2" stroke-linecap="round"/>
<path d="M34.9983 37.5002L35.5002 36.9995L36.9983 36.5002L38.497 36.4999L40.9994 36.5L43.5001 36.4999L45.5 36.5L47 37L48.5 37.5L49.5 38L50.5 38.5L51.5002 38.9995L52.5002 39.4995L53.5002 39.9995" stroke="white" stroke-width="2"/>
<path d="M58.5118 37.9321L58.1498 36.9999L57.9282 37.086L57.769 37.2625L58.5118 37.9321ZM60.0202 37.3463L59.7923 36.3726L59.7238 36.3887L59.6582 36.4141L60.0202 37.3463ZM61.4999 36.9999L61.7278 37.9736L61.7351 37.9719L61.7424 37.9701L61.4999 36.9999ZM63.4999 36.4999L63.4999 35.4999L63.3768 35.4999L63.2573 35.5298L63.4999 36.4999ZM66.4997 36.5L66.4997 35.5L66.4997 35.5L66.4997 36.5ZM68.4995 36.5L68.4995 37.5L68.4996 37.5L68.4995 36.5ZM70.4994 36.5L70.8156 35.5513L70.6617 35.5L70.4994 35.5L70.4994 36.5ZM71.9994 37L71.6832 37.9487L71.8371 38L71.9994 38L71.9994 37ZM73.4999 28.5L72.4999 28.4999L72.4999 28.4999L73.4999 28.5ZM74.5 16.9998C74.5 16.4476 74.0523 15.9998 73.5 15.9998C72.9477 15.9998 72.5 16.4475 72.5 16.9998L74.5 16.9998ZM72.9998 36.9999L72.9999 37.9999L73.414 37.9999L73.7069 37.7071L72.9998 36.9999ZM73.4998 34.9999L72.4998 34.9999L72.4998 34.9999L73.4998 34.9999ZM73.4998 36.4999L74.2069 37.2071L74.4998 36.9142L74.4998 36.4999L73.4998 36.4999ZM57.9999 38.4999L58.7426 39.1695L59.2545 38.6017L58.5118 37.9321L57.769 37.2625L57.2571 37.8303L57.9999 38.4999ZM58.5118 37.9321L58.8738 38.8643L60.3822 38.2785L60.0202 37.3463L59.6582 36.4141L58.1498 36.9999L58.5118 37.9321ZM60.0202 37.3463L60.2481 38.32L61.7278 37.9736L61.4999 36.9999L61.2719 36.0262L59.7923 36.3726L60.0202 37.3463ZM61.4999 36.9999L61.7424 37.9701L63.7424 37.4701L63.4999 36.4999L63.2573 35.5298L61.2573 36.0298L61.4999 36.9999ZM63.4999 36.4999L63.4998 37.4999L66.4997 37.5L66.4997 36.5L66.4997 35.5L63.4999 35.4999L63.4999 36.4999ZM66.4997 36.5L66.4997 37.5L68.4995 37.5L68.4995 36.5L68.4996 35.5L66.4997 35.5L66.4997 36.5ZM68.4995 36.5L68.4996 37.5L70.4994 37.5L70.4994 36.5L70.4994 35.5L68.4995 35.5L68.4995 36.5ZM70.4994 36.5L70.1832 37.4487L71.6832 37.9487L71.9994 37L72.3156 36.0513L70.8156 35.5513L70.4994 36.5ZM73.4999 28.5L74.4999 28.5L74.5 16.9998L73.5 16.9998L72.5 16.9998L72.4999 28.4999L73.4999 28.5ZM71.9994 37L71.9994 38L72.9999 37.9999L72.9998 36.9999L72.9998 35.9999L71.9993 36L71.9994 37ZM73.4998 34.9999L74.4998 35L74.4999 28.5L73.4999 28.5L72.4999 28.4999L72.4998 34.9999L73.4998 34.9999ZM72.9998 36.9999L73.7069 37.7071L74.2069 37.2071L73.4998 36.4999L72.7927 35.7928L72.2927 36.2928L72.9998 36.9999ZM73.4998 36.4999L74.4998 36.4999L74.4998 34.9999L73.4998 34.9999L72.4998 34.9999L72.4998 36.4999L73.4998 36.4999Z" fill="white"/>
<path d="M51.5 39L53.5 40H55H56.5L58.5 38" stroke="white" stroke-width="2"/>
<path d="M46.918 15L48.2646 15.4482L50.2002 16.9004L50.2109 16.9082L50.2227 16.916L51.6387 17.8604L52.5 19.1514V35.6904L52.2236 35.5527L49.2236 34.0527L49.1914 34.0371L49.1582 34.0254L46.1582 33.0254L46.0957 33.0049L46.0293 33.001L38 32.5283V15.207L38.207 15H46.918Z" fill="white" stroke="white"/>
<path d="M61.082 15L59.7354 15.4482L57.7998 16.9004L57.7891 16.9082L57.7773 16.916L56.3613 17.8604L55.5 19.1514V35.6904L55.7764 35.5527L58.7764 34.0527L58.8086 34.0371L58.8418 34.0254L61.8418 33.0254L61.9043 33.0049L61.9707 33.001L70 32.5283V15.207L69.793 15H61.082Z" fill="white" stroke="white"/>
<path d="M53 36.5V19L52.5 18L51.5 17L50 16L48.5 15L47 14.5H45H38.5L38 14.5L37.5 15V15.5V33.5" stroke="white" stroke-width="0.5"/>
<path d="M37.5 32.5L37.5001 33.25H44.5H45.3167L46.5 33.5L49 34.5L52.5 36.5H53V35.5" stroke="white" stroke-width="0.5"/>
<path d="M55 36.5V19L55.5 18L56.5 17L58 16L59.5 15L61 14.5H63H69.5L70 14.5L70.5 15V15.5V33.5" stroke="white" stroke-width="0.5"/>
<path d="M70.5 32.5L70.4999 33.25H63.5H62.6833L61.5 33.5L59 34.5L55.5 36.5H55V35.5" stroke="white" stroke-width="0.5"/>
<path d="M33.3059 70.54C31.8959 70.54 30.6809 70.255 29.6609 69.685C28.6409 69.115 27.8009 68.425 27.1409 67.615C26.4809 66.775 25.9859 65.965 25.6559 65.185C25.3559 64.375 25.2059 63.745 25.2059 63.295C25.2059 62.665 25.5509 61.93 26.2409 61.09C26.9309 60.25 27.7709 59.41 28.7609 58.57C29.7509 57.73 30.6959 56.995 31.5959 56.365C30.6359 55.795 29.7659 55.18 28.9859 54.52C28.2059 53.83 27.5909 53.065 27.1409 52.225C26.6909 51.355 26.4659 50.35 26.4659 49.21C26.4659 48.1 26.7809 47.125 27.4109 46.285C28.0409 45.445 28.8359 44.74 29.7959 44.17C30.7859 43.57 31.8059 43.105 32.8559 42.775C33.9059 42.445 34.8509 42.22 35.6909 42.1C36.9509 42.1 38.1509 42.31 39.2909 42.73C40.4309 43.15 41.3609 43.96 42.0809 45.16C42.8009 46.36 43.1609 48.13 43.1609 50.47C43.0709 50.77 42.7559 51.205 42.2159 51.775C41.6759 52.315 41.0159 52.9 40.2359 53.53C39.4559 54.16 38.6759 54.76 37.8959 55.33C38.8859 55.9 39.8309 56.5 40.7309 57.13C41.6309 57.73 42.3659 58.405 42.9359 59.155C43.5059 59.875 43.7909 60.715 43.7909 61.675C43.6409 62.695 43.1609 63.85 42.3509 65.14C41.5409 66.4 40.3859 67.54 38.8859 68.56C37.3859 69.58 35.5259 70.24 33.3059 70.54ZM34.4759 67.615C35.1059 67.615 35.7509 67.54 36.4109 67.39C37.1009 67.24 37.7309 67.03 38.3009 66.76C38.4509 66.58 38.6309 66.22 38.8409 65.68C39.0809 65.11 39.2759 64.48 39.4259 63.79C39.6059 63.07 39.6959 62.395 39.6959 61.765C39.0359 61.135 38.3459 60.565 37.6259 60.055C36.9359 59.545 36.2309 59.08 35.5109 58.66C34.7909 58.21 34.0859 57.805 33.3959 57.445C32.9759 57.835 32.5409 58.255 32.0909 58.705C31.6409 59.125 31.2209 59.59 30.8309 60.1C30.4409 60.61 30.1259 61.135 29.8859 61.675C29.6459 62.215 29.5259 62.77 29.5259 63.34C29.5259 64.09 29.6609 64.735 29.9309 65.275C30.2009 65.815 30.5609 66.265 31.0109 66.625C31.4909 66.955 32.0159 67.21 32.5859 67.39C33.1859 67.54 33.8159 67.615 34.4759 67.615ZM36.0509 54.295C36.5309 53.905 36.9659 53.515 37.3559 53.125C37.7459 52.705 38.0759 52.285 38.3459 51.865C38.6459 51.445 38.8709 51.025 39.0209 50.605C39.2009 50.185 39.2909 49.75 39.2909 49.3C39.2909 48.43 39.0059 47.59 38.4359 46.78C37.8959 45.97 37.2959 45.265 36.6359 44.665C36.0359 44.665 35.4359 44.695 34.8359 44.755C34.2659 44.785 33.7109 44.83 33.1709 44.89C32.6609 44.95 32.1959 45.04 31.7759 45.16C31.6259 45.31 31.4309 45.67 31.1909 46.24C30.9809 46.78 30.7859 47.41 30.6059 48.13C30.4559 48.82 30.3809 49.48 30.3809 50.11C30.8609 50.65 31.4159 51.175 32.0459 51.685C32.6759 52.165 33.3359 52.63 34.0259 53.08C34.7459 53.53 35.4209 53.935 36.0509 54.295Z" fill="white"/>
<path d="M47.1387 56.76V55.68H47.4087L49.2687 55.74C50.3287 55.76 51.4687 55.76 52.6887 55.74L54.7887 55.68H55.0587V56.76V57.84H54.3987H53.7387L55.0887 60.9C55.9887 63 56.4387 64.04 56.4387 64.02C56.4587 64.06 56.4987 64.02 56.5587 63.9C56.6387 63.74 57.0687 62.77 57.8487 60.99L59.2287 57.84H58.5687H57.9087V56.76V55.68H58.1187L59.7387 55.74C60.6587 55.76 61.5087 55.76 62.2887 55.74L63.6387 55.68H63.8187V56.76V57.84H62.7087H61.5987L59.2287 63.24C57.8487 66.44 57.0387 68.27 56.7987 68.73C56.6987 68.89 56.5387 69.01 56.3187 69.09C56.1187 69.15 55.6387 69.16 54.8787 69.12C54.7587 69.12 54.6787 69.11 54.6387 69.09C54.4187 69.01 54.2587 68.89 54.1587 68.73C53.9187 68.27 53.1087 66.44 51.7287 63.24L49.3887 57.84H48.2487H47.1387V56.76Z" fill="white"/>
<path d="M70.8711 55.44L73.3311 55.47C75.9511 55.77 77.6211 56.76 78.3411 58.44C78.4211 58.62 78.4811 58.8 78.5211 58.98L78.6111 59.31L78.6411 62.91C78.6411 65.25 78.6611 66.46 78.7011 66.54C78.8611 66.7 79.2911 66.8 79.9911 66.84C80.3111 66.84 80.5411 66.88 80.6811 66.96C80.8011 67.08 80.8611 67.4 80.8611 67.92C80.8611 68.44 80.7911 68.76 80.6511 68.88C80.4511 68.96 79.8111 69 78.7311 69C77.5311 68.98 76.7411 68.91 76.3611 68.79C75.7411 68.59 75.3411 68.28 75.1611 67.86C75.0811 67.7 75.0411 67.61 75.0411 67.59C75.0411 67.57 74.9511 67.62 74.7711 67.74C73.8911 68.44 72.7111 68.9 71.2311 69.12C70.4511 69.2 69.8411 69.21 69.4011 69.15C67.6011 68.95 66.3311 68.21 65.5911 66.93C65.4111 66.63 65.2811 66.32 65.2011 66C65.1411 65.78 65.1111 65.5 65.1111 65.16C65.1111 64.68 65.1911 64.27 65.3511 63.93C65.5911 63.45 65.9211 63.04 66.3411 62.7C67.0411 62.16 67.9311 61.74 69.0111 61.44C70.3311 61.04 71.9011 60.8 73.7211 60.72L74.4711 60.69V60.15L74.4411 59.37V59.34C74.3211 58.5 73.9111 57.91 73.2111 57.57C72.7711 57.35 72.2011 57.24 71.5011 57.24C70.6811 57.24 70.2511 57.26 70.2111 57.3L70.3011 57.48C70.4611 57.76 70.5311 58.12 70.5111 58.56C70.5111 58.88 70.4911 59.11 70.4511 59.25C70.3311 59.61 70.1511 59.91 69.9111 60.15C69.6511 60.41 69.3411 60.6 68.9811 60.72C68.8211 60.76 68.5911 60.78 68.2911 60.78C67.9911 60.78 67.7711 60.76 67.6311 60.72C67.2511 60.6 66.9311 60.41 66.6711 60.15C66.4311 59.91 66.2511 59.61 66.1311 59.25C66.0911 59.11 66.0711 58.88 66.0711 58.56C66.0711 58.24 66.0911 58.01 66.1311 57.87C66.4311 56.77 67.4011 56.04 69.0411 55.68C69.5811 55.56 70.1911 55.48 70.8711 55.44ZM74.4711 63.93C74.4711 62.89 74.4611 62.37 74.4411 62.37C74.4211 62.37 74.3711 62.38 74.2911 62.4C73.1111 62.48 72.0811 62.69 71.2011 63.03C70.2611 63.41 69.6711 63.94 69.4311 64.62C69.3311 64.9 69.3211 65.26 69.4011 65.7C69.6011 66.5 70.0611 67.02 70.7811 67.26C70.8211 67.28 70.8711 67.3 70.9311 67.32C71.6711 67.44 72.4511 67.29 73.2711 66.87C73.3311 66.85 73.3911 66.82 73.4511 66.78C73.8311 66.54 74.1011 66.27 74.2611 65.97C74.3811 65.73 74.4511 65.33 74.4711 64.77V63.93Z" fill="white"/>
<path d="M19.5333 74.484V73.98H23.8733H28.2273V74.036C28.2366 74.0733 28.3113 74.6753 28.4513 75.842C28.5726 76.9807 28.6426 77.5827 28.6613 77.648V77.704H28.1573H27.6533L27.6253 77.466C27.5413 76.8593 27.4293 76.3973 27.2893 76.08C27 75.492 26.4633 75.142 25.6793 75.03C25.4273 75.002 24.956 74.988 24.2653 74.988H23.3833V76.514V78.054H23.6353C24.0646 78.054 24.3773 78.0027 24.5733 77.9C24.732 77.8347 24.8486 77.732 24.9233 77.592C25.054 77.3773 25.1193 77.046 25.1193 76.598V76.416H25.6233H26.1273V78.558V80.7H25.6233H25.1193V80.518C25.1193 80.07 25.054 79.7387 24.9233 79.524C24.8486 79.384 24.732 79.2813 24.5733 79.216C24.3773 79.1133 24.0646 79.062 23.6353 79.062H23.3833V80.77V82.492H24.2933C24.956 82.492 25.3293 82.4873 25.4133 82.478C26.3653 82.4127 27.0373 82.1047 27.4293 81.554C27.476 81.498 27.5366 81.3907 27.6113 81.232C27.7793 80.9053 27.924 80.392 28.0453 79.692C28.064 79.5053 28.0826 79.3933 28.1013 79.356V79.314H28.6053H29.1093V79.356C29.1 79.3747 28.9926 80.056 28.7873 81.4C28.582 82.7533 28.4746 83.4393 28.4653 83.458V83.5H23.9993H19.5333V82.996V82.492H20.2893H21.0453V78.74V74.988H20.2893H19.5333V74.484ZM30.1153 74.4V73.896H33.2093C35.328 73.896 36.4293 73.9007 36.5133 73.91C37.288 73.966 37.9787 74.148 38.5853 74.456C39.78 75.0627 40.536 76.052 40.8533 77.424C40.872 77.5267 40.8907 77.6293 40.9093 77.732C41.068 78.6373 41.0307 79.4913 40.7973 80.294C40.4427 81.5073 39.724 82.3847 38.6413 82.926C38.128 83.1967 37.5073 83.3787 36.7793 83.472C36.6767 83.4813 35.5333 83.4907 33.3493 83.5H30.1153V82.996V82.492H30.8713H31.6273V78.698V74.904H30.8713H30.1153V74.4ZM35.8553 74.918C35.79 74.9087 35.4307 74.904 34.7773 74.904H33.8813V78.698V82.492H34.9033C35.6407 82.4827 36.042 82.4733 36.1073 82.464C36.9193 82.3613 37.5353 82.0767 37.9553 81.61C38.31 81.2087 38.5153 80.5927 38.5713 79.762C38.6087 79.0153 38.6087 78.32 38.5713 77.676C38.562 77.6293 38.5573 77.592 38.5573 77.564C38.464 76.5187 38.0953 75.7907 37.4513 75.38C37.3673 75.3333 37.2787 75.2867 37.1853 75.24C36.8307 75.072 36.3873 74.9647 35.8553 74.918ZM42.195 74.4V73.896H42.391L43.763 73.924C44.5657 73.9333 45.3637 73.9333 46.157 73.924L47.543 73.896H47.725V74.4V74.904H46.927H46.129V78.698V82.492H46.927H47.725V82.996V83.5H47.529L46.157 83.472C45.3637 83.4627 44.5657 83.4627 43.763 83.472L42.377 83.5H42.195V82.996V82.492H42.993H43.791V78.698V74.904H42.993H42.195V74.4ZM48.8807 74.134V74.05H53.5987H58.3307V74.134L58.4847 75.912C58.5687 77.0787 58.6154 77.6713 58.6247 77.69V77.774H58.1207C57.7847 77.774 57.6167 77.7693 57.6167 77.76C57.6167 77.5733 57.5934 77.3307 57.5467 77.032C57.4907 76.612 57.4114 76.2667 57.3087 75.996C57.1687 75.6693 56.9307 75.4267 56.5947 75.268C56.4547 75.1933 56.268 75.1373 56.0347 75.1C55.9507 75.0813 55.7127 75.0673 55.3207 75.058H54.7747V78.768V82.492H55.8527H56.9167V82.996V83.5H56.6927L55.0407 83.472C54.0794 83.4627 53.1227 83.4627 52.1707 83.472L50.5187 83.5H50.2947V82.996V82.492H51.3727H52.4367V78.768V75.058H51.8907C51.4987 75.0673 51.2607 75.0813 51.1767 75.1C50.738 75.184 50.402 75.3473 50.1687 75.59C50.0194 75.7393 49.898 75.9633 49.8047 76.262C49.73 76.5327 49.6694 76.948 49.6227 77.508C49.604 77.6667 49.5947 77.7507 49.5947 77.76C49.5947 77.7693 49.4267 77.774 49.0907 77.774H48.5867V77.69L48.7407 75.912C48.8247 74.7453 48.8714 74.1527 48.8807 74.134ZM59.49 74.4V73.896H59.686L61.058 73.924C61.8606 73.9333 62.6586 73.9333 63.452 73.924L64.838 73.896H65.02V74.4V74.904H64.222H63.424V78.698V82.492H64.222H65.02V82.996V83.5H64.824L63.452 83.472C62.6586 83.4627 61.8606 83.4627 61.058 83.472L59.672 83.5H59.49V82.996V82.492H60.288H61.086V78.698V74.904H60.288H59.49V74.4ZM70.8796 73.756C71.1876 73.7373 71.575 73.742 72.0416 73.77C73.311 73.91 74.333 74.3627 75.1076 75.128C75.8636 75.884 76.3163 76.878 76.4656 78.11C76.503 78.4833 76.503 78.8893 76.4656 79.328C76.4656 79.3467 76.4656 79.3653 76.4656 79.384C76.3256 80.5507 75.8963 81.5027 75.1776 82.24C74.8323 82.576 74.4403 82.856 74.0016 83.08C73.423 83.36 72.7696 83.542 72.0416 83.626C71.6496 83.6633 71.211 83.6633 70.7256 83.626C70.6976 83.626 70.6743 83.626 70.6556 83.626C69.3303 83.4673 68.2896 83.0053 67.5336 82.24C66.8056 81.512 66.3716 80.56 66.2316 79.384C66.1943 79.0293 66.1943 78.628 66.2316 78.18C66.2316 78.152 66.2316 78.1287 66.2316 78.11C66.3063 77.55 66.423 77.074 66.5816 76.682C67.0016 75.6087 67.7063 74.8293 68.6956 74.344C69.3303 74.0173 70.0583 73.8213 70.8796 73.756ZM71.6356 74.666C70.8516 74.582 70.1843 74.792 69.6336 75.296C69.503 75.4173 69.3863 75.5527 69.2836 75.702C69.0316 76.0847 68.859 76.5607 68.7656 77.13C68.6723 77.8113 68.6583 78.6233 68.7236 79.566C68.733 79.65 68.7423 79.7293 68.7516 79.804C68.8543 80.8773 69.1903 81.6567 69.7596 82.142C70.3756 82.6553 71.0756 82.828 71.8596 82.66C72.261 82.576 72.6203 82.4033 72.9376 82.142C73.507 81.6567 73.843 80.8773 73.9456 79.804C74.039 79.02 74.0436 78.1893 73.9596 77.312C73.9503 77.2467 73.941 77.186 73.9316 77.13C73.8663 76.7287 73.7543 76.3553 73.5956 76.01C73.2036 75.2167 72.5503 74.7687 71.6356 74.666ZM77.9532 74.4V73.896H79.8852H81.8312L81.8872 73.924C81.9152 73.9333 82.7412 74.9367 84.3652 76.934C86.0172 78.9687 86.8292 79.972 86.8012 79.944L86.8432 79.986V77.452V74.904H86.0872H85.3312V74.4V73.896H85.4712L86.4932 73.924C87.0906 73.9333 87.6879 73.9333 88.2852 73.924C88.9572 73.9053 89.2979 73.896 89.3072 73.896H89.4472V74.4V74.904H88.6912H87.9352V79.104C87.9352 81.8947 87.9259 83.3087 87.9072 83.346C87.8886 83.402 87.8512 83.444 87.7952 83.472C87.7579 83.4907 87.6226 83.5 87.3892 83.5C87.1559 83.5 87.0206 83.4907 86.9832 83.472C86.9646 83.4627 85.8959 82.1607 83.7772 79.566C81.6399 76.906 80.5806 75.5947 80.5992 75.632L80.5572 75.59V79.034V82.492H81.3132H82.0692V82.996V83.5H81.9292C81.9386 83.5 81.5979 83.4907 80.9072 83.472C80.3099 83.4627 79.7126 83.4627 79.1152 83.472C78.4246 83.4907 78.0839 83.5 78.0932 83.5H77.9532V82.996V82.492H78.7092H79.4652V78.698V74.904H78.7092H77.9532V74.4Z" fill="white"/>
</svg>
