<svg width="108" height="107" viewBox="0 0 108 107" fill="none" xmlns="http://www.w3.org/2000/svg">
<ellipse cx="54" cy="53.5" rx="54" ry="53.5" fill="#111111"/>
<path d="M54 2C82.7364 2 106 25.0748 106 53.5C106 81.9252 82.7364 105 54 105C25.2636 105 2 81.9252 2 53.5C2 25.0748 25.2636 2 54 2Z" stroke="black" stroke-width="4"/>
<path d="M54 6C80.5194 6 102 27.2761 102 53.5C102 79.7239 80.5194 101 54 101C27.4806 101 6 79.7239 6 53.5C6 27.2761 27.4806 6 54 6Z" stroke="white" stroke-width="2"/>
<path d="M35 17.5L35 37.5" stroke="white" stroke-width="2" stroke-linecap="round"/>
<path d="M34.9983 37.5002L35.5002 36.9995L36.9983 36.5002L38.497 36.4999L40.9994 36.5L43.5001 36.4999L45.5 36.5L47 37L48.5 37.5L49.5 38L50.5 38.5L51.5002 38.9995L52.5002 39.4995L53.5002 39.9995" stroke="white" stroke-width="2"/>
<path d="M58.5118 37.9321L58.1498 36.9999L57.9282 37.086L57.769 37.2625L58.5118 37.9321ZM60.0202 37.3463L59.7923 36.3726L59.7238 36.3887L59.6582 36.4141L60.0202 37.3463ZM61.4999 36.9999L61.7278 37.9736L61.7351 37.9719L61.7424 37.9701L61.4999 36.9999ZM63.4999 36.4999L63.4999 35.4999L63.3768 35.4999L63.2573 35.5298L63.4999 36.4999ZM66.4997 36.5L66.4997 35.5L66.4997 35.5L66.4997 36.5ZM68.4995 36.5L68.4995 37.5L68.4996 37.5L68.4995 36.5ZM70.4994 36.5L70.8156 35.5513L70.6617 35.5L70.4994 35.5L70.4994 36.5ZM71.9994 37L71.6832 37.9487L71.8371 38L71.9994 38L71.9994 37ZM73.4999 28.5L72.4999 28.4999L72.4999 28.4999L73.4999 28.5ZM74.5 16.9998C74.5 16.4476 74.0523 15.9998 73.5 15.9998C72.9477 15.9998 72.5 16.4475 72.5 16.9998L74.5 16.9998ZM72.9998 36.9999L72.9999 37.9999L73.414 37.9999L73.7069 37.7071L72.9998 36.9999ZM73.4998 34.9999L72.4998 34.9999L72.4998 34.9999L73.4998 34.9999ZM73.4998 36.4999L74.2069 37.2071L74.4998 36.9142L74.4998 36.4999L73.4998 36.4999ZM57.9999 38.4999L58.7426 39.1695L59.2545 38.6017L58.5118 37.9321L57.769 37.2625L57.2571 37.8303L57.9999 38.4999ZM58.5118 37.9321L58.8738 38.8643L60.3822 38.2785L60.0202 37.3463L59.6582 36.4141L58.1498 36.9999L58.5118 37.9321ZM60.0202 37.3463L60.2481 38.32L61.7278 37.9736L61.4999 36.9999L61.2719 36.0262L59.7923 36.3726L60.0202 37.3463ZM61.4999 36.9999L61.7424 37.9701L63.7424 37.4701L63.4999 36.4999L63.2573 35.5298L61.2573 36.0298L61.4999 36.9999ZM63.4999 36.4999L63.4998 37.4999L66.4997 37.5L66.4997 36.5L66.4997 35.5L63.4999 35.4999L63.4999 36.4999ZM66.4997 36.5L66.4997 37.5L68.4995 37.5L68.4995 36.5L68.4996 35.5L66.4997 35.5L66.4997 36.5ZM68.4995 36.5L68.4996 37.5L70.4994 37.5L70.4994 36.5L70.4994 35.5L68.4995 35.5L68.4995 36.5ZM70.4994 36.5L70.1832 37.4487L71.6832 37.9487L71.9994 37L72.3156 36.0513L70.8156 35.5513L70.4994 36.5ZM73.4999 28.5L74.4999 28.5L74.5 16.9998L73.5 16.9998L72.5 16.9998L72.4999 28.4999L73.4999 28.5ZM71.9994 37L71.9994 38L72.9999 37.9999L72.9998 36.9999L72.9998 35.9999L71.9993 36L71.9994 37ZM73.4998 34.9999L74.4998 35L74.4999 28.5L73.4999 28.5L72.4999 28.4999L72.4998 34.9999L73.4998 34.9999ZM72.9998 36.9999L73.7069 37.7071L74.2069 37.2071L73.4998 36.4999L72.7927 35.7928L72.2927 36.2928L72.9998 36.9999ZM73.4998 36.4999L74.4998 36.4999L74.4998 34.9999L73.4998 34.9999L72.4998 34.9999L72.4998 36.4999L73.4998 36.4999Z" fill="white"/>
<path d="M51.5 39L53.5 40H55H56.5L58.5 38" stroke="white" stroke-width="2"/>
<path d="M46.918 15L48.2646 15.4482L50.2002 16.9004L50.2109 16.9082L50.2227 16.916L51.6387 17.8604L52.5 19.1514V35.6904L52.2236 35.5527L49.2236 34.0527L49.1914 34.0371L49.1582 34.0254L46.1582 33.0254L46.0957 33.0049L46.0293 33.001L38 32.5283V15.207L38.207 15H46.918Z" fill="white" stroke="white"/>
<path d="M61.082 15L59.7354 15.4482L57.7998 16.9004L57.7891 16.9082L57.7773 16.916L56.3613 17.8604L55.5 19.1514V35.6904L55.7764 35.5527L58.7764 34.0527L58.8086 34.0371L58.8418 34.0254L61.8418 33.0254L61.9043 33.0049L61.9707 33.001L70 32.5283V15.207L69.793 15H61.082Z" fill="white" stroke="white"/>
<path d="M53 36.5V19L52.5 18L51.5 17L50 16L48.5 15L47 14.5H45H38.5L38 14.5L37.5 15V15.5V33.5" stroke="white" stroke-width="0.5"/>
<path d="M37.5 32.5L37.5001 33.25H44.5H45.3167L46.5 33.5L49 34.5L52.5 36.5H53V35.5" stroke="white" stroke-width="0.5"/>
<path d="M55 36.5V19L55.5 18L56.5 17L58 16L59.5 15L61 14.5H63H69.5L70 14.5L70.5 15V15.5V33.5" stroke="white" stroke-width="0.5"/>
<path d="M70.5 32.5L70.4999 33.25H63.5H62.6833L61.5 33.5L59 34.5L55.5 36.5H55V35.5" stroke="white" stroke-width="0.5"/>
<path d="M19.5333 74.484V73.98H23.8733H28.2273V74.036C28.2366 74.0733 28.3113 74.6753 28.4513 75.842C28.5726 76.9807 28.6426 77.5827 28.6613 77.648V77.704H28.1573H27.6533L27.6253 77.466C27.5413 76.8593 27.4293 76.3973 27.2893 76.08C27 75.492 26.4633 75.142 25.6793 75.03C25.4273 75.002 24.956 74.988 24.2653 74.988H23.3833V76.514V78.054H23.6353C24.0646 78.054 24.3773 78.0027 24.5733 77.9C24.732 77.8347 24.8486 77.732 24.9233 77.592C25.054 77.3773 25.1193 77.046 25.1193 76.598V76.416H25.6233H26.1273V78.558V80.7H25.6233H25.1193V80.518C25.1193 80.07 25.054 79.7387 24.9233 79.524C24.8486 79.384 24.732 79.2813 24.5733 79.216C24.3773 79.1133 24.0646 79.062 23.6353 79.062H23.3833V80.77V82.492H24.2933C24.956 82.492 25.3293 82.4873 25.4133 82.478C26.3653 82.4127 27.0373 82.1047 27.4293 81.554C27.476 81.498 27.5366 81.3907 27.6113 81.232C27.7793 80.9053 27.924 80.392 28.0453 79.692C28.064 79.5053 28.0826 79.3933 28.1013 79.356V79.314H28.6053H29.1093V79.356C29.1 79.3747 28.9926 80.056 28.7873 81.4C28.582 82.7533 28.4746 83.4393 28.4653 83.458V83.5H23.9993H19.5333V82.996V82.492H20.2893H21.0453V78.74V74.988H20.2893H19.5333V74.484ZM30.1153 74.4V73.896H33.2093C35.328 73.896 36.4293 73.9007 36.5133 73.91C37.288 73.966 37.9787 74.148 38.5853 74.456C39.78 75.0627 40.536 76.052 40.8533 77.424C40.872 77.5267 40.8907 77.6293 40.9093 77.732C41.068 78.6373 41.0307 79.4913 40.7973 80.294C40.4427 81.5073 39.724 82.3847 38.6413 82.926C38.128 83.1967 37.5073 83.3787 36.7793 83.472C36.6767 83.4813 35.5333 83.4907 33.3493 83.5H30.1153V82.996V82.492H30.8713H31.6273V78.698V74.904H30.8713H30.1153V74.4ZM35.8553 74.918C35.79 74.9087 35.4307 74.904 34.7773 74.904H33.8813V78.698V82.492H34.9033C35.6407 82.4827 36.042 82.4733 36.1073 82.464C36.9193 82.3613 37.5353 82.0767 37.9553 81.61C38.31 81.2087 38.5153 80.5927 38.5713 79.762C38.6087 79.0153 38.6087 78.32 38.5713 77.676C38.562 77.6293 38.5573 77.592 38.5573 77.564C38.464 76.5187 38.0953 75.7907 37.4513 75.38C37.3673 75.3333 37.2787 75.2867 37.1853 75.24C36.8307 75.072 36.3873 74.9647 35.8553 74.918ZM42.195 74.4V73.896H42.391L43.763 73.924C44.5657 73.9333 45.3637 73.9333 46.157 73.924L47.543 73.896H47.725V74.4V74.904H46.927H46.129V78.698V82.492H46.927H47.725V82.996V83.5H47.529L46.157 83.472C45.3637 83.4627 44.5657 83.4627 43.763 83.472L42.377 83.5H42.195V82.996V82.492H42.993H43.791V78.698V74.904H42.993H42.195V74.4ZM48.8807 74.134V74.05H53.5987H58.3307V74.134L58.4847 75.912C58.5687 77.0787 58.6154 77.6713 58.6247 77.69V77.774H58.1207C57.7847 77.774 57.6167 77.7693 57.6167 77.76C57.6167 77.5733 57.5934 77.3307 57.5467 77.032C57.4907 76.612 57.4114 76.2667 57.3087 75.996C57.1687 75.6693 56.9307 75.4267 56.5947 75.268C56.4547 75.1933 56.268 75.1373 56.0347 75.1C55.9507 75.0813 55.7127 75.0673 55.3207 75.058H54.7747V78.768V82.492H55.8527H56.9167V82.996V83.5H56.6927L55.0407 83.472C54.0794 83.4627 53.1227 83.4627 52.1707 83.472L50.5187 83.5H50.2947V82.996V82.492H51.3727H52.4367V78.768V75.058H51.8907C51.4987 75.0673 51.2607 75.0813 51.1767 75.1C50.738 75.184 50.402 75.3473 50.1687 75.59C50.0194 75.7393 49.898 75.9633 49.8047 76.262C49.73 76.5327 49.6694 76.948 49.6227 77.508C49.604 77.6667 49.5947 77.7507 49.5947 77.76C49.5947 77.7693 49.4267 77.774 49.0907 77.774H48.5867V77.69L48.7407 75.912C48.8247 74.7453 48.8714 74.1527 48.8807 74.134ZM59.49 74.4V73.896H59.686L61.058 73.924C61.8606 73.9333 62.6586 73.9333 63.452 73.924L64.838 73.896H65.02V74.4V74.904H64.222H63.424V78.698V82.492H64.222H65.02V82.996V83.5H64.824L63.452 83.472C62.6586 83.4627 61.8606 83.4627 61.058 83.472L59.672 83.5H59.49V82.996V82.492H60.288H61.086V78.698V74.904H60.288H59.49V74.4ZM70.8796 73.756C71.1876 73.7373 71.575 73.742 72.0416 73.77C73.311 73.91 74.333 74.3627 75.1076 75.128C75.8636 75.884 76.3163 76.878 76.4656 78.11C76.503 78.4833 76.503 78.8893 76.4656 79.328C76.4656 79.3467 76.4656 79.3653 76.4656 79.384C76.3256 80.5507 75.8963 81.5027 75.1776 82.24C74.8323 82.576 74.4403 82.856 74.0016 83.08C73.423 83.36 72.7696 83.542 72.0416 83.626C71.6496 83.6633 71.211 83.6633 70.7256 83.626C70.6976 83.626 70.6743 83.626 70.6556 83.626C69.3303 83.4673 68.2896 83.0053 67.5336 82.24C66.8056 81.512 66.3716 80.56 66.2316 79.384C66.1943 79.0293 66.1943 78.628 66.2316 78.18C66.2316 78.152 66.2316 78.1287 66.2316 78.11C66.3063 77.55 66.423 77.074 66.5816 76.682C67.0016 75.6087 67.7063 74.8293 68.6956 74.344C69.3303 74.0173 70.0583 73.8213 70.8796 73.756ZM71.6356 74.666C70.8516 74.582 70.1843 74.792 69.6336 75.296C69.503 75.4173 69.3863 75.5527 69.2836 75.702C69.0316 76.0847 68.859 76.5607 68.7656 77.13C68.6723 77.8113 68.6583 78.6233 68.7236 79.566C68.733 79.65 68.7423 79.7293 68.7516 79.804C68.8543 80.8773 69.1903 81.6567 69.7596 82.142C70.3756 82.6553 71.0756 82.828 71.8596 82.66C72.261 82.576 72.6203 82.4033 72.9376 82.142C73.507 81.6567 73.843 80.8773 73.9456 79.804C74.039 79.02 74.0436 78.1893 73.9596 77.312C73.9503 77.2467 73.941 77.186 73.9316 77.13C73.8663 76.7287 73.7543 76.3553 73.5956 76.01C73.2036 75.2167 72.5503 74.7687 71.6356 74.666ZM77.9532 74.4V73.896H79.8852H81.8312L81.8872 73.924C81.9152 73.9333 82.7412 74.9367 84.3652 76.934C86.0172 78.9687 86.8292 79.972 86.8012 79.944L86.8432 79.986V77.452V74.904H86.0872H85.3312V74.4V73.896H85.4712L86.4932 73.924C87.0906 73.9333 87.6879 73.9333 88.2852 73.924C88.9572 73.9053 89.2979 73.896 89.3072 73.896H89.4472V74.4V74.904H88.6912H87.9352V79.104C87.9352 81.8947 87.9259 83.3087 87.9072 83.346C87.8886 83.402 87.8512 83.444 87.7952 83.472C87.7579 83.4907 87.6226 83.5 87.3892 83.5C87.1559 83.5 87.0206 83.4907 86.9832 83.472C86.9646 83.4627 85.8959 82.1607 83.7772 79.566C81.6399 76.906 80.5806 75.5947 80.5992 75.632L80.5572 75.59V79.034V82.492H81.3132H82.0692V82.996V83.5H81.9292C81.9386 83.5 81.5979 83.4907 80.9072 83.472C80.3099 83.4627 79.7126 83.4627 79.1152 83.472C78.4246 83.4907 78.0839 83.5 78.0932 83.5H77.9532V82.996V82.492H78.7092H79.4652V78.698V74.904H78.7092H77.9532V74.4Z" fill="white"/>
<path d="M13.6935 56.984V56.48H18.0335H22.3875V56.536C22.3968 56.5733 22.4715 57.1753 22.6115 58.342C22.7328 59.4807 22.8028 60.0827 22.8215 60.148V60.204H22.3175H21.8135L21.7855 59.966C21.7015 59.3593 21.5895 58.8973 21.4495 58.58C21.1601 57.992 20.6235 57.642 19.8395 57.53C19.5875 57.502 19.1161 57.488 18.4255 57.488H17.5435V59.014V60.554H17.7955C18.2248 60.554 18.5375 60.5027 18.7335 60.4C18.8921 60.3347 19.0088 60.232 19.0835 60.092C19.2141 59.8773 19.2795 59.546 19.2795 59.098V58.916H19.7835H20.2875V61.058V63.2H19.7835H19.2795V63.018C19.2795 62.57 19.2141 62.2387 19.0835 62.024C19.0088 61.884 18.8921 61.7813 18.7335 61.716C18.5375 61.6133 18.2248 61.562 17.7955 61.562H17.5435V63.27V64.992H18.4535C19.1161 64.992 19.4895 64.9873 19.5735 64.978C20.5255 64.9127 21.1975 64.6047 21.5895 64.054C21.6361 63.998 21.6968 63.8907 21.7715 63.732C21.9395 63.4053 22.0841 62.892 22.2055 62.192C22.2241 62.0053 22.2428 61.8933 22.2615 61.856V61.814H22.7655H23.2695V61.856C23.2601 61.8747 23.1528 62.556 22.9475 63.9C22.7421 65.2533 22.6348 65.9393 22.6255 65.958V66H18.1595H13.6935V65.496V64.992H14.4495H15.2055V61.24V57.488H14.4495H13.6935V56.984ZM27.3555 56.256C27.7475 56.2187 28.1255 56.2327 28.4895 56.298C29.0028 56.3727 29.4882 56.5593 29.9455 56.858C30.0015 56.9047 30.0435 56.9233 30.0715 56.914C30.1182 56.8673 30.2395 56.76 30.4355 56.592C30.6782 56.3867 30.8042 56.2793 30.8135 56.27C30.8415 56.2513 30.9068 56.242 31.0095 56.242C31.1215 56.242 31.1915 56.2513 31.2195 56.27C31.2662 56.298 31.2942 56.3633 31.3035 56.466C31.3128 56.5967 31.3175 57.082 31.3175 57.922C31.3175 58.9673 31.2848 59.5133 31.2195 59.56C31.1822 59.5787 31.0468 59.588 30.8135 59.588C30.5802 59.588 30.4448 59.5787 30.4075 59.56C30.3515 59.532 30.3142 59.434 30.2955 59.266C30.2395 58.9673 30.1508 58.692 30.0295 58.44C29.9175 58.2067 29.7635 58.0013 29.5675 57.824C29.1662 57.432 28.6062 57.222 27.8875 57.194C27.1222 57.166 26.6368 57.418 26.4315 57.95C26.3848 58.0807 26.3615 58.23 26.3615 58.398C26.3615 58.5847 26.3942 58.748 26.4595 58.888C26.5995 59.1773 26.8515 59.392 27.2155 59.532C27.2808 59.5693 27.6402 59.6533 28.2935 59.784C28.9655 59.924 29.3388 60.008 29.4135 60.036C29.8242 60.1387 30.1928 60.3113 30.5195 60.554C31.1915 61.0487 31.5975 61.7253 31.7375 62.584C31.7748 62.8453 31.7748 63.172 31.7375 63.564C31.6815 63.9187 31.5742 64.2593 31.4155 64.586C31.2288 64.9687 30.9815 65.2767 30.6735 65.51C30.2442 65.8367 29.7262 66.042 29.1195 66.126C28.8862 66.1633 28.5268 66.168 28.0415 66.14C27.9948 66.1307 27.9575 66.126 27.9295 66.126C27.1268 66.042 26.4828 65.8413 25.9975 65.524C25.9415 65.4867 25.8995 65.4727 25.8715 65.482C25.8248 65.5287 25.7035 65.636 25.5075 65.804C25.2648 66.0093 25.1388 66.1167 25.1295 66.126C25.1015 66.1447 25.0362 66.154 24.9335 66.154C24.8215 66.154 24.7515 66.1447 24.7235 66.126C24.6768 66.098 24.6488 66.0327 24.6395 65.93C24.6302 65.7993 24.6255 65.3187 24.6255 64.488C24.6255 63.4707 24.6348 62.948 24.6535 62.92C24.6628 62.9013 24.6815 62.878 24.7095 62.85C24.7562 62.822 24.8915 62.808 25.1155 62.808C25.3582 62.808 25.4982 62.8173 25.5355 62.836C25.6008 62.8733 25.6335 62.9713 25.6335 63.13C25.6615 63.634 25.8388 64.0493 26.1655 64.376C26.4082 64.6187 26.7442 64.81 27.1735 64.95C27.7242 65.1273 28.2748 65.188 28.8255 65.132C28.9002 65.1227 28.9655 65.1133 29.0215 65.104C29.2828 65.048 29.4975 64.936 29.6655 64.768C29.8522 64.5813 29.9735 64.3293 30.0295 64.012C30.1042 63.536 29.9735 63.13 29.6375 62.794C29.4975 62.6353 29.3155 62.5233 29.0915 62.458C29.0542 62.4393 28.6808 62.3507 27.9715 62.192C27.2995 62.0613 26.9168 61.9773 26.8235 61.94C26.1328 61.744 25.5915 61.3753 25.1995 60.834C24.7982 60.302 24.6068 59.7047 24.6255 59.042C24.6535 58.3793 24.8495 57.81 25.2135 57.334C25.5588 56.8673 26.0628 56.5453 26.7255 56.368C26.9495 56.312 27.1595 56.2747 27.3555 56.256ZM33.2169 56.9V56.396H36.2129C38.2662 56.396 39.3349 56.4007 39.4189 56.41C40.5762 56.494 41.4489 56.844 42.0369 57.46C42.4009 57.852 42.6296 58.314 42.7229 58.846C42.7416 58.93 42.7509 59.0747 42.7509 59.28C42.7509 59.5413 42.7276 59.756 42.6809 59.924C42.5689 60.428 42.3076 60.862 41.8969 61.226C41.3742 61.674 40.7116 61.954 39.9089 62.066C39.6569 62.1033 39.0876 62.122 38.2009 62.122H37.0669V63.55V64.992H37.8229H38.5789V65.496V66H38.3969C38.4062 66 37.9582 65.9907 37.0529 65.972C36.2782 65.9627 35.5036 65.9627 34.7289 65.972L33.3989 66H33.2169V65.496V64.992H33.9729H34.7289V61.198V57.404H33.9729H33.2169V56.9ZM39.0829 57.432C39.0269 57.4227 38.6536 57.4133 37.9629 57.404H36.9829V59.294V61.198H37.8229C38.6442 61.198 39.1762 61.1607 39.4189 61.086C39.7362 60.9927 39.9556 60.848 40.0769 60.652C40.2169 60.4093 40.2822 59.9053 40.2729 59.14C40.2636 58.7013 40.2356 58.3933 40.1889 58.216C40.1516 58.0573 40.0862 57.9313 39.9929 57.838C39.8249 57.642 39.5216 57.5067 39.0829 57.432ZM44.2228 56.984V56.48H48.5628H52.9168V56.536C52.9261 56.5733 53.0008 57.1753 53.1408 58.342C53.2621 59.4807 53.3321 60.0827 53.3508 60.148V60.204H52.8468H52.3428L52.3148 59.966C52.2308 59.3593 52.1188 58.8973 51.9788 58.58C51.6894 57.992 51.1528 57.642 50.3688 57.53C50.1168 57.502 49.6454 57.488 48.9548 57.488H48.0728V59.014V60.554H48.3248C48.7541 60.554 49.0668 60.5027 49.2628 60.4C49.4214 60.3347 49.5381 60.232 49.6128 60.092C49.7434 59.8773 49.8088 59.546 49.8088 59.098V58.916H50.3128H50.8168V61.058V63.2H50.3128H49.8088V63.018C49.8088 62.57 49.7434 62.2387 49.6128 62.024C49.5381 61.884 49.4214 61.7813 49.2628 61.716C49.0668 61.6133 48.7541 61.562 48.3248 61.562H48.0728V63.27V64.992H48.9828C49.6454 64.992 50.0188 64.9873 50.1028 64.978C51.0548 64.9127 51.7268 64.6047 52.1188 64.054C52.1654 63.998 52.2261 63.8907 52.3008 63.732C52.4688 63.4053 52.6134 62.892 52.7348 62.192C52.7534 62.0053 52.7721 61.8933 52.7908 61.856V61.814H53.2948H53.7988V61.856C53.7894 61.8747 53.6821 62.556 53.4768 63.9C53.2714 65.2533 53.1641 65.9393 53.1548 65.958V66H48.6888H44.2228V65.496V64.992H44.9788H45.7348V61.24V57.488H44.9788H44.2228V56.984ZM60.3908 56.256H61.1748C61.5575 56.284 61.9121 56.3633 62.2388 56.494C62.6028 56.6153 62.9528 56.802 63.2888 57.054C63.3728 57.1193 63.4148 57.1427 63.4148 57.124C63.4241 57.124 63.5968 56.984 63.9328 56.704C64.3061 56.4053 64.4881 56.2607 64.4788 56.27C64.5535 56.2233 64.6888 56.2233 64.8848 56.27C64.9315 56.298 64.9595 56.3447 64.9688 56.41C64.9781 56.5033 64.9828 57.11 64.9828 58.23C64.9828 59.4713 64.9688 60.1107 64.9408 60.148L64.8848 60.176C64.8475 60.1947 64.6981 60.204 64.4368 60.204C64.1755 60.204 64.0261 60.1947 63.9888 60.176C63.9235 60.1293 63.8861 60.0593 63.8768 59.966C63.8021 59.2753 63.5548 58.678 63.1348 58.174C62.9481 57.9687 62.7708 57.8053 62.6028 57.684C62.3041 57.4693 61.9915 57.3387 61.6648 57.292C61.2541 57.208 60.7501 57.2313 60.1528 57.362C59.5555 57.4833 59.0748 57.698 58.7108 58.006C58.4961 58.174 58.3375 58.342 58.2348 58.51C57.8428 59.0793 57.6468 59.9753 57.6468 61.198C57.6468 62.4767 57.8661 63.4007 58.3048 63.97C58.3515 64.0353 58.4075 64.1007 58.4728 64.166C58.5941 64.2873 58.6735 64.362 58.7108 64.39C59.0748 64.698 59.5555 64.9127 60.1528 65.034C60.6755 65.146 61.1375 65.1787 61.5388 65.132C62.3881 65.048 63.0461 64.67 63.5128 63.998C63.7928 63.606 63.9468 63.172 63.9748 62.696C63.9748 62.5373 64.0075 62.4393 64.0728 62.402C64.1101 62.3833 64.2455 62.374 64.4788 62.374C64.7121 62.374 64.8475 62.3833 64.8848 62.402C64.9501 62.4487 64.9828 62.556 64.9828 62.724C64.9548 63.172 64.8521 63.578 64.6748 63.942C64.2361 64.8567 63.4848 65.5007 62.4208 65.874C62.0288 66.014 61.6135 66.1027 61.1748 66.14C60.8761 66.168 60.4981 66.1633 60.0408 66.126C58.8648 65.9953 57.8848 65.6593 57.1008 65.118C56.3541 64.5673 55.8221 63.8813 55.5048 63.06C55.3648 62.7053 55.2575 62.2853 55.1828 61.8C55.1455 61.464 55.1455 61.0813 55.1828 60.652C55.1828 60.624 55.1828 60.6007 55.1828 60.582C55.2761 59.8353 55.5095 59.1633 55.8828 58.566C56.4521 57.642 57.3155 56.984 58.4728 56.592C59.0701 56.4053 59.7095 56.2933 60.3908 56.256ZM66.1736 56.9V56.396H66.3696L67.7416 56.424C68.5442 56.4333 69.3422 56.4333 70.1356 56.424L71.5216 56.396H71.7036V56.9V57.404H70.9056H70.1076V61.198V64.992H70.9056H71.7036V65.496V66H71.5076L70.1356 65.972C69.3422 65.9627 68.5442 65.9627 67.7416 65.972L66.3556 66H66.1736V65.496V64.992H66.9716H67.7696V61.198V57.404H66.9716H66.1736V56.9ZM77.6332 56.242H78.4732H78.4872C78.6085 56.2887 78.6785 56.34 78.6972 56.396L82.0572 64.922L82.0852 64.992H82.8412H83.5832V65.496V66H83.4152L82.2112 65.972C81.5299 65.9627 80.7925 65.9627 79.9992 65.972L78.6412 66H78.4592V65.496V64.992H79.0612L79.6632 64.978L79.4112 64.348L79.1592 63.718H77.4372C76.2892 63.718 75.7152 63.7227 75.7152 63.732L75.4632 64.362L75.2252 64.978C75.2252 64.9873 75.4259 64.992 75.8272 64.992H76.4152V65.496V66H76.2752L75.2392 65.972C74.6325 65.9627 74.0725 65.9627 73.5592 65.972L72.6772 66H72.5512V65.496V64.992H73.2932H74.0492L74.0772 64.922L77.4372 56.396C77.4652 56.3493 77.5305 56.298 77.6332 56.242ZM78.1092 61.03L77.4512 59.35H77.4372L76.1212 62.71H77.4512L78.7672 62.696L78.1092 61.03ZM84.7052 56.9V56.396H84.8872C84.8778 56.396 85.3258 56.4053 86.2312 56.424C87.0058 56.4333 87.8365 56.4333 88.7232 56.424L90.2492 56.396H90.4452V56.9V57.404H89.5072H88.5552V61.198V64.992H89.1572C89.5865 64.992 89.8432 64.9827 89.9272 64.964C90.3098 64.9173 90.6552 64.7913 90.9632 64.586C91.5325 64.194 91.8918 63.5407 92.0412 62.626C92.1158 62.2153 92.1532 61.9493 92.1532 61.828C92.1532 61.8187 92.3212 61.814 92.6572 61.814H93.1612V61.884C93.1425 61.9307 93.0725 62.6027 92.9512 63.9C92.8112 65.2347 92.7365 65.9113 92.7272 65.93V66H88.7092H84.7052V65.496V64.992H85.4612H86.2172V61.198V57.404H85.4612H84.7052V56.9Z" fill="white"/>
<g filter="url(#filter0_d_2677_26)">
<path d="M55 42L56.4164 46.9656H61L57.2918 50.0344L58.7082 55L55 51.9311L51.2918 55L52.7082 50.0344L49 46.9656H53.5836L55 42Z" fill="#111111"/>
<path d="M55.9355 47.1025L56.0391 47.4658H59.6113L56.9727 49.6494L56.7217 49.8574L56.8105 50.1719L57.7852 53.5869L55.3184 51.5459L55 51.2822L54.6816 51.5459L52.2139 53.5869L53.1895 50.1719L53.2783 49.8574L53.0273 49.6494L50.3887 47.4658H53.9609L54.0645 47.1025L55 43.8213L55.9355 47.1025Z" stroke="white"/>
</g>
<defs>
<filter id="filter0_d_2677_26" x="45" y="42" width="20" height="21" filterUnits="userSpaceOnUse" color-interpolation-filters="sRGB">
<feFlood flood-opacity="0" result="BackgroundImageFix"/>
<feColorMatrix in="SourceAlpha" type="matrix" values="0 0 0 0 0 0 0 0 0 0 0 0 0 0 0 0 0 0 127 0" result="hardAlpha"/>
<feOffset dy="4"/>
<feGaussianBlur stdDeviation="2"/>
<feComposite in2="hardAlpha" operator="out"/>
<feColorMatrix type="matrix" values="0 0 0 0 0 0 0 0 0 0 0 0 0 0 0 0 0 0 0.25 0"/>
<feBlend mode="normal" in2="BackgroundImageFix" result="effect1_dropShadow_2677_26"/>
<feBlend mode="normal" in="SourceGraphic" in2="effect1_dropShadow_2677_26" result="shape"/>
</filter>
</defs>
</svg>
