            <svg width="1441" height="152" viewBox="0 0 1441 152" fill="none" xmlns="http://www.w3.org/2000/svg">
            <path d="M0 26.8918L48.4195 16.7698C124.756 0.811794 203.768 2.94938 279.13 23.0114L316.327 32.9135C383.493 50.7938 454.358 49.2233 520.666 28.3849C587.959 7.23687 659.923 5.9398 727.934 24.6491L777.877 38.3878C830.591 52.889 885.327 58.6463 939.905 55.4305L1027.47 50.2712C1058.75 48.4278 1089.8 43.6471 1120.19 35.992L1154.68 27.3038C1236.24 6.75959 1321.67 7.1223 1403.05 28.3584L1440 38V147.014L0 151.5V26.8918Z" fill="url(#paint0_linear_0_1)" fill-opacity="0.5"/>
            <path d="M0.5 40.5L98.4977 15.6774C158.224 0.548723 221.051 3.00465 279.414 22.7495L309.271 32.8503C362.023 50.6967 419.409 49.1541 471.126 28.4993C523.598 7.54297 581.878 6.27052 635.215 24.9167L653.644 31.3592C707.548 50.2039 766.313 49.815 819.963 30.2586C866.886 13.1544 917.888 10.6569 966.258 23.0948L994.246 30.2918C1052.94 45.3848 1114.89 41.7342 1171.4 19.8515C1221.8 0.33828 1276.64 -4.72345 1329.76 5.23592L1440.5 26V152H0.5V40.5Z" fill="url(#paint1_linear_0_1)"/>
            <path d="M0 3.5L98.0261 23.8925C159.266 36.6324 222.553 35.8155 283.444 21.4993C334.059 9.59907 386.417 7.00648 437.96 13.8482L476.714 18.9923C521.366 24.9193 566.615 24.7853 611.232 18.5938L637.298 14.9766C692.011 7.38409 747.63 9.42146 801.641 20.9966C867.779 35.171 936.187 35.0136 1002.26 20.5352L1004.18 20.1153C1054.4 9.10913 1106.07 6.19964 1157.21 11.4968L1208.13 16.7709C1242.29 20.3083 1276.71 20.3181 1310.87 16.8001L1440 3.5V151.5H0V3.5Z" fill="url(#paint2_linear_0_1)" fill-opacity="0.8"/>
            <defs>
            <linearGradient id="paint0_linear_0_1" x1="-75.5525" y1="70.7539" x2="1748.71" y2="70.7539" gradientUnits="userSpaceOnUse">
            <stop stop-color="#3E1A6D"/>
            <stop offset="0.5" stop-color="#9636AD"/>
            <stop offset="1" stop-color="#B57CBE"/>
            </linearGradient>
            <linearGradient id="paint1_linear_0_1" x1="-10" y1="9.5" x2="1430" y2="9.5" gradientUnits="userSpaceOnUse">
            <stop stop-color="#3E1A6D"/>
            <stop offset="0.5" stop-color="#9636AD"/>
            <stop offset="1" stop-color="#B57CBE"/>
            </linearGradient>
            <linearGradient id="paint2_linear_0_1" x1="0" y1="77.5" x2="1440" y2="77.5" gradientUnits="userSpaceOnUse">
            <stop stop-color="#3E1A6D"/>
            <stop offset="0.5" stop-color="#9636AD"/>
            <stop offset="1" stop-color="#B57CBE"/>
            </linearGradient>
            </defs>
		
            </svg>