<svg width="108" height="107" viewBox="0 0 108 107" fill="none" xmlns="http://www.w3.org/2000/svg">
<ellipse cx="54" cy="53.5" rx="54" ry="53.5" fill="white"/>
<path d="M54 2C82.7364 2 106 25.0748 106 53.5C106 81.9252 82.7364 105 54 105C25.2636 105 2 81.9252 2 53.5C2 25.0748 25.2636 2 54 2Z" stroke="black" stroke-width="4"/>
<path d="M54 6C80.5194 6 102 27.2761 102 53.5C102 79.7239 80.5194 101 54 101C27.4806 101 6 79.7239 6 53.5C6 27.2761 27.4806 6 54 6Z" stroke="black" stroke-width="2"/>
<path d="M35 17.5L35 37.5" stroke="black" stroke-width="2" stroke-linecap="round"/>
<path d="M34.9983 37.5002L35.5002 36.9995L36.9983 36.5002L38.497 36.4999L40.9994 36.5L43.5001 36.4999L45.5 36.5L47 37L48.5 37.5L49.5 38L50.5 38.5L51.5002 38.9995L52.5002 39.4995L53.5002 39.9995" stroke="black" stroke-width="2"/>
<path d="M61.4999 37L61.7278 37.9737L61.7351 37.972L61.7424 37.9702L61.4999 37ZM58.5118 37.9322L58.1498 37L57.9282 37.0861L57.769 37.2626L58.5118 37.9322ZM60.0202 37.3464L59.7923 36.3728L59.7238 36.3888L59.6582 36.4143L60.0202 37.3464ZM63.4999 36.5L63.4999 35.5L63.3768 35.5L63.2573 35.5299L63.4999 36.5ZM66.4997 36.5001L66.4997 35.5001L66.4997 35.5001L66.4997 36.5001ZM68.4995 36.5001L68.4995 37.5001L68.4996 37.5001L68.4995 36.5001ZM70.4994 36.5001L70.8156 35.5514L70.6617 35.5001L70.4994 35.5001L70.4994 36.5001ZM71.9994 37.0001L71.6832 37.9488L71.8371 38.0001L71.9994 38.0001L71.9994 37.0001ZM73.4999 28.5001L72.4999 28.5001L72.4999 28.5001L73.4999 28.5001ZM74.5 17C74.5 16.4477 74.0523 16 73.5 16C72.9477 16 72.5 16.4477 72.5 16.9999L74.5 17ZM72.9998 37.0001L72.9999 38.0001L73.414 38L73.7069 37.7072L72.9998 37.0001ZM73.4998 35.0001L72.4998 35.0001L72.4998 35.0001L73.4998 35.0001ZM73.4998 36.5001L74.2069 37.2072L74.4998 36.9143L74.4998 36.5001L73.4998 36.5001ZM57.9999 38.5L58.7426 39.1696L59.2545 38.6018L58.5118 37.9322L57.769 37.2626L57.2571 37.8304L57.9999 38.5ZM58.5118 37.9322L58.8738 38.8644L60.3822 38.2786L60.0202 37.3464L59.6582 36.4143L58.1498 37L58.5118 37.9322ZM60.0202 37.3464L60.2481 38.3201L61.7278 37.9737L61.4999 37L61.2719 36.0264L59.7923 36.3728L60.0202 37.3464ZM61.4999 37L61.7424 37.9702L63.7424 37.4702L63.4999 36.5L63.2573 35.5299L61.2573 36.0299L61.4999 37ZM63.4999 36.5L63.4998 37.5L66.4997 37.5001L66.4997 36.5001L66.4997 35.5001L63.4999 35.5L63.4999 36.5ZM66.4997 36.5001L66.4997 37.5001L68.4995 37.5001L68.4995 36.5001L68.4996 35.5001L66.4997 35.5001L66.4997 36.5001ZM68.4995 36.5001L68.4996 37.5001L70.4994 37.5001L70.4994 36.5001L70.4994 35.5001L68.4995 35.5001L68.4995 36.5001ZM70.4994 36.5001L70.1832 37.4488L71.6832 37.9488L71.9994 37.0001L72.3156 36.0514L70.8156 35.5514L70.4994 36.5001ZM73.4999 28.5001L74.4999 28.5001L74.5 17L73.5 17L72.5 16.9999L72.4999 28.5001L73.4999 28.5001ZM71.9994 37.0001L71.9994 38.0001L72.9999 38.0001L72.9998 37.0001L72.9998 36.0001L71.9993 36.0001L71.9994 37.0001ZM73.4998 35.0001L74.4998 35.0001L74.4999 28.5001L73.4999 28.5001L72.4999 28.5001L72.4998 35.0001L73.4998 35.0001ZM72.9998 37.0001L73.7069 37.7072L74.2069 37.2072L73.4998 36.5001L72.7927 35.793L72.2927 36.293L72.9998 37.0001ZM73.4998 36.5001L74.4998 36.5001L74.4998 35.0001L73.4998 35.0001L72.4998 35.0001L72.4998 36.5001L73.4998 36.5001Z" fill="black"/>
<path d="M51.5 39L53.5 40H55H56.5L58.5 38" stroke="black" stroke-width="2"/>
<path d="M37.5 15L38 14.5H39H43.5H47L48.5 15L50.5 16.5L52 17.5L53 19V34.5V36.5L52 36L51 35.5L49 34.5L47.5 34L46 33.5L37.5 33V15Z" fill="black"/>
<path d="M70.5 15L70 14.5H69H64.5H61L59.5 15L57.5 16.5L56 17.5L55 19V34.5V36.5L56 36L57 35.5L59 34.5L60.5 34L62 33.5L70.5 33V15Z" fill="black"/>
<path d="M53 36.5V19L52.5 18L51.5 17L50 16L48.5 15L47 14.5H45H38.5L38 14.5L37.5 15V15.5V33.5" stroke="black" stroke-width="0.5"/>
<path d="M37.5 32.5L37.5001 33.25H44.5H45.3167L46.5 33.5L49 34.5L52.5 36.5H53V35.5" stroke="black" stroke-width="0.5"/>
<path d="M55 36.5V19L55.5 18L56.5 17L58 16L59.5 15L61 14.5H63H69.5L70 14.5L70.5 15V15.5V33.5" stroke="black" stroke-width="0.5"/>
<path d="M70.5 32.5L70.4999 33.25H63.5H62.6833L61.5 33.5L59 34.5L55.5 36.5H55V35.5" stroke="black" stroke-width="0.5"/>
<path d="M36.5011 71.588C35.5211 71.588 34.4431 71.3757 33.2671 70.951C32.0911 70.4937 30.9641 69.8077 29.8861 68.893C28.8408 67.9783 27.9751 66.8187 27.2891 65.414C26.6031 64.0093 26.2601 62.327 26.2601 60.367C26.2601 58.0477 26.5051 55.8917 26.9951 53.899C27.5178 51.9063 28.1875 50.0443 29.0041 48.313C29.9841 47.235 31.0458 46.2877 32.1891 45.471C33.3651 44.6217 34.5901 43.8867 35.8641 43.266C37.1708 42.6127 38.5428 42.0737 39.9801 41.649C41.4175 41.1917 42.8875 40.8323 44.3901 40.571L44.9291 42.531C43.6878 42.8903 42.4628 43.2987 41.2541 43.756C40.0455 44.1807 38.8531 44.6543 37.6771 45.177C36.5338 45.667 35.4068 46.2387 34.2961 46.892C33.2835 48.1987 32.4831 49.8647 31.8951 51.89C31.3071 53.8827 31.0131 55.9407 31.0131 58.064C31.0131 59.0767 31.0948 60.0893 31.2581 61.102C31.4215 62.1147 31.6828 63.0783 32.0421 63.993C32.4015 64.9077 32.8425 65.7407 33.3651 66.492C33.8225 66.8513 34.3941 67.2107 35.0801 67.57C35.7988 67.8967 36.4848 68.1743 37.1381 68.403C37.7915 68.6317 38.2815 68.746 38.6081 68.746C39.1961 68.5827 39.8168 68.3703 40.4701 68.109C41.1235 67.815 41.6788 67.4883 42.1361 67.129C42.3648 66.5083 42.5281 65.904 42.6261 65.316C42.7568 64.728 42.8221 64.1237 42.8221 63.503C42.8221 62.3923 42.6098 61.2817 42.1851 60.171C41.7931 59.0603 41.1888 58.162 40.3721 57.476C40.0455 57.378 39.4575 57.3127 38.6081 57.28C37.7915 57.2147 36.9258 57.1657 36.0111 57.133C35.1291 57.1003 34.4105 57.084 33.8551 57.084L33.3651 56.692L33.4631 55.418C34.0838 55.1893 34.9168 54.9607 35.9621 54.732C37.0401 54.4707 38.1181 54.2583 39.1961 54.095C40.3068 53.899 41.1561 53.801 41.7441 53.801C42.1361 53.9317 42.6261 54.1277 43.2141 54.389C43.8021 54.6177 44.3901 54.9607 44.9781 55.418C45.5661 55.8753 46.0561 56.5123 46.4481 57.329C46.8401 58.1457 47.0361 59.1747 47.0361 60.416C47.0361 61.7553 46.7585 63.062 46.2031 64.336C45.6805 65.61 44.9618 66.786 44.0471 67.864C43.1325 68.942 42.1035 69.873 40.9601 70.657C40.3395 70.951 39.6371 71.1797 38.8531 71.343C38.0691 71.5063 37.2851 71.588 36.5011 71.588Z" fill="black"/>
<path d="M57.3678 48.872V48.68H58.5198H59.6718V51.72V54.792H61.8158H63.9598V55.944V57.096H61.8158H59.6718V61.448C59.6931 64.456 59.7358 66.056 59.7998 66.248C59.7998 66.2693 59.8318 66.3333 59.8958 66.44C60.0238 66.696 60.2158 66.888 60.4718 67.016C60.5784 67.0587 60.7384 67.08 60.9518 67.08C61.1651 67.08 61.3038 67.0587 61.3678 67.016C61.7091 66.888 61.9758 66.4933 62.1678 65.832C62.2104 65.6827 62.2424 65.224 62.2638 64.456V63.336H63.4158H64.5678V64.36C64.5678 65.256 64.4931 65.9173 64.3438 66.344C64.1091 67.048 63.6931 67.656 63.0958 68.168C62.3918 68.7013 61.6238 69.032 60.7917 69.16C60.5998 69.1813 60.2691 69.192 59.7998 69.192C58.9251 69.1707 58.2104 69.0427 57.6558 68.808C56.9518 68.5733 56.3758 68.1467 55.9278 67.528C55.5864 67.0587 55.3624 66.4507 55.2558 65.704C55.2344 65.5973 55.2238 64.1147 55.2238 61.256V57.096H54.1358H53.0158V56.136V55.144H53.3038C53.9864 55.08 54.5944 54.8453 55.1278 54.44C56.2158 53.5867 56.9091 52.2427 57.2078 50.408C57.3144 49.832 57.3678 49.32 57.3678 48.872Z" fill="black"/>
<path d="M73.8711 55.44L76.3311 55.47C78.9511 55.77 80.6211 56.76 81.3411 58.44C81.4211 58.62 81.4811 58.8 81.5211 58.98L81.6111 59.31L81.6411 62.91C81.6411 65.25 81.6611 66.46 81.7011 66.54C81.8611 66.7 82.2911 66.8 82.9911 66.84C83.3111 66.84 83.5411 66.88 83.6811 66.96C83.8011 67.08 83.8611 67.4 83.8611 67.92C83.8611 68.44 83.7911 68.76 83.6511 68.88C83.4511 68.96 82.8111 69 81.7311 69C80.5311 68.98 79.7411 68.91 79.3611 68.79C78.7411 68.59 78.3411 68.28 78.1611 67.86C78.0811 67.7 78.0411 67.61 78.0411 67.59C78.0411 67.57 77.9511 67.62 77.7711 67.74C76.8911 68.44 75.7111 68.9 74.2311 69.12C73.4511 69.2 72.8411 69.21 72.4011 69.15C70.6011 68.95 69.3311 68.21 68.5911 66.93C68.4111 66.63 68.2811 66.32 68.2011 66C68.1411 65.78 68.1111 65.5 68.1111 65.16C68.1111 64.68 68.1911 64.27 68.3511 63.93C68.5911 63.45 68.9211 63.04 69.3411 62.7C70.0411 62.16 70.9311 61.74 72.0111 61.44C73.3311 61.04 74.9011 60.8 76.7211 60.72L77.4711 60.69V60.15L77.4411 59.37V59.34C77.3211 58.5 76.9111 57.91 76.2111 57.57C75.7711 57.35 75.2011 57.24 74.5011 57.24C73.6811 57.24 73.2511 57.26 73.2111 57.3L73.3011 57.48C73.4611 57.76 73.5311 58.12 73.5111 58.56C73.5111 58.88 73.4911 59.11 73.4511 59.25C73.3311 59.61 73.1511 59.91 72.9111 60.15C72.6511 60.41 72.3411 60.6 71.9811 60.72C71.8211 60.76 71.5911 60.78 71.2911 60.78C70.9911 60.78 70.7711 60.76 70.6311 60.72C70.2511 60.6 69.9311 60.41 69.6711 60.15C69.4311 59.91 69.2511 59.61 69.1311 59.25C69.0911 59.11 69.0711 58.88 69.0711 58.56C69.0711 58.24 69.0911 58.01 69.1311 57.87C69.4311 56.77 70.4011 56.04 72.0411 55.68C72.5811 55.56 73.1911 55.48 73.8711 55.44ZM77.4711 63.93C77.4711 62.89 77.4611 62.37 77.4411 62.37C77.4211 62.37 77.3711 62.38 77.2911 62.4C76.1111 62.48 75.0811 62.69 74.2011 63.03C73.2611 63.41 72.6711 63.94 72.4311 64.62C72.3311 64.9 72.3211 65.26 72.4011 65.7C72.6011 66.5 73.0611 67.02 73.7811 67.26C73.8211 67.28 73.8711 67.3 73.9311 67.32C74.6711 67.44 75.4511 67.29 76.2711 66.87C76.3311 66.85 76.3911 66.82 76.4511 66.78C76.8311 66.54 77.1011 66.27 77.2611 65.97C77.3811 65.73 77.4511 65.33 77.4711 64.77V63.93Z" fill="black"/>
<path d="M19.5333 74.484V73.98H23.8733H28.2273V74.036C28.2366 74.0733 28.3113 74.6753 28.4513 75.842C28.5726 76.9807 28.6426 77.5827 28.6613 77.648V77.704H28.1573H27.6533L27.6253 77.466C27.5413 76.8593 27.4293 76.3973 27.2893 76.08C27 75.492 26.4633 75.142 25.6793 75.03C25.4273 75.002 24.956 74.988 24.2653 74.988H23.3833V76.514V78.054H23.6353C24.0646 78.054 24.3773 78.0027 24.5733 77.9C24.732 77.8347 24.8486 77.732 24.9233 77.592C25.054 77.3773 25.1193 77.046 25.1193 76.598V76.416H25.6233H26.1273V78.558V80.7H25.6233H25.1193V80.518C25.1193 80.07 25.054 79.7387 24.9233 79.524C24.8486 79.384 24.732 79.2813 24.5733 79.216C24.3773 79.1133 24.0646 79.062 23.6353 79.062H23.3833V80.77V82.492H24.2933C24.956 82.492 25.3293 82.4873 25.4133 82.478C26.3653 82.4127 27.0373 82.1047 27.4293 81.554C27.476 81.498 27.5366 81.3907 27.6113 81.232C27.7793 80.9053 27.924 80.392 28.0453 79.692C28.064 79.5053 28.0826 79.3933 28.1013 79.356V79.314H28.6053H29.1093V79.356C29.1 79.3747 28.9926 80.056 28.7873 81.4C28.582 82.7533 28.4746 83.4393 28.4653 83.458V83.5H23.9993H19.5333V82.996V82.492H20.2893H21.0453V78.74V74.988H20.2893H19.5333V74.484ZM30.1153 74.4V73.896H33.2093C35.328 73.896 36.4293 73.9007 36.5133 73.91C37.288 73.966 37.9787 74.148 38.5853 74.456C39.78 75.0627 40.536 76.052 40.8533 77.424C40.872 77.5267 40.8907 77.6293 40.9093 77.732C41.068 78.6373 41.0307 79.4913 40.7973 80.294C40.4427 81.5073 39.724 82.3847 38.6413 82.926C38.128 83.1967 37.5073 83.3787 36.7793 83.472C36.6767 83.4813 35.5333 83.4907 33.3493 83.5H30.1153V82.996V82.492H30.8713H31.6273V78.698V74.904H30.8713H30.1153V74.4ZM35.8553 74.918C35.79 74.9087 35.4307 74.904 34.7773 74.904H33.8813V78.698V82.492H34.9033C35.6407 82.4827 36.042 82.4733 36.1073 82.464C36.9193 82.3613 37.5353 82.0767 37.9553 81.61C38.31 81.2087 38.5153 80.5927 38.5713 79.762C38.6087 79.0153 38.6087 78.32 38.5713 77.676C38.562 77.6293 38.5573 77.592 38.5573 77.564C38.464 76.5187 38.0953 75.7907 37.4513 75.38C37.3673 75.3333 37.2787 75.2867 37.1853 75.24C36.8307 75.072 36.3873 74.9647 35.8553 74.918ZM42.195 74.4V73.896H42.391L43.763 73.924C44.5657 73.9333 45.3637 73.9333 46.157 73.924L47.543 73.896H47.725V74.4V74.904H46.927H46.129V78.698V82.492H46.927H47.725V82.996V83.5H47.529L46.157 83.472C45.3637 83.4627 44.5657 83.4627 43.763 83.472L42.377 83.5H42.195V82.996V82.492H42.993H43.791V78.698V74.904H42.993H42.195V74.4ZM48.8807 74.134V74.05H53.5987H58.3307V74.134L58.4847 75.912C58.5687 77.0787 58.6154 77.6713 58.6247 77.69V77.774H58.1207C57.7847 77.774 57.6167 77.7693 57.6167 77.76C57.6167 77.5733 57.5934 77.3307 57.5467 77.032C57.4907 76.612 57.4114 76.2667 57.3087 75.996C57.1687 75.6693 56.9307 75.4267 56.5947 75.268C56.4547 75.1933 56.268 75.1373 56.0347 75.1C55.9507 75.0813 55.7127 75.0673 55.3207 75.058H54.7747V78.768V82.492H55.8527H56.9167V82.996V83.5H56.6927L55.0407 83.472C54.0794 83.4627 53.1227 83.4627 52.1707 83.472L50.5187 83.5H50.2947V82.996V82.492H51.3727H52.4367V78.768V75.058H51.8907C51.4987 75.0673 51.2607 75.0813 51.1767 75.1C50.738 75.184 50.402 75.3473 50.1687 75.59C50.0194 75.7393 49.898 75.9633 49.8047 76.262C49.73 76.5327 49.6694 76.948 49.6227 77.508C49.604 77.6667 49.5947 77.7507 49.5947 77.76C49.5947 77.7693 49.4267 77.774 49.0907 77.774H48.5867V77.69L48.7407 75.912C48.8247 74.7453 48.8714 74.1527 48.8807 74.134ZM59.49 74.4V73.896H59.686L61.058 73.924C61.8606 73.9333 62.6586 73.9333 63.452 73.924L64.838 73.896H65.02V74.4V74.904H64.222H63.424V78.698V82.492H64.222H65.02V82.996V83.5H64.824L63.452 83.472C62.6586 83.4627 61.8606 83.4627 61.058 83.472L59.672 83.5H59.49V82.996V82.492H60.288H61.086V78.698V74.904H60.288H59.49V74.4ZM70.8796 73.756C71.1876 73.7373 71.575 73.742 72.0416 73.77C73.311 73.91 74.333 74.3627 75.1076 75.128C75.8636 75.884 76.3163 76.878 76.4656 78.11C76.503 78.4833 76.503 78.8893 76.4656 79.328C76.4656 79.3467 76.4656 79.3653 76.4656 79.384C76.3256 80.5507 75.8963 81.5027 75.1776 82.24C74.8323 82.576 74.4403 82.856 74.0016 83.08C73.423 83.36 72.7696 83.542 72.0416 83.626C71.6496 83.6633 71.211 83.6633 70.7256 83.626C70.6976 83.626 70.6743 83.626 70.6556 83.626C69.3303 83.4673 68.2896 83.0053 67.5336 82.24C66.8056 81.512 66.3716 80.56 66.2316 79.384C66.1943 79.0293 66.1943 78.628 66.2316 78.18C66.2316 78.152 66.2316 78.1287 66.2316 78.11C66.3063 77.55 66.423 77.074 66.5816 76.682C67.0016 75.6087 67.7063 74.8293 68.6956 74.344C69.3303 74.0173 70.0583 73.8213 70.8796 73.756ZM71.6356 74.666C70.8516 74.582 70.1843 74.792 69.6336 75.296C69.503 75.4173 69.3863 75.5527 69.2836 75.702C69.0316 76.0847 68.859 76.5607 68.7656 77.13C68.6723 77.8113 68.6583 78.6233 68.7236 79.566C68.733 79.65 68.7423 79.7293 68.7516 79.804C68.8543 80.8773 69.1903 81.6567 69.7596 82.142C70.3756 82.6553 71.0756 82.828 71.8596 82.66C72.261 82.576 72.6203 82.4033 72.9376 82.142C73.507 81.6567 73.843 80.8773 73.9456 79.804C74.039 79.02 74.0436 78.1893 73.9596 77.312C73.9503 77.2467 73.941 77.186 73.9316 77.13C73.8663 76.7287 73.7543 76.3553 73.5956 76.01C73.2036 75.2167 72.5503 74.7687 71.6356 74.666ZM77.9532 74.4V73.896H79.8852H81.8312L81.8872 73.924C81.9152 73.9333 82.7412 74.9367 84.3652 76.934C86.0172 78.9687 86.8292 79.972 86.8012 79.944L86.8432 79.986V77.452V74.904H86.0872H85.3312V74.4V73.896H85.4712L86.4932 73.924C87.0906 73.9333 87.6879 73.9333 88.2852 73.924C88.9572 73.9053 89.2979 73.896 89.3072 73.896H89.4472V74.4V74.904H88.6912H87.9352V79.104C87.9352 81.8947 87.9259 83.3087 87.9072 83.346C87.8886 83.402 87.8512 83.444 87.7952 83.472C87.7579 83.4907 87.6226 83.5 87.3892 83.5C87.1559 83.5 87.0206 83.4907 86.9832 83.472C86.9646 83.4627 85.8959 82.1607 83.7772 79.566C81.6399 76.906 80.5806 75.5947 80.5992 75.632L80.5572 75.59V79.034V82.492H81.3132H82.0692V82.996V83.5H81.9292C81.9386 83.5 81.5979 83.4907 80.9072 83.472C80.3099 83.4627 79.7126 83.4627 79.1152 83.472C78.4246 83.4907 78.0839 83.5 78.0932 83.5H77.9532V82.996V82.492H78.7092H79.4652V78.698V74.904H78.7092H77.9532V74.4Z" fill="black"/>
</svg>
