<svg width="108" height="107" viewBox="0 0 108 107" fill="none" xmlns="http://www.w3.org/2000/svg">
<ellipse cx="54" cy="53.5" rx="54" ry="53.5" fill="white"/>
<path d="M54 2C82.7364 2 106 25.0748 106 53.5C106 81.9252 82.7364 105 54 105C25.2636 105 2 81.9252 2 53.5C2 25.0748 25.2636 2 54 2Z" stroke="black" stroke-width="4"/>
<path d="M54 6C80.5194 6 102 27.2761 102 53.5C102 79.7239 80.5194 101 54 101C27.4806 101 6 79.7239 6 53.5C6 27.2761 27.4806 6 54 6Z" stroke="black" stroke-width="2"/>
<path d="M35 17.5L35 37.5" stroke="black" stroke-width="2" stroke-linecap="round"/>
<path d="M34.9983 37.5002L35.5002 36.9995L36.9983 36.5002L38.497 36.4999L40.9994 36.5L43.5001 36.4999L45.5 36.5L47 37L48.5 37.5L49.5 38L50.5 38.5L51.5002 38.9995L52.5002 39.4995L53.5002 39.9995" stroke="black" stroke-width="2"/>
<path d="M61.4999 37L61.7278 37.9737L61.7351 37.972L61.7424 37.9702L61.4999 37ZM58.5118 37.9322L58.1498 37L57.9282 37.0861L57.769 37.2626L58.5118 37.9322ZM60.0202 37.3464L59.7923 36.3728L59.7238 36.3888L59.6582 36.4143L60.0202 37.3464ZM63.4999 36.5L63.4999 35.5L63.3768 35.5L63.2573 35.5299L63.4999 36.5ZM66.4997 36.5001L66.4997 35.5001L66.4997 35.5001L66.4997 36.5001ZM68.4995 36.5001L68.4995 37.5001L68.4996 37.5001L68.4995 36.5001ZM70.4994 36.5001L70.8156 35.5514L70.6617 35.5001L70.4994 35.5001L70.4994 36.5001ZM71.9994 37.0001L71.6832 37.9488L71.8371 38.0001L71.9994 38.0001L71.9994 37.0001ZM73.4999 28.5001L72.4999 28.5001L72.4999 28.5001L73.4999 28.5001ZM74.5 17C74.5 16.4477 74.0523 16 73.5 16C72.9477 16 72.5 16.4477 72.5 16.9999L74.5 17ZM72.9998 37.0001L72.9999 38.0001L73.414 38L73.7069 37.7072L72.9998 37.0001ZM73.4998 35.0001L72.4998 35.0001L72.4998 35.0001L73.4998 35.0001ZM73.4998 36.5001L74.2069 37.2072L74.4998 36.9143L74.4998 36.5001L73.4998 36.5001ZM57.9999 38.5L58.7426 39.1696L59.2545 38.6018L58.5118 37.9322L57.769 37.2626L57.2571 37.8304L57.9999 38.5ZM58.5118 37.9322L58.8738 38.8644L60.3822 38.2786L60.0202 37.3464L59.6582 36.4143L58.1498 37L58.5118 37.9322ZM60.0202 37.3464L60.2481 38.3201L61.7278 37.9737L61.4999 37L61.2719 36.0264L59.7923 36.3728L60.0202 37.3464ZM61.4999 37L61.7424 37.9702L63.7424 37.4702L63.4999 36.5L63.2573 35.5299L61.2573 36.0299L61.4999 37ZM63.4999 36.5L63.4998 37.5L66.4997 37.5001L66.4997 36.5001L66.4997 35.5001L63.4999 35.5L63.4999 36.5ZM66.4997 36.5001L66.4997 37.5001L68.4995 37.5001L68.4995 36.5001L68.4996 35.5001L66.4997 35.5001L66.4997 36.5001ZM68.4995 36.5001L68.4996 37.5001L70.4994 37.5001L70.4994 36.5001L70.4994 35.5001L68.4995 35.5001L68.4995 36.5001ZM70.4994 36.5001L70.1832 37.4488L71.6832 37.9488L71.9994 37.0001L72.3156 36.0514L70.8156 35.5514L70.4994 36.5001ZM73.4999 28.5001L74.4999 28.5001L74.5 17L73.5 17L72.5 16.9999L72.4999 28.5001L73.4999 28.5001ZM71.9994 37.0001L71.9994 38.0001L72.9999 38.0001L72.9998 37.0001L72.9998 36.0001L71.9993 36.0001L71.9994 37.0001ZM73.4998 35.0001L74.4998 35.0001L74.4999 28.5001L73.4999 28.5001L72.4999 28.5001L72.4998 35.0001L73.4998 35.0001ZM72.9998 37.0001L73.7069 37.7072L74.2069 37.2072L73.4998 36.5001L72.7927 35.793L72.2927 36.293L72.9998 37.0001ZM73.4998 36.5001L74.4998 36.5001L74.4998 35.0001L73.4998 35.0001L72.4998 35.0001L72.4998 36.5001L73.4998 36.5001Z" fill="black"/>
<path d="M51.5 39L53.5 40H55H56.5L58.5 38" stroke="black" stroke-width="2"/>
<path d="M37.5 15L38 14.5H39H43.5H47L48.5 15L50.5 16.5L52 17.5L53 19V34.5V36.5L52 36L51 35.5L49 34.5L47.5 34L46 33.5L37.5 33V15Z" fill="black"/>
<path d="M70.5 15L70 14.5H69H64.5H61L59.5 15L57.5 16.5L56 17.5L55 19V34.5V36.5L56 36L57 35.5L59 34.5L60.5 34L62 33.5L70.5 33V15Z" fill="black"/>
<path d="M53 36.5V19L52.5 18L51.5 17L50 16L48.5 15L47 14.5H45H38.5L38 14.5L37.5 15V15.5V33.5" stroke="black" stroke-width="0.5"/>
<path d="M37.5 32.5L37.5001 33.25H44.5H45.3167L46.5 33.5L49 34.5L52.5 36.5H53V35.5" stroke="black" stroke-width="0.5"/>
<path d="M55 36.5V19L55.5 18L56.5 17L58 16L59.5 15L61 14.5H63H69.5L70 14.5L70.5 15V15.5V33.5" stroke="black" stroke-width="0.5"/>
<path d="M70.5 32.5L70.4999 33.25H63.5H62.6833L61.5 33.5L59 34.5L55.5 36.5H55V35.5" stroke="black" stroke-width="0.5"/>
<path d="M27.7008 70.31L27.2508 69.95L26.9358 68.465C28.6158 67.955 30.2358 67.37 31.7958 66.71C33.3858 66.05 34.9158 65.285 36.3858 64.415C37.2858 63.215 37.9908 61.7 38.5008 59.87C39.0408 58.01 39.3108 56.105 39.3108 54.155C39.3108 53.225 39.2358 52.31 39.0858 51.41C38.9358 50.48 38.7108 49.595 38.4108 48.755C38.1108 47.915 37.7208 47.15 37.2408 46.46C36.8508 46.13 36.3408 45.815 35.7108 45.515C35.1108 45.185 34.5108 44.915 33.9108 44.705C33.3408 44.495 32.9058 44.39 32.6058 44.39C32.0958 44.54 31.5708 44.75 31.0308 45.02C30.5208 45.26 30.0108 45.575 29.5008 45.965C29.3208 46.535 29.1708 47.12 29.0508 47.72C28.9608 48.32 28.9158 48.92 28.9158 49.52C28.9158 50.63 29.0958 51.725 29.4558 52.805C29.8158 53.885 30.3408 54.77 31.0308 55.46C31.3308 55.55 31.8408 55.625 32.5608 55.685C33.2808 55.745 34.0308 55.79 34.8108 55.82C35.5908 55.82 36.2208 55.82 36.7008 55.82L37.1508 56.18L37.0608 57.35C36.5208 57.53 35.7708 57.74 34.8108 57.98C33.8808 58.22 32.9358 58.43 31.9758 58.61C31.0158 58.76 30.2658 58.835 29.7258 58.835C29.3658 58.715 28.9308 58.55 28.4208 58.34C27.9108 58.1 27.3858 57.755 26.8458 57.305C26.3358 56.855 25.9008 56.24 25.5408 55.46C25.2108 54.68 25.0458 53.69 25.0458 52.49C25.0458 51.2 25.2708 49.955 25.7208 48.755C26.2008 47.525 26.8458 46.385 27.6558 45.335C28.4958 44.285 29.4258 43.4 30.4458 42.68C30.9858 42.41 31.6008 42.2 32.2908 42.05C33.0108 41.87 33.7158 41.78 34.4058 41.78C35.3058 41.78 36.2808 41.99 37.3308 42.41C38.3808 42.8 39.3858 43.415 40.3458 44.255C41.3358 45.095 42.1308 46.16 42.7308 47.45C43.3608 48.74 43.6758 50.285 43.6758 52.085C43.6758 54.185 43.4508 56.15 43.0008 57.98C42.5508 59.81 41.9358 61.52 41.1558 63.11C40.2558 64.1 39.2958 64.97 38.2758 65.72C37.2858 66.5 36.2208 67.175 35.0808 67.745C33.9708 68.345 32.8008 68.855 31.5708 69.275C30.3408 69.695 29.0508 70.04 27.7008 70.31Z" fill="black"/>
<path d="M49.2599 54.62C51.2199 54.54 52.1699 54.5 52.1099 54.5H52.2899V55.61V56.72L52.5299 56.48C53.0299 55.96 53.6299 55.54 54.3299 55.22C54.9099 54.9 55.5899 54.68 56.3699 54.56C56.8699 54.48 57.5599 54.47 58.4399 54.53C58.5199 54.55 58.5899 54.56 58.6499 54.56C60.1899 54.74 61.2299 55.39 61.7699 56.51C61.8899 56.75 61.9999 57.12 62.0999 57.62C62.1399 57.84 62.1699 59.27 62.1899 61.91V65.84H63.2399H64.2599V66.92V68H63.9899L61.8899 67.94C60.6899 67.92 59.4899 67.92 58.2899 67.94C56.8899 67.98 56.1999 68 56.2199 68H55.9499V66.92V65.84H56.9999H58.0199V62.09C58.0199 59.49 58.0099 58.13 57.9899 58.01C57.8899 56.99 57.4599 56.43 56.6999 56.33C56.5599 56.33 56.3999 56.33 56.2199 56.33C55.2599 56.39 54.4399 56.76 53.7599 57.44C53.2799 57.92 52.9599 58.45 52.7999 59.03C52.6799 59.37 52.6199 60.23 52.6199 61.61C52.6199 61.85 52.6199 62.27 52.6199 62.87V65.84H53.6699H54.6899V66.92V68H54.4199L52.3199 67.94C51.1199 67.92 49.9199 67.92 48.7199 67.94C47.3199 67.98 46.6299 68 46.6499 68H46.3799V66.92V65.84H47.4299H48.4499V61.7C48.4499 58.94 48.4299 57.51 48.3899 57.41C48.3299 57.21 48.1999 57.08 47.9999 57.02C47.7199 56.94 47.3099 56.9 46.7699 56.9H46.3799V55.82V54.74H46.4699C46.3699 54.74 47.2999 54.7 49.2599 54.62Z" fill="black"/>
<path d="M70.8711 54.44L73.3311 54.47C75.9511 54.77 77.6211 55.76 78.3411 57.44C78.4211 57.62 78.4811 57.8 78.5211 57.98L78.6111 58.31L78.6411 61.91C78.6411 64.25 78.6611 65.46 78.7011 65.54C78.8611 65.7 79.2911 65.8 79.9911 65.84C80.3111 65.84 80.5411 65.88 80.6811 65.96C80.8011 66.08 80.8611 66.4 80.8611 66.92C80.8611 67.44 80.7911 67.76 80.6511 67.88C80.4511 67.96 79.8111 68 78.7311 68C77.5311 67.98 76.7411 67.91 76.3611 67.79C75.7411 67.59 75.3411 67.28 75.1611 66.86C75.0811 66.7 75.0411 66.61 75.0411 66.59C75.0411 66.57 74.9511 66.62 74.7711 66.74C73.8911 67.44 72.7111 67.9 71.2311 68.12C70.4511 68.2 69.8411 68.21 69.4011 68.15C67.6011 67.95 66.3311 67.21 65.5911 65.93C65.4111 65.63 65.2811 65.32 65.2011 65C65.1411 64.78 65.1111 64.5 65.1111 64.16C65.1111 63.68 65.1911 63.27 65.3511 62.93C65.5911 62.45 65.9211 62.04 66.3411 61.7C67.0411 61.16 67.9311 60.74 69.0111 60.44C70.3311 60.04 71.9011 59.8 73.7211 59.72L74.4711 59.69V59.15L74.4411 58.37V58.34C74.3211 57.5 73.9111 56.91 73.2111 56.57C72.7711 56.35 72.2011 56.24 71.5011 56.24C70.6811 56.24 70.2511 56.26 70.2111 56.3L70.3011 56.48C70.4611 56.76 70.5311 57.12 70.5111 57.56C70.5111 57.88 70.4911 58.11 70.4511 58.25C70.3311 58.61 70.1511 58.91 69.9111 59.15C69.6511 59.41 69.3411 59.6 68.9811 59.72C68.8211 59.76 68.5911 59.78 68.2911 59.78C67.9911 59.78 67.7711 59.76 67.6311 59.72C67.2511 59.6 66.9311 59.41 66.6711 59.15C66.4311 58.91 66.2511 58.61 66.1311 58.25C66.0911 58.11 66.0711 57.88 66.0711 57.56C66.0711 57.24 66.0911 57.01 66.1311 56.87C66.4311 55.77 67.4011 55.04 69.0411 54.68C69.5811 54.56 70.1911 54.48 70.8711 54.44ZM74.4711 62.93C74.4711 61.89 74.4611 61.37 74.4411 61.37C74.4211 61.37 74.3711 61.38 74.2911 61.4C73.1111 61.48 72.0811 61.69 71.2011 62.03C70.2611 62.41 69.6711 62.94 69.4311 63.62C69.3311 63.9 69.3211 64.26 69.4011 64.7C69.6011 65.5 70.0611 66.02 70.7811 66.26C70.8211 66.28 70.8711 66.3 70.9311 66.32C71.6711 66.44 72.4511 66.29 73.2711 65.87C73.3311 65.85 73.3911 65.82 73.4511 65.78C73.8311 65.54 74.1011 65.27 74.2611 64.97C74.3811 64.73 74.4511 64.33 74.4711 63.77V62.93Z" fill="black"/>
<path d="M19.5333 74.484V73.98H23.8733H28.2273V74.036C28.2366 74.0733 28.3113 74.6753 28.4513 75.842C28.5726 76.9807 28.6426 77.5827 28.6613 77.648V77.704H28.1573H27.6533L27.6253 77.466C27.5413 76.8593 27.4293 76.3973 27.2893 76.08C27 75.492 26.4633 75.142 25.6793 75.03C25.4273 75.002 24.956 74.988 24.2653 74.988H23.3833V76.514V78.054H23.6353C24.0646 78.054 24.3773 78.0027 24.5733 77.9C24.732 77.8347 24.8486 77.732 24.9233 77.592C25.054 77.3773 25.1193 77.046 25.1193 76.598V76.416H25.6233H26.1273V78.558V80.7H25.6233H25.1193V80.518C25.1193 80.07 25.054 79.7387 24.9233 79.524C24.8486 79.384 24.732 79.2813 24.5733 79.216C24.3773 79.1133 24.0646 79.062 23.6353 79.062H23.3833V80.77V82.492H24.2933C24.956 82.492 25.3293 82.4873 25.4133 82.478C26.3653 82.4127 27.0373 82.1047 27.4293 81.554C27.476 81.498 27.5366 81.3907 27.6113 81.232C27.7793 80.9053 27.924 80.392 28.0453 79.692C28.064 79.5053 28.0826 79.3933 28.1013 79.356V79.314H28.6053H29.1093V79.356C29.1 79.3747 28.9926 80.056 28.7873 81.4C28.582 82.7533 28.4746 83.4393 28.4653 83.458V83.5H23.9993H19.5333V82.996V82.492H20.2893H21.0453V78.74V74.988H20.2893H19.5333V74.484ZM30.1153 74.4V73.896H33.2093C35.328 73.896 36.4293 73.9007 36.5133 73.91C37.288 73.966 37.9787 74.148 38.5853 74.456C39.78 75.0627 40.536 76.052 40.8533 77.424C40.872 77.5267 40.8907 77.6293 40.9093 77.732C41.068 78.6373 41.0307 79.4913 40.7973 80.294C40.4427 81.5073 39.724 82.3847 38.6413 82.926C38.128 83.1967 37.5073 83.3787 36.7793 83.472C36.6767 83.4813 35.5333 83.4907 33.3493 83.5H30.1153V82.996V82.492H30.8713H31.6273V78.698V74.904H30.8713H30.1153V74.4ZM35.8553 74.918C35.79 74.9087 35.4307 74.904 34.7773 74.904H33.8813V78.698V82.492H34.9033C35.6407 82.4827 36.042 82.4733 36.1073 82.464C36.9193 82.3613 37.5353 82.0767 37.9553 81.61C38.31 81.2087 38.5153 80.5927 38.5713 79.762C38.6087 79.0153 38.6087 78.32 38.5713 77.676C38.562 77.6293 38.5573 77.592 38.5573 77.564C38.464 76.5187 38.0953 75.7907 37.4513 75.38C37.3673 75.3333 37.2787 75.2867 37.1853 75.24C36.8307 75.072 36.3873 74.9647 35.8553 74.918ZM42.195 74.4V73.896H42.391L43.763 73.924C44.5657 73.9333 45.3637 73.9333 46.157 73.924L47.543 73.896H47.725V74.4V74.904H46.927H46.129V78.698V82.492H46.927H47.725V82.996V83.5H47.529L46.157 83.472C45.3637 83.4627 44.5657 83.4627 43.763 83.472L42.377 83.5H42.195V82.996V82.492H42.993H43.791V78.698V74.904H42.993H42.195V74.4ZM48.8807 74.134V74.05H53.5987H58.3307V74.134L58.4847 75.912C58.5687 77.0787 58.6154 77.6713 58.6247 77.69V77.774H58.1207C57.7847 77.774 57.6167 77.7693 57.6167 77.76C57.6167 77.5733 57.5934 77.3307 57.5467 77.032C57.4907 76.612 57.4114 76.2667 57.3087 75.996C57.1687 75.6693 56.9307 75.4267 56.5947 75.268C56.4547 75.1933 56.268 75.1373 56.0347 75.1C55.9507 75.0813 55.7127 75.0673 55.3207 75.058H54.7747V78.768V82.492H55.8527H56.9167V82.996V83.5H56.6927L55.0407 83.472C54.0794 83.4627 53.1227 83.4627 52.1707 83.472L50.5187 83.5H50.2947V82.996V82.492H51.3727H52.4367V78.768V75.058H51.8907C51.4987 75.0673 51.2607 75.0813 51.1767 75.1C50.738 75.184 50.402 75.3473 50.1687 75.59C50.0194 75.7393 49.898 75.9633 49.8047 76.262C49.73 76.5327 49.6694 76.948 49.6227 77.508C49.604 77.6667 49.5947 77.7507 49.5947 77.76C49.5947 77.7693 49.4267 77.774 49.0907 77.774H48.5867V77.69L48.7407 75.912C48.8247 74.7453 48.8714 74.1527 48.8807 74.134ZM59.49 74.4V73.896H59.686L61.058 73.924C61.8606 73.9333 62.6586 73.9333 63.452 73.924L64.838 73.896H65.02V74.4V74.904H64.222H63.424V78.698V82.492H64.222H65.02V82.996V83.5H64.824L63.452 83.472C62.6586 83.4627 61.8606 83.4627 61.058 83.472L59.672 83.5H59.49V82.996V82.492H60.288H61.086V78.698V74.904H60.288H59.49V74.4ZM70.8796 73.756C71.1876 73.7373 71.575 73.742 72.0416 73.77C73.311 73.91 74.333 74.3627 75.1076 75.128C75.8636 75.884 76.3163 76.878 76.4656 78.11C76.503 78.4833 76.503 78.8893 76.4656 79.328C76.4656 79.3467 76.4656 79.3653 76.4656 79.384C76.3256 80.5507 75.8963 81.5027 75.1776 82.24C74.8323 82.576 74.4403 82.856 74.0016 83.08C73.423 83.36 72.7696 83.542 72.0416 83.626C71.6496 83.6633 71.211 83.6633 70.7256 83.626C70.6976 83.626 70.6743 83.626 70.6556 83.626C69.3303 83.4673 68.2896 83.0053 67.5336 82.24C66.8056 81.512 66.3716 80.56 66.2316 79.384C66.1943 79.0293 66.1943 78.628 66.2316 78.18C66.2316 78.152 66.2316 78.1287 66.2316 78.11C66.3063 77.55 66.423 77.074 66.5816 76.682C67.0016 75.6087 67.7063 74.8293 68.6956 74.344C69.3303 74.0173 70.0583 73.8213 70.8796 73.756ZM71.6356 74.666C70.8516 74.582 70.1843 74.792 69.6336 75.296C69.503 75.4173 69.3863 75.5527 69.2836 75.702C69.0316 76.0847 68.859 76.5607 68.7656 77.13C68.6723 77.8113 68.6583 78.6233 68.7236 79.566C68.733 79.65 68.7423 79.7293 68.7516 79.804C68.8543 80.8773 69.1903 81.6567 69.7596 82.142C70.3756 82.6553 71.0756 82.828 71.8596 82.66C72.261 82.576 72.6203 82.4033 72.9376 82.142C73.507 81.6567 73.843 80.8773 73.9456 79.804C74.039 79.02 74.0436 78.1893 73.9596 77.312C73.9503 77.2467 73.941 77.186 73.9316 77.13C73.8663 76.7287 73.7543 76.3553 73.5956 76.01C73.2036 75.2167 72.5503 74.7687 71.6356 74.666ZM77.9532 74.4V73.896H79.8852H81.8312L81.8872 73.924C81.9152 73.9333 82.7412 74.9367 84.3652 76.934C86.0172 78.9687 86.8292 79.972 86.8012 79.944L86.8432 79.986V77.452V74.904H86.0872H85.3312V74.4V73.896H85.4712L86.4932 73.924C87.0906 73.9333 87.6879 73.9333 88.2852 73.924C88.9572 73.9053 89.2979 73.896 89.3072 73.896H89.4472V74.4V74.904H88.6912H87.9352V79.104C87.9352 81.8947 87.9259 83.3087 87.9072 83.346C87.8886 83.402 87.8512 83.444 87.7952 83.472C87.7579 83.4907 87.6226 83.5 87.3892 83.5C87.1559 83.5 87.0206 83.4907 86.9832 83.472C86.9646 83.4627 85.8959 82.1607 83.7772 79.566C81.6399 76.906 80.5806 75.5947 80.5992 75.632L80.5572 75.59V79.034V82.492H81.3132H82.0692V82.996V83.5H81.9292C81.9386 83.5 81.5979 83.4907 80.9072 83.472C80.3099 83.4627 79.7126 83.4627 79.1152 83.472C78.4246 83.4907 78.0839 83.5 78.0932 83.5H77.9532V82.996V82.492H78.7092H79.4652V78.698V74.904H78.7092H77.9532V74.4Z" fill="black"/>
</svg>
