<svg width="108" height="107" viewBox="0 0 108 107" fill="none" xmlns="http://www.w3.org/2000/svg">
<ellipse cx="54" cy="53.5" rx="54" ry="53.5" fill="white"/>
<path d="M54 2C82.7364 2 106 25.0748 106 53.5C106 81.9252 82.7364 105 54 105C25.2636 105 2 81.9252 2 53.5C2 25.0748 25.2636 2 54 2Z" stroke="black" stroke-width="4"/>
<path d="M54 6C80.5194 6 102 27.2761 102 53.5C102 79.7239 80.5194 101 54 101C27.4806 101 6 79.7239 6 53.5C6 27.2761 27.4806 6 54 6Z" stroke="black" stroke-width="2"/>
<path d="M35 17.5L35 37.5" stroke="black" stroke-width="2" stroke-linecap="round"/>
<path d="M34.9983 37.5002L35.5002 36.9995L36.9983 36.5002L38.497 36.4999L40.9994 36.5L43.5001 36.4999L45.5 36.5L47 37L48.5 37.5L49.5 38L50.5 38.5L51.5002 38.9995L52.5002 39.4995L53.5002 39.9995" stroke="black" stroke-width="2"/>
<path d="M61.4999 37L61.7278 37.9737L61.7351 37.972L61.7424 37.9702L61.4999 37ZM58.5118 37.9322L58.1498 37L57.9282 37.0861L57.769 37.2626L58.5118 37.9322ZM60.0202 37.3464L59.7923 36.3728L59.7238 36.3888L59.6582 36.4143L60.0202 37.3464ZM63.4999 36.5L63.4999 35.5L63.3768 35.5L63.2573 35.5299L63.4999 36.5ZM66.4997 36.5001L66.4997 35.5001L66.4997 35.5001L66.4997 36.5001ZM68.4995 36.5001L68.4995 37.5001L68.4996 37.5001L68.4995 36.5001ZM70.4994 36.5001L70.8156 35.5514L70.6617 35.5001L70.4994 35.5001L70.4994 36.5001ZM71.9994 37.0001L71.6832 37.9488L71.8371 38.0001L71.9994 38.0001L71.9994 37.0001ZM73.4999 28.5001L72.4999 28.5001L72.4999 28.5001L73.4999 28.5001ZM74.5 17C74.5 16.4477 74.0523 16 73.5 16C72.9477 16 72.5 16.4477 72.5 16.9999L74.5 17ZM72.9998 37.0001L72.9999 38.0001L73.414 38L73.7069 37.7072L72.9998 37.0001ZM73.4998 35.0001L72.4998 35.0001L72.4998 35.0001L73.4998 35.0001ZM73.4998 36.5001L74.2069 37.2072L74.4998 36.9143L74.4998 36.5001L73.4998 36.5001ZM57.9999 38.5L58.7426 39.1696L59.2545 38.6018L58.5118 37.9322L57.769 37.2626L57.2571 37.8304L57.9999 38.5ZM58.5118 37.9322L58.8738 38.8644L60.3822 38.2786L60.0202 37.3464L59.6582 36.4143L58.1498 37L58.5118 37.9322ZM60.0202 37.3464L60.2481 38.3201L61.7278 37.9737L61.4999 37L61.2719 36.0264L59.7923 36.3728L60.0202 37.3464ZM61.4999 37L61.7424 37.9702L63.7424 37.4702L63.4999 36.5L63.2573 35.5299L61.2573 36.0299L61.4999 37ZM63.4999 36.5L63.4998 37.5L66.4997 37.5001L66.4997 36.5001L66.4997 35.5001L63.4999 35.5L63.4999 36.5ZM66.4997 36.5001L66.4997 37.5001L68.4995 37.5001L68.4995 36.5001L68.4996 35.5001L66.4997 35.5001L66.4997 36.5001ZM68.4995 36.5001L68.4996 37.5001L70.4994 37.5001L70.4994 36.5001L70.4994 35.5001L68.4995 35.5001L68.4995 36.5001ZM70.4994 36.5001L70.1832 37.4488L71.6832 37.9488L71.9994 37.0001L72.3156 36.0514L70.8156 35.5514L70.4994 36.5001ZM73.4999 28.5001L74.4999 28.5001L74.5 17L73.5 17L72.5 16.9999L72.4999 28.5001L73.4999 28.5001ZM71.9994 37.0001L71.9994 38.0001L72.9999 38.0001L72.9998 37.0001L72.9998 36.0001L71.9993 36.0001L71.9994 37.0001ZM73.4998 35.0001L74.4998 35.0001L74.4999 28.5001L73.4999 28.5001L72.4999 28.5001L72.4998 35.0001L73.4998 35.0001ZM72.9998 37.0001L73.7069 37.7072L74.2069 37.2072L73.4998 36.5001L72.7927 35.793L72.2927 36.293L72.9998 37.0001ZM73.4998 36.5001L74.4998 36.5001L74.4998 35.0001L73.4998 35.0001L72.4998 35.0001L72.4998 36.5001L73.4998 36.5001Z" fill="black"/>
<path d="M51.5 39L53.5 40H55H56.5L58.5 38" stroke="black" stroke-width="2"/>
<path d="M37.5 15L38 14.5H39H43.5H47L48.5 15L50.5 16.5L52 17.5L53 19V34.5V36.5L52 36L51 35.5L49 34.5L47.5 34L46 33.5L37.5 33V15Z" fill="black"/>
<path d="M70.5 15L70 14.5H69H64.5H61L59.5 15L57.5 16.5L56 17.5L55 19V34.5V36.5L56 36L57 35.5L59 34.5L60.5 34L62 33.5L70.5 33V15Z" fill="black"/>
<path d="M53 36.5V19L52.5 18L51.5 17L50 16L48.5 15L47 14.5H45H38.5L38 14.5L37.5 15V15.5V33.5" stroke="black" stroke-width="0.5"/>
<path d="M37.5 32.5L37.5001 33.25H44.5H45.3167L46.5 33.5L49 34.5L52.5 36.5H53V35.5" stroke="black" stroke-width="0.5"/>
<path d="M55 36.5V19L55.5 18L56.5 17L58 16L59.5 15L61 14.5H63H69.5L70 14.5L70.5 15V15.5V33.5" stroke="black" stroke-width="0.5"/>
<path d="M70.5 32.5L70.4999 33.25H63.5H62.6833L61.5 33.5L59 34.5L55.5 36.5H55V35.5" stroke="black" stroke-width="0.5"/>
<path d="M19.5333 74.484V73.98H23.8733H28.2273V74.036C28.2366 74.0733 28.3113 74.6753 28.4513 75.842C28.5726 76.9807 28.6426 77.5827 28.6613 77.648V77.704H28.1573H27.6533L27.6253 77.466C27.5413 76.8593 27.4293 76.3973 27.2893 76.08C27 75.492 26.4633 75.142 25.6793 75.03C25.4273 75.002 24.956 74.988 24.2653 74.988H23.3833V76.514V78.054H23.6353C24.0646 78.054 24.3773 78.0027 24.5733 77.9C24.732 77.8347 24.8486 77.732 24.9233 77.592C25.054 77.3773 25.1193 77.046 25.1193 76.598V76.416H25.6233H26.1273V78.558V80.7H25.6233H25.1193V80.518C25.1193 80.07 25.054 79.7387 24.9233 79.524C24.8486 79.384 24.732 79.2813 24.5733 79.216C24.3773 79.1133 24.0646 79.062 23.6353 79.062H23.3833V80.77V82.492H24.2933C24.956 82.492 25.3293 82.4873 25.4133 82.478C26.3653 82.4127 27.0373 82.1047 27.4293 81.554C27.476 81.498 27.5366 81.3907 27.6113 81.232C27.7793 80.9053 27.924 80.392 28.0453 79.692C28.064 79.5053 28.0826 79.3933 28.1013 79.356V79.314H28.6053H29.1093V79.356C29.1 79.3747 28.9926 80.056 28.7873 81.4C28.582 82.7533 28.4746 83.4393 28.4653 83.458V83.5H23.9993H19.5333V82.996V82.492H20.2893H21.0453V78.74V74.988H20.2893H19.5333V74.484ZM30.1153 74.4V73.896H33.2093C35.328 73.896 36.4293 73.9007 36.5133 73.91C37.288 73.966 37.9787 74.148 38.5853 74.456C39.78 75.0627 40.536 76.052 40.8533 77.424C40.872 77.5267 40.8907 77.6293 40.9093 77.732C41.068 78.6373 41.0307 79.4913 40.7973 80.294C40.4427 81.5073 39.724 82.3847 38.6413 82.926C38.128 83.1967 37.5073 83.3787 36.7793 83.472C36.6767 83.4813 35.5333 83.4907 33.3493 83.5H30.1153V82.996V82.492H30.8713H31.6273V78.698V74.904H30.8713H30.1153V74.4ZM35.8553 74.918C35.79 74.9087 35.4307 74.904 34.7773 74.904H33.8813V78.698V82.492H34.9033C35.6407 82.4827 36.042 82.4733 36.1073 82.464C36.9193 82.3613 37.5353 82.0767 37.9553 81.61C38.31 81.2087 38.5153 80.5927 38.5713 79.762C38.6087 79.0153 38.6087 78.32 38.5713 77.676C38.562 77.6293 38.5573 77.592 38.5573 77.564C38.464 76.5187 38.0953 75.7907 37.4513 75.38C37.3673 75.3333 37.2787 75.2867 37.1853 75.24C36.8307 75.072 36.3873 74.9647 35.8553 74.918ZM42.195 74.4V73.896H42.391L43.763 73.924C44.5657 73.9333 45.3637 73.9333 46.157 73.924L47.543 73.896H47.725V74.4V74.904H46.927H46.129V78.698V82.492H46.927H47.725V82.996V83.5H47.529L46.157 83.472C45.3637 83.4627 44.5657 83.4627 43.763 83.472L42.377 83.5H42.195V82.996V82.492H42.993H43.791V78.698V74.904H42.993H42.195V74.4ZM48.8807 74.134V74.05H53.5987H58.3307V74.134L58.4847 75.912C58.5687 77.0787 58.6154 77.6713 58.6247 77.69V77.774H58.1207C57.7847 77.774 57.6167 77.7693 57.6167 77.76C57.6167 77.5733 57.5934 77.3307 57.5467 77.032C57.4907 76.612 57.4114 76.2667 57.3087 75.996C57.1687 75.6693 56.9307 75.4267 56.5947 75.268C56.4547 75.1933 56.268 75.1373 56.0347 75.1C55.9507 75.0813 55.7127 75.0673 55.3207 75.058H54.7747V78.768V82.492H55.8527H56.9167V82.996V83.5H56.6927L55.0407 83.472C54.0794 83.4627 53.1227 83.4627 52.1707 83.472L50.5187 83.5H50.2947V82.996V82.492H51.3727H52.4367V78.768V75.058H51.8907C51.4987 75.0673 51.2607 75.0813 51.1767 75.1C50.738 75.184 50.402 75.3473 50.1687 75.59C50.0194 75.7393 49.898 75.9633 49.8047 76.262C49.73 76.5327 49.6694 76.948 49.6227 77.508C49.604 77.6667 49.5947 77.7507 49.5947 77.76C49.5947 77.7693 49.4267 77.774 49.0907 77.774H48.5867V77.69L48.7407 75.912C48.8247 74.7453 48.8714 74.1527 48.8807 74.134ZM59.49 74.4V73.896H59.686L61.058 73.924C61.8606 73.9333 62.6586 73.9333 63.452 73.924L64.838 73.896H65.02V74.4V74.904H64.222H63.424V78.698V82.492H64.222H65.02V82.996V83.5H64.824L63.452 83.472C62.6586 83.4627 61.8606 83.4627 61.058 83.472L59.672 83.5H59.49V82.996V82.492H60.288H61.086V78.698V74.904H60.288H59.49V74.4ZM70.8796 73.756C71.1876 73.7373 71.575 73.742 72.0416 73.77C73.311 73.91 74.333 74.3627 75.1076 75.128C75.8636 75.884 76.3163 76.878 76.4656 78.11C76.503 78.4833 76.503 78.8893 76.4656 79.328C76.4656 79.3467 76.4656 79.3653 76.4656 79.384C76.3256 80.5507 75.8963 81.5027 75.1776 82.24C74.8323 82.576 74.4403 82.856 74.0016 83.08C73.423 83.36 72.7696 83.542 72.0416 83.626C71.6496 83.6633 71.211 83.6633 70.7256 83.626C70.6976 83.626 70.6743 83.626 70.6556 83.626C69.3303 83.4673 68.2896 83.0053 67.5336 82.24C66.8056 81.512 66.3716 80.56 66.2316 79.384C66.1943 79.0293 66.1943 78.628 66.2316 78.18C66.2316 78.152 66.2316 78.1287 66.2316 78.11C66.3063 77.55 66.423 77.074 66.5816 76.682C67.0016 75.6087 67.7063 74.8293 68.6956 74.344C69.3303 74.0173 70.0583 73.8213 70.8796 73.756ZM71.6356 74.666C70.8516 74.582 70.1843 74.792 69.6336 75.296C69.503 75.4173 69.3863 75.5527 69.2836 75.702C69.0316 76.0847 68.859 76.5607 68.7656 77.13C68.6723 77.8113 68.6583 78.6233 68.7236 79.566C68.733 79.65 68.7423 79.7293 68.7516 79.804C68.8543 80.8773 69.1903 81.6567 69.7596 82.142C70.3756 82.6553 71.0756 82.828 71.8596 82.66C72.261 82.576 72.6203 82.4033 72.9376 82.142C73.507 81.6567 73.843 80.8773 73.9456 79.804C74.039 79.02 74.0436 78.1893 73.9596 77.312C73.9503 77.2467 73.941 77.186 73.9316 77.13C73.8663 76.7287 73.7543 76.3553 73.5956 76.01C73.2036 75.2167 72.5503 74.7687 71.6356 74.666ZM77.9532 74.4V73.896H79.8852H81.8312L81.8872 73.924C81.9152 73.9333 82.7412 74.9367 84.3652 76.934C86.0172 78.9687 86.8292 79.972 86.8012 79.944L86.8432 79.986V77.452V74.904H86.0872H85.3312V74.4V73.896H85.4712L86.4932 73.924C87.0906 73.9333 87.6879 73.9333 88.2852 73.924C88.9572 73.9053 89.2979 73.896 89.3072 73.896H89.4472V74.4V74.904H88.6912H87.9352V79.104C87.9352 81.8947 87.9259 83.3087 87.9072 83.346C87.8886 83.402 87.8512 83.444 87.7952 83.472C87.7579 83.4907 87.6226 83.5 87.3892 83.5C87.1559 83.5 87.0206 83.4907 86.9832 83.472C86.9646 83.4627 85.8959 82.1607 83.7772 79.566C81.6399 76.906 80.5806 75.5947 80.5992 75.632L80.5572 75.59V79.034V82.492H81.3132H82.0692V82.996V83.5H81.9292C81.9386 83.5 81.5979 83.4907 80.9072 83.472C80.3099 83.4627 79.7126 83.4627 79.1152 83.472C78.4246 83.4907 78.0839 83.5 78.0932 83.5H77.9532V82.996V82.492H78.7092H79.4652V78.698V74.904H78.7092H77.9532V74.4Z" fill="black"/>
<path d="M14.6935 59.984V59.48H19.0335H23.3875V59.536C23.3968 59.5733 23.4715 60.1753 23.6115 61.342C23.7328 62.4807 23.8028 63.0827 23.8215 63.148V63.204H23.3175H22.8135L22.7855 62.966C22.7015 62.3593 22.5895 61.8973 22.4495 61.58C22.1601 60.992 21.6235 60.642 20.8395 60.53C20.5875 60.502 20.1161 60.488 19.4255 60.488H18.5435V62.014V63.554H18.7955C19.2248 63.554 19.5375 63.5027 19.7335 63.4C19.8921 63.3347 20.0088 63.232 20.0835 63.092C20.2141 62.8773 20.2795 62.546 20.2795 62.098V61.916H20.7835H21.2875V64.058V66.2H20.7835H20.2795V66.018C20.2795 65.57 20.2141 65.2387 20.0835 65.024C20.0088 64.884 19.8921 64.7813 19.7335 64.716C19.5375 64.6133 19.2248 64.562 18.7955 64.562H18.5435V66.27V67.992H19.4535C20.1161 67.992 20.4895 67.9873 20.5735 67.978C21.5255 67.9127 22.1975 67.6047 22.5895 67.054C22.6361 66.998 22.6968 66.8907 22.7715 66.732C22.9395 66.4053 23.0841 65.892 23.2055 65.192C23.2241 65.0053 23.2428 64.8933 23.2615 64.856V64.814H23.7655H24.2695V64.856C24.2601 64.8747 24.1528 65.556 23.9475 66.9C23.7421 68.2533 23.6348 68.9393 23.6255 68.958V69H19.1595H14.6935V68.496V67.992H15.4495H16.2055V64.24V60.488H15.4495H14.6935V59.984ZM28.3555 59.256C28.7475 59.2187 29.1255 59.2327 29.4895 59.298C30.0028 59.3727 30.4882 59.5593 30.9455 59.858C31.0015 59.9047 31.0435 59.9233 31.0715 59.914C31.1182 59.8673 31.2395 59.76 31.4355 59.592C31.6782 59.3867 31.8042 59.2793 31.8135 59.27C31.8415 59.2513 31.9068 59.242 32.0095 59.242C32.1215 59.242 32.1915 59.2513 32.2195 59.27C32.2662 59.298 32.2942 59.3633 32.3035 59.466C32.3128 59.5967 32.3175 60.082 32.3175 60.922C32.3175 61.9673 32.2848 62.5133 32.2195 62.56C32.1822 62.5787 32.0468 62.588 31.8135 62.588C31.5802 62.588 31.4448 62.5787 31.4075 62.56C31.3515 62.532 31.3142 62.434 31.2955 62.266C31.2395 61.9673 31.1508 61.692 31.0295 61.44C30.9175 61.2067 30.7635 61.0013 30.5675 60.824C30.1662 60.432 29.6062 60.222 28.8875 60.194C28.1222 60.166 27.6368 60.418 27.4315 60.95C27.3848 61.0807 27.3615 61.23 27.3615 61.398C27.3615 61.5847 27.3942 61.748 27.4595 61.888C27.5995 62.1773 27.8515 62.392 28.2155 62.532C28.2808 62.5693 28.6402 62.6533 29.2935 62.784C29.9655 62.924 30.3388 63.008 30.4135 63.036C30.8242 63.1387 31.1928 63.3113 31.5195 63.554C32.1915 64.0487 32.5975 64.7253 32.7375 65.584C32.7748 65.8453 32.7748 66.172 32.7375 66.564C32.6815 66.9187 32.5742 67.2593 32.4155 67.586C32.2288 67.9687 31.9815 68.2767 31.6735 68.51C31.2442 68.8367 30.7262 69.042 30.1195 69.126C29.8862 69.1633 29.5268 69.168 29.0415 69.14C28.9948 69.1307 28.9575 69.126 28.9295 69.126C28.1268 69.042 27.4828 68.8413 26.9975 68.524C26.9415 68.4867 26.8995 68.4727 26.8715 68.482C26.8248 68.5287 26.7035 68.636 26.5075 68.804C26.2648 69.0093 26.1388 69.1167 26.1295 69.126C26.1015 69.1447 26.0362 69.154 25.9335 69.154C25.8215 69.154 25.7515 69.1447 25.7235 69.126C25.6768 69.098 25.6488 69.0327 25.6395 68.93C25.6302 68.7993 25.6255 68.3187 25.6255 67.488C25.6255 66.4707 25.6348 65.948 25.6535 65.92C25.6628 65.9013 25.6815 65.878 25.7095 65.85C25.7562 65.822 25.8915 65.808 26.1155 65.808C26.3582 65.808 26.4982 65.8173 26.5355 65.836C26.6008 65.8733 26.6335 65.9713 26.6335 66.13C26.6615 66.634 26.8388 67.0493 27.1655 67.376C27.4082 67.6187 27.7442 67.81 28.1735 67.95C28.7242 68.1273 29.2748 68.188 29.8255 68.132C29.9002 68.1227 29.9655 68.1133 30.0215 68.104C30.2828 68.048 30.4975 67.936 30.6655 67.768C30.8522 67.5813 30.9735 67.3293 31.0295 67.012C31.1042 66.536 30.9735 66.13 30.6375 65.794C30.4975 65.6353 30.3155 65.5233 30.0915 65.458C30.0542 65.4393 29.6808 65.3507 28.9715 65.192C28.2995 65.0613 27.9168 64.9773 27.8235 64.94C27.1328 64.744 26.5915 64.3753 26.1995 63.834C25.7982 63.302 25.6068 62.7047 25.6255 62.042C25.6535 61.3793 25.8495 60.81 26.2135 60.334C26.5588 59.8673 27.0628 59.5453 27.7255 59.368C27.9495 59.312 28.1595 59.2747 28.3555 59.256ZM34.2169 59.9V59.396H37.2129C39.2662 59.396 40.3349 59.4007 40.4189 59.41C41.5762 59.494 42.4489 59.844 43.0369 60.46C43.4009 60.852 43.6296 61.314 43.7229 61.846C43.7416 61.93 43.7509 62.0747 43.7509 62.28C43.7509 62.5413 43.7276 62.756 43.6809 62.924C43.5689 63.428 43.3076 63.862 42.8969 64.226C42.3742 64.674 41.7116 64.954 40.9089 65.066C40.6569 65.1033 40.0876 65.122 39.2009 65.122H38.0669V66.55V67.992H38.8229H39.5789V68.496V69H39.3969C39.4062 69 38.9582 68.9907 38.0529 68.972C37.2782 68.9627 36.5036 68.9627 35.7289 68.972L34.3989 69H34.2169V68.496V67.992H34.9729H35.7289V64.198V60.404H34.9729H34.2169V59.9ZM40.0829 60.432C40.0269 60.4227 39.6536 60.4133 38.9629 60.404H37.9829V62.294V64.198H38.8229C39.6442 64.198 40.1762 64.1607 40.4189 64.086C40.7362 63.9927 40.9556 63.848 41.0769 63.652C41.2169 63.4093 41.2822 62.9053 41.2729 62.14C41.2636 61.7013 41.2356 61.3933 41.1889 61.216C41.1516 61.0573 41.0862 60.9313 40.9929 60.838C40.8249 60.642 40.5216 60.5067 40.0829 60.432ZM45.2228 59.984V59.48H49.5628H53.9168V59.536C53.9261 59.5733 54.0008 60.1753 54.1408 61.342C54.2621 62.4807 54.3321 63.0827 54.3508 63.148V63.204H53.8468H53.3428L53.3148 62.966C53.2308 62.3593 53.1188 61.8973 52.9788 61.58C52.6894 60.992 52.1528 60.642 51.3688 60.53C51.1168 60.502 50.6454 60.488 49.9548 60.488H49.0728V62.014V63.554H49.3248C49.7541 63.554 50.0668 63.5027 50.2628 63.4C50.4214 63.3347 50.5381 63.232 50.6128 63.092C50.7434 62.8773 50.8088 62.546 50.8088 62.098V61.916H51.3128H51.8168V64.058V66.2H51.3128H50.8088V66.018C50.8088 65.57 50.7434 65.2387 50.6128 65.024C50.5381 64.884 50.4214 64.7813 50.2628 64.716C50.0668 64.6133 49.7541 64.562 49.3248 64.562H49.0728V66.27V67.992H49.9828C50.6454 67.992 51.0188 67.9873 51.1028 67.978C52.0548 67.9127 52.7268 67.6047 53.1188 67.054C53.1654 66.998 53.2261 66.8907 53.3008 66.732C53.4688 66.4053 53.6134 65.892 53.7348 65.192C53.7534 65.0053 53.7721 64.8933 53.7908 64.856V64.814H54.2948H54.7988V64.856C54.7894 64.8747 54.6821 65.556 54.4768 66.9C54.2714 68.2533 54.1641 68.9393 54.1548 68.958V69H49.6888H45.2228V68.496V67.992H45.9788H46.7348V64.24V60.488H45.9788H45.2228V59.984ZM61.3908 59.256H62.1748C62.5575 59.284 62.9121 59.3633 63.2388 59.494C63.6028 59.6153 63.9528 59.802 64.2888 60.054C64.3728 60.1193 64.4148 60.1427 64.4148 60.124C64.4241 60.124 64.5968 59.984 64.9328 59.704C65.3061 59.4053 65.4881 59.2607 65.4788 59.27C65.5535 59.2233 65.6888 59.2233 65.8848 59.27C65.9315 59.298 65.9595 59.3447 65.9688 59.41C65.9781 59.5033 65.9828 60.11 65.9828 61.23C65.9828 62.4713 65.9688 63.1107 65.9408 63.148L65.8848 63.176C65.8475 63.1947 65.6981 63.204 65.4368 63.204C65.1755 63.204 65.0261 63.1947 64.9888 63.176C64.9235 63.1293 64.8861 63.0593 64.8768 62.966C64.8021 62.2753 64.5548 61.678 64.1348 61.174C63.9481 60.9687 63.7708 60.8053 63.6028 60.684C63.3041 60.4693 62.9915 60.3387 62.6648 60.292C62.2541 60.208 61.7501 60.2313 61.1528 60.362C60.5555 60.4833 60.0748 60.698 59.7108 61.006C59.4961 61.174 59.3375 61.342 59.2348 61.51C58.8428 62.0793 58.6468 62.9753 58.6468 64.198C58.6468 65.4767 58.8661 66.4007 59.3048 66.97C59.3515 67.0353 59.4075 67.1007 59.4728 67.166C59.5941 67.2873 59.6735 67.362 59.7108 67.39C60.0748 67.698 60.5555 67.9127 61.1528 68.034C61.6755 68.146 62.1375 68.1787 62.5388 68.132C63.3881 68.048 64.0461 67.67 64.5128 66.998C64.7928 66.606 64.9468 66.172 64.9748 65.696C64.9748 65.5373 65.0075 65.4393 65.0728 65.402C65.1101 65.3833 65.2455 65.374 65.4788 65.374C65.7121 65.374 65.8475 65.3833 65.8848 65.402C65.9501 65.4487 65.9828 65.556 65.9828 65.724C65.9548 66.172 65.8521 66.578 65.6748 66.942C65.2361 67.8567 64.4848 68.5007 63.4208 68.874C63.0288 69.014 62.6135 69.1027 62.1748 69.14C61.8761 69.168 61.4981 69.1633 61.0408 69.126C59.8648 68.9953 58.8848 68.6593 58.1008 68.118C57.3541 67.5673 56.8221 66.8813 56.5048 66.06C56.3648 65.7053 56.2575 65.2853 56.1828 64.8C56.1455 64.464 56.1455 64.0813 56.1828 63.652C56.1828 63.624 56.1828 63.6007 56.1828 63.582C56.2761 62.8353 56.5095 62.1633 56.8828 61.566C57.4521 60.642 58.3155 59.984 59.4728 59.592C60.0701 59.4053 60.7095 59.2933 61.3908 59.256ZM67.1736 59.9V59.396H67.3696L68.7416 59.424C69.5442 59.4333 70.3422 59.4333 71.1356 59.424L72.5216 59.396H72.7036V59.9V60.404H71.9056H71.1076V64.198V67.992H71.9056H72.7036V68.496V69H72.5076L71.1356 68.972C70.3422 68.9627 69.5442 68.9627 68.7416 68.972L67.3556 69H67.1736V68.496V67.992H67.9716H68.7696V64.198V60.404H67.9716H67.1736V59.9ZM78.6332 59.242H79.4732H79.4872C79.6085 59.2887 79.6785 59.34 79.6972 59.396L83.0572 67.922L83.0852 67.992H83.8412H84.5832V68.496V69H84.4152L83.2112 68.972C82.5299 68.9627 81.7925 68.9627 80.9992 68.972L79.6412 69H79.4592V68.496V67.992H80.0612L80.6632 67.978L80.4112 67.348L80.1592 66.718H78.4372C77.2892 66.718 76.7152 66.7227 76.7152 66.732L76.4632 67.362L76.2252 67.978C76.2252 67.9873 76.4259 67.992 76.8272 67.992H77.4152V68.496V69H77.2752L76.2392 68.972C75.6325 68.9627 75.0725 68.9627 74.5592 68.972L73.6772 69H73.5512V68.496V67.992H74.2932H75.0492L75.0772 67.922L78.4372 59.396C78.4652 59.3493 78.5305 59.298 78.6332 59.242ZM79.1092 64.03L78.4512 62.35H78.4372L77.1212 65.71H78.4512L79.7672 65.696L79.1092 64.03ZM85.7052 59.9V59.396H85.8872C85.8778 59.396 86.3258 59.4053 87.2312 59.424C88.0058 59.4333 88.8365 59.4333 89.7232 59.424L91.2492 59.396H91.4452V59.9V60.404H90.5072H89.5552V64.198V67.992H90.1572C90.5865 67.992 90.8432 67.9827 90.9272 67.964C91.3098 67.9173 91.6552 67.7913 91.9632 67.586C92.5325 67.194 92.8918 66.5407 93.0412 65.626C93.1158 65.2153 93.1532 64.9493 93.1532 64.828C93.1532 64.8187 93.3212 64.814 93.6572 64.814H94.1612V64.884C94.1425 64.9307 94.0725 65.6027 93.9512 66.9C93.8112 68.2347 93.7365 68.9113 93.7272 68.93V69H89.7092H85.7052V68.496V67.992H86.4612H87.2172V64.198V60.404H86.4612H85.7052V59.9Z" fill="black"/>
<g filter="url(#filter0_d_2677_2)">
<path d="M54 44L55.4164 48.9656H60L56.2918 52.0344L57.7082 57L54 53.9311L50.2918 57L51.7082 52.0344L48 48.9656H52.5836L54 44Z" fill="#E6FF5B"/>
<path d="M54.9355 49.1025L55.0391 49.4658H58.6113L55.9727 51.6494L55.7217 51.8574L55.8105 52.1719L56.7852 55.5869L54.3184 53.5459L54 53.2822L53.6816 53.5459L51.2139 55.5869L52.1895 52.1719L52.2783 51.8574L52.0273 51.6494L49.3887 49.4658H52.9609L53.0645 49.1025L54 45.8213L54.9355 49.1025Z" stroke="black"/>
</g>
<defs>
<filter id="filter0_d_2677_2" x="44" y="44" width="20" height="21" filterUnits="userSpaceOnUse" color-interpolation-filters="sRGB">
<feFlood flood-opacity="0" result="BackgroundImageFix"/>
<feColorMatrix in="SourceAlpha" type="matrix" values="0 0 0 0 0 0 0 0 0 0 0 0 0 0 0 0 0 0 127 0" result="hardAlpha"/>
<feOffset dy="4"/>
<feGaussianBlur stdDeviation="2"/>
<feComposite in2="hardAlpha" operator="out"/>
<feColorMatrix type="matrix" values="0 0 0 0 0 0 0 0 0 0 0 0 0 0 0 0 0 0 0.25 0"/>
<feBlend mode="normal" in2="BackgroundImageFix" result="effect1_dropShadow_2677_2"/>
<feBlend mode="normal" in="SourceGraphic" in2="effect1_dropShadow_2677_2" result="shape"/>
</filter>
</defs>
</svg>
