<svg width="65" height="49" viewBox="0 0 65 49" fill="none" xmlns="http://www.w3.org/2000/svg">
<path opacity="0.587821" fill-rule="evenodd" clip-rule="evenodd" d="M13.8335 11.1667C13.8335 17.0577 18.6091 21.8333 24.5002 21.8333C30.3912 21.8333 35.1668 17.0577 35.1668 11.1667C35.1668 5.27563 30.3912 0.5 24.5002 0.5C18.6091 0.5 13.8335 5.27563 13.8335 11.1667ZM40.5002 21.8333C40.5002 26.2516 44.0819 29.8333 48.5002 29.8333C52.9184 29.8333 56.5002 26.2516 56.5002 21.8333C56.5002 17.4151 52.9184 13.8333 48.5002 13.8333C44.0819 13.8333 40.5002 17.4151 40.5002 21.8333Z" fill="#8280FF"/>
<path fill-rule="evenodd" clip-rule="evenodd" d="M24.4556 27.1667C11.8651 27.1667 1.53536 33.6375 0.501738 46.3646C0.445435 47.0579 1.77123 48.5001 2.44001 48.5001H46.4912C48.4944 48.5001 48.5256 46.888 48.4944 46.3667C47.713 33.2819 37.2232 27.1667 24.4556 27.1667ZM63.0492 48.5001L52.7667 48.5001C52.7667 42.4976 50.7835 36.9583 47.4365 32.5017C56.5205 32.601 63.9378 37.1938 64.496 46.9001C64.5185 47.291 64.496 48.5001 63.0492 48.5001Z" fill="#8280FF"/>
</svg>
