<svg width="108" height="107" viewBox="0 0 108 107" fill="none" xmlns="http://www.w3.org/2000/svg">
<ellipse cx="54" cy="53.5" rx="54" ry="53.5" fill="#111111"/>
<path d="M54 2C82.7364 2 106 25.0748 106 53.5C106 81.9252 82.7364 105 54 105C25.2636 105 2 81.9252 2 53.5C2 25.0748 25.2636 2 54 2Z" stroke="black" stroke-width="4"/>
<path d="M54 6C80.5194 6 102 27.2761 102 53.5C102 79.7239 80.5194 101 54 101C27.4806 101 6 79.7239 6 53.5C6 27.2761 27.4806 6 54 6Z" stroke="#F03636" stroke-width="2"/>
<path d="M35 17.5L35 37.5" stroke="white" stroke-width="2" stroke-linecap="round"/>
<path d="M34.9983 37.5002L35.5002 36.9995L36.9983 36.5002L38.497 36.4999L40.9994 36.5L43.5001 36.4999L45.5 36.5L47 37L48.5 37.5L49.5 38L50.5 38.5L51.5002 38.9995L52.5002 39.4995L53.5002 39.9995" stroke="white" stroke-width="2"/>
<path d="M61.4999 37L61.7278 37.9737L61.7351 37.972L61.7424 37.9702L61.4999 37ZM58.5118 37.9322L58.1498 37L57.9282 37.0861L57.769 37.2626L58.5118 37.9322ZM60.0202 37.3464L59.7923 36.3728L59.7238 36.3888L59.6582 36.4143L60.0202 37.3464ZM63.4999 36.5L63.4999 35.5L63.3768 35.5L63.2573 35.5299L63.4999 36.5ZM66.4997 36.5001L66.4997 35.5001L66.4997 35.5001L66.4997 36.5001ZM68.4995 36.5001L68.4995 37.5001L68.4996 37.5001L68.4995 36.5001ZM70.4994 36.5001L70.8156 35.5514L70.6617 35.5001L70.4994 35.5001L70.4994 36.5001ZM71.9994 37.0001L71.6832 37.9488L71.8371 38.0001L71.9994 38.0001L71.9994 37.0001ZM73.4999 28.5001L72.4999 28.5001L72.4999 28.5001L73.4999 28.5001ZM74.5 17C74.5 16.4477 74.0523 16 73.5 16C72.9477 16 72.5 16.4477 72.5 16.9999L74.5 17ZM72.9998 37.0001L72.9999 38.0001L73.414 38L73.7069 37.7072L72.9998 37.0001ZM73.4998 35.0001L72.4998 35.0001L72.4998 35.0001L73.4998 35.0001ZM73.4998 36.5001L74.2069 37.2072L74.4998 36.9143L74.4998 36.5001L73.4998 36.5001ZM57.9999 38.5L58.7426 39.1696L59.2545 38.6018L58.5118 37.9322L57.769 37.2626L57.2571 37.8304L57.9999 38.5ZM58.5118 37.9322L58.8738 38.8644L60.3822 38.2786L60.0202 37.3464L59.6582 36.4143L58.1498 37L58.5118 37.9322ZM60.0202 37.3464L60.2481 38.3201L61.7278 37.9737L61.4999 37L61.2719 36.0264L59.7923 36.3728L60.0202 37.3464ZM61.4999 37L61.7424 37.9702L63.7424 37.4702L63.4999 36.5L63.2573 35.5299L61.2573 36.0299L61.4999 37ZM63.4999 36.5L63.4998 37.5L66.4997 37.5001L66.4997 36.5001L66.4997 35.5001L63.4999 35.5L63.4999 36.5ZM66.4997 36.5001L66.4997 37.5001L68.4995 37.5001L68.4995 36.5001L68.4996 35.5001L66.4997 35.5001L66.4997 36.5001ZM68.4995 36.5001L68.4996 37.5001L70.4994 37.5001L70.4994 36.5001L70.4994 35.5001L68.4995 35.5001L68.4995 36.5001ZM70.4994 36.5001L70.1832 37.4488L71.6832 37.9488L71.9994 37.0001L72.3156 36.0514L70.8156 35.5514L70.4994 36.5001ZM73.4999 28.5001L74.4999 28.5001L74.5 17L73.5 17L72.5 16.9999L72.4999 28.5001L73.4999 28.5001ZM71.9994 37.0001L71.9994 38.0001L72.9999 38.0001L72.9998 37.0001L72.9998 36.0001L71.9993 36.0001L71.9994 37.0001ZM73.4998 35.0001L74.4998 35.0001L74.4999 28.5001L73.4999 28.5001L72.4999 28.5001L72.4998 35.0001L73.4998 35.0001ZM72.9998 37.0001L73.7069 37.7072L74.2069 37.2072L73.4998 36.5001L72.7927 35.793L72.2927 36.293L72.9998 37.0001ZM73.4998 36.5001L74.4998 36.5001L74.4998 35.0001L73.4998 35.0001L72.4998 35.0001L72.4998 36.5001L73.4998 36.5001Z" fill="white"/>
<path d="M51.5 39L53.5 40H55H56.5L58.5 38" stroke="white" stroke-width="2"/>
<path d="M37.5 15L38 14.5H39H43.5H47L48.5 15L50.5 16.5L52 17.5L53 19V34.5V36.5L52 36L51 35.5L49 34.5L47.5 34L46 33.5L37.5 33V15Z" fill="#ED1717"/>
<path d="M70.5 15L70 14.5H69H64.5H61L59.5 15L57.5 16.5L56 17.5L55 19V34.5V36.5L56 36L57 35.5L59 34.5L60.5 34L62 33.5L70.5 33V15Z" fill="#ED1717"/>
<path d="M53 36.5V19L52.5 18L51.5 17L50 16L48.5 15L47 14.5H45H38.5L38 14.5L37.5 15V15.5V33.5" stroke="black" stroke-width="0.5"/>
<path d="M37.5 32.5L37.5001 33.25H44.5H45.3167L46.5 33.5L49 34.5L52.5 36.5H53V35.5" stroke="black" stroke-width="0.5"/>
<path d="M55 36.5V19L55.5 18L56.5 17L58 16L59.5 15L61 14.5H63H69.5L70 14.5L70.5 15V15.5V33.5" stroke="black" stroke-width="0.5"/>
<path d="M70.5 32.5L70.4999 33.25H63.5H62.6833L61.5 33.5L59 34.5L55.5 36.5H55V35.5" stroke="black" stroke-width="0.5"/>
<path d="M25.4255 55.816V54.52H36.5855H47.7815V54.664C47.8055 54.76 47.9975 56.308 48.3575 59.308C48.6695 62.236 48.8495 63.784 48.8975 63.952V64.096H47.6015H46.3055L46.2335 63.484C46.0175 61.924 45.7295 60.736 45.3695 59.92C44.6255 58.408 43.2455 57.508 41.2295 57.22C40.5815 57.148 39.3695 57.112 37.5935 57.112H35.3255V61.036V64.996H35.9735C37.0775 64.996 37.8815 64.864 38.3855 64.6C38.7935 64.432 39.0935 64.168 39.2855 63.808C39.6215 63.256 39.7895 62.404 39.7895 61.252V60.784H41.0855H42.3815V66.292V71.8H41.0855H39.7895V71.332C39.7895 70.18 39.6215 69.328 39.2855 68.776C39.0935 68.416 38.7935 68.152 38.3855 67.984C37.8815 67.72 37.0775 67.588 35.9735 67.588H35.3255V71.98V76.408H37.6655C39.3695 76.408 40.3295 76.396 40.5455 76.372C42.9935 76.204 44.7215 75.412 45.7295 73.996C45.8495 73.852 46.0055 73.576 46.1975 73.168C46.6295 72.328 47.0015 71.008 47.3135 69.208C47.3615 68.728 47.4095 68.44 47.4575 68.344V68.236H48.7535H50.0495V68.344C50.0255 68.392 49.7495 70.144 49.2215 73.6C48.6935 77.08 48.4175 78.844 48.3935 78.892V79H36.9095H25.4255V77.704V76.408H27.3695H29.3135V66.76V57.112H27.3695H25.4255V55.816ZM52.6364 55.6V54.304H60.5924C66.0404 54.304 68.8724 54.316 69.0884 54.34C71.0804 54.484 72.8564 54.952 74.4164 55.744C77.4884 57.304 79.4324 59.848 80.2484 63.376C80.2964 63.64 80.3444 63.904 80.3924 64.168C80.8004 66.496 80.7044 68.692 80.1044 70.756C79.1924 73.876 77.3444 76.132 74.5604 77.524C73.2404 78.22 71.6444 78.688 69.7724 78.928C69.5084 78.952 66.5684 78.976 60.9524 79H52.6364V77.704V76.408H54.5804H56.5244V66.652V56.896H54.5804H52.6364V55.6ZM67.3964 56.932C67.2284 56.908 66.3044 56.896 64.6244 56.896H62.3204V66.652V76.408H64.9484C66.8444 76.384 67.8764 76.36 68.0444 76.336C70.1324 76.072 71.7164 75.34 72.7964 74.14C73.7084 73.108 74.2364 71.524 74.3804 69.388C74.4764 67.468 74.4764 65.68 74.3804 64.024C74.3564 63.904 74.3444 63.808 74.3444 63.736C74.1044 61.048 73.1564 59.176 71.5004 58.12C71.2844 58 71.0564 57.88 70.8164 57.76C69.9044 57.328 68.7644 57.052 67.3964 56.932Z" fill="white"/>
</svg>
