<svg width="110" height="115" viewBox="0 0 110 115" fill="none" xmlns="http://www.w3.org/2000/svg">
<path d="M55 7.5L56 10V46.5H50L43.5 26L55 7.5Z" fill="#FEF0C0"/>
<path d="M57 8L56 10.5V47H62L68.5 26.5L57 8Z" fill="#FED162"/>
<path d="M45 48H56V84L48 81.5L47 67L47.5 55.5L45 55V48Z" fill="#CE6A3E"/>
<path d="M67 48H56V84L61.5 83.5L64 81.5L65 67L64.5 55.5L67 55V48Z" fill="#A4472B"/>
<path d="M16 6H25.5L34 7L41 9.5L49 14L47 20L43 25.5L45 32L47 37.5L48.5 43.5V46.5L45 48V53.5L47 56V60.5L47.5 66.5L47 73L40.5 69.5L29.5 66L16 65V6Z" fill="#FFD379"/>
<path d="M97 5H87.5L79 6L72 8.5L62.5 14L66 19L70 24.5L68 31L66 36.5L64.5 42.5V45.5L68 47V52.5L66 55V59.5L65.5 65.5L66 72L72.5 68.5L83.5 65L97 64V5Z" fill="#FFD379"/>
<path d="M10 13H15L15.5 65L33 67.5L41 70L47 73.5V77L40 73.5L30.5 72H21L10 73V13Z" fill="#E18B2C"/>
<path d="M103 12H98L97.5 64H88L80 65.5L72 69L66 72.5V76L74 73.5L82.5 72L92 71L103 72V12Z" fill="#E18B2C"/>
<path d="M4 17H9L8.5 73L30 72L42.5 75L45 77.5L4 77V17Z" fill="#CB693D"/>
<path d="M108 17H103L103.5 73L92 72H82L69.5 75L67 77.5L108 77V17Z" fill="#CB693D"/>
<line x1="4" y1="17.8867" x2="4" y2="78.8867" stroke="black" stroke-width="2"/>
<line x1="5" y1="77.8867" x2="47" y2="77.8867" stroke="black" stroke-width="2"/>
<path d="M47.475 55.7341L47.475 78.387L47.999 80.887L48.499 81.887L49.9989 83.387L51.9989 83.887L61.9999 83.8869L63.4999 82.8869L64.4999 81.3869L65 78.8867L65 55.8867" stroke="black" stroke-width="3"/>
<rect x="44.5" y="47.3867" width="23" height="7" rx="1.5" stroke="black" stroke-width="3"/>
<path d="M48.5191 47.0241L48.5 44.3868L48 41.8868L47.5 38.8868L47 36.8868L46.5 34.3868L45.5 31.8868L44.5 29.3868L42.5 25.8868L46.5 20.8868L49.5 16.8868L52.5 10.3867L55.5 1.88675L56.5 1.88675L58.5 6.88675L61 13.3868L64 18.3868L67 22.8867L69.5 25.8868L68.5 27.8867L67.5 30.3867L66.5 33.3867L65.5 36.8867L64.5 40.3867L64 44.3868L64 46.3866" stroke="black" stroke-width="3"/>
<line x1="65" y1="78.3867" x2="110" y2="78.3867" stroke="black" stroke-width="3"/>
<line x1="109" y1="78.8867" x2="109" y2="17.8867" stroke="black" stroke-width="2"/>
<line x1="104" y1="73.8867" x2="104" y2="12.8867" stroke="black" stroke-width="2"/>
<line x1="97" y1="64.8867" x2="97" y2="3.88672" stroke="black" stroke-width="2"/>
<line x1="15" y1="64.8867" x2="15" y2="3.88672" stroke="black" stroke-width="2"/>
<line x1="9" y1="73.8867" x2="9" y2="12.8867" stroke="black" stroke-width="2"/>
<path d="M1.10085 109.887V95.3413H11.2429V98.1964H4.61648V101.179H10.7244V104.042H4.61648V107.032H11.2429V109.887H1.10085ZM18.821 109.887H13.4446V95.3413H18.8139C20.2959 95.3413 21.572 95.6325 22.642 96.2148C23.7169 96.7925 24.5455 97.6258 25.1278 98.7148C25.7102 99.7991 26.0014 101.096 26.0014 102.607C26.0014 104.122 25.7102 105.424 25.1278 106.513C24.5502 107.602 23.724 108.438 22.6491 109.02C21.5743 109.598 20.2983 109.887 18.821 109.887ZM16.9602 106.89H18.6861C19.5005 106.89 20.1894 106.752 20.7528 106.478C21.321 106.198 21.7495 105.746 22.0384 105.121C22.3319 104.491 22.4787 103.653 22.4787 102.607C22.4787 101.56 22.3319 100.727 22.0384 100.107C21.7448 99.4819 21.3116 99.0321 20.7386 98.7575C20.1705 98.4781 19.4697 98.3384 18.6364 98.3384H16.9602V106.89ZM31.5696 95.3413V109.887H28.054V95.3413H31.5696ZM33.3008 98.1964V95.3413H45.5948V98.1964H41.1843V109.887H37.7184V98.1964H33.3008ZM60.3764 102.614C60.3764 104.214 60.0687 105.571 59.4531 106.684C58.8376 107.796 58.0043 108.641 56.9531 109.219C55.9067 109.797 54.7325 110.086 53.4304 110.086C52.1236 110.086 50.947 109.794 49.9006 109.212C48.8542 108.63 48.0232 107.784 47.4077 106.676C46.7969 105.564 46.4915 104.21 46.4915 102.614C46.4915 101.014 46.7969 99.6571 47.4077 98.5444C48.0232 97.4317 48.8542 96.5865 49.9006 96.0089C50.947 95.4312 52.1236 95.1424 53.4304 95.1424C54.7325 95.1424 55.9067 95.4312 56.9531 96.0089C58.0043 96.5865 58.8376 97.4317 59.4531 98.5444C60.0687 99.6571 60.3764 101.014 60.3764 102.614ZM56.7827 102.614C56.7827 101.667 56.6477 100.867 56.3778 100.213C56.1127 99.56 55.7292 99.0652 55.2273 98.729C54.7301 98.3929 54.1312 98.2248 53.4304 98.2248C52.7344 98.2248 52.1354 98.3929 51.6335 98.729C51.1316 99.0652 50.7457 99.56 50.4759 100.213C50.2107 100.867 50.0781 101.667 50.0781 102.614C50.0781 103.561 50.2107 104.361 50.4759 105.015C50.7457 105.668 51.1316 106.163 51.6335 106.499C52.1354 106.835 52.7344 107.003 53.4304 107.003C54.1312 107.003 54.7301 106.835 55.2273 106.499C55.7292 106.163 56.1127 105.668 56.3778 105.015C56.6477 104.361 56.7827 103.561 56.7827 102.614ZM62.429 109.887V95.3413H68.4375C69.5265 95.3413 70.4664 95.5378 71.2571 95.9308C72.0526 96.319 72.6657 96.8777 73.0966 97.6069C73.5275 98.3313 73.7429 99.1907 73.7429 100.185C73.7429 101.194 73.5227 102.051 73.0824 102.756C72.642 103.457 72.017 103.992 71.2074 104.361C70.3977 104.726 69.4389 104.908 68.331 104.908H64.5312V102.138H67.6776C68.2079 102.138 68.6506 102.069 69.0057 101.932C69.3655 101.79 69.6378 101.577 69.8224 101.293C70.0071 101.004 70.0994 100.635 70.0994 100.185C70.0994 99.7352 70.0071 99.3635 69.8224 99.07C69.6378 98.7717 69.3655 98.5491 69.0057 98.4023C68.6458 98.2508 68.2031 98.1751 67.6776 98.1751H65.9446V109.887H62.429ZM70.6179 103.239L74.2401 109.887H70.4048L66.8537 103.239H70.6179ZM79.1868 95.3413V109.887H75.6712V95.3413H79.1868ZM84.5401 109.887H80.7617L85.6694 95.3413H90.3498L95.2575 109.887H91.479L88.0629 99.006H87.9492L84.5401 109.887ZM84.0359 104.162H91.9336V106.833H84.0359V104.162ZM96.8235 109.887V95.3413H100.339V107.032H106.39V109.887H96.8235Z" fill="black"/>
<line x1="3" y1="16.8867" x2="10" y2="16.8867" stroke="black" stroke-width="2"/>
<line x1="8" y1="11.8867" x2="15" y2="11.8867" stroke="black" stroke-width="2"/>
<path d="M15 4.88672L19.5 4.88672L24.4982 5.38626L27.9982 5.88625L31.9984 6.38631L34.499 6.88646L37.4981 7.88625L41.4981 9.38625L44.4981 10.8862L49.4981 13.8862" stroke="black" stroke-width="2"/>
<path d="M98 4.38672L92.5 4.38672L88.2642 4.59203L84.7643 5.092L81.7646 5.59193L78.2645 6.59196L74.7646 7.59193L70.7646 9.09193L67.7646 10.5919L62.7646 13.5919" stroke="black" stroke-width="2"/>
<path d="M14 65.0725L18.5885 65.0725L23.5866 65.5721L27.0866 66.0721L31.0868 66.5721L33.5874 67.0723L36.5866 68.0721L40.5866 69.5721L43.5866 71.0721L47 73.3867" stroke="black" stroke-width="2"/>
<path d="M97.5003 63.8866L92.0003 63.8866L88.0001 63.8867L83.5 64.3867L79.5 65.3867L76.5 66.3867L73 67.8867L70 69.3867L67.0015 71.3864L65.0015 72.8864" stroke="black" stroke-width="2"/>
<path d="M23.5008 15.8869L27.0011 16.3869L30.0006 16.8869L32.5 17.3867L35.5 18.3867L40.5 20.3867" stroke="black" stroke-width="2" stroke-linecap="round"/>
<path d="M22.0589 25.5925L25.5592 26.0926L28.5587 26.5926L31.0581 27.0924L34.0581 28.0924L39.0581 30.0924" stroke="black" stroke-width="2" stroke-linecap="round"/>
<path d="M23.0589 36.5925L26.5592 37.0926L29.5587 37.5926L32.0581 38.0924L35.0581 39.0924L40.0581 41.0924" stroke="black" stroke-width="2" stroke-linecap="round"/>
<path d="M23.0589 46.5925L26.5592 47.0926L29.5587 47.5926L32.0581 48.0924L35.0581 49.0924L40.0581 51.0924" stroke="black" stroke-width="2" stroke-linecap="round"/>
<path d="M89.2346 15.5925L85.7343 16.0926L82.7347 16.5926L80.2354 17.0924L77.2354 18.0924L72.2354 20.0924" stroke="black" stroke-width="2" stroke-linecap="round"/>
<path d="M90.6765 25.2986L87.1762 25.7987L84.1766 26.2986L81.6772 26.7985L78.6772 27.7985L73.6772 29.7985" stroke="black" stroke-width="2" stroke-linecap="round"/>
<path d="M89.6765 36.2986L86.1762 36.7987L83.1766 37.2986L80.6772 37.7985L77.6772 38.7985L72.6772 40.7985" stroke="black" stroke-width="2" stroke-linecap="round"/>
<path d="M89.6765 46.2986L86.1762 46.7987L83.1766 47.2986L80.6772 47.7985L77.6772 48.7985L72.6772 50.7985" stroke="black" stroke-width="2" stroke-linecap="round"/>
<line x1="97" y1="11.8867" x2="105" y2="11.8867" stroke="black" stroke-width="2"/>
<line x1="104" y1="16.8867" x2="110" y2="16.8867" stroke="black" stroke-width="2"/>
<path d="M8.5 72.8867L10.4999 72.8867L12.9982 72.3865L17.499 71.8867L22.4994 71.8868L26.9995 71.8868L30.4999 71.8868L33.9999 72.3867L36.4994 72.8867L39.9994 73.8867L46.4999 76.8867" stroke="black" stroke-width="2"/>
<path d="M104 72.8867L102.5 72.8867L99.9997 72.3868L95.9997 71.8868L91.9997 71.3868L86.9997 71.3868L83.4997 71.8868L79.9997 72.3868L76.9997 72.8868L74.4997 73.3868L71.3 74.6057L65.2613 77.1074" stroke="black" stroke-width="2"/>
<line x1="55.9996" y1="3.85101" x2="56.4996" y2="24.851" stroke="black" stroke-width="3"/>
<circle cx="56.5" cy="27.3867" r="3.5" fill="black"/>
</svg>
